<svg width="338" height="324" viewBox="0 0 338 324" fill="none" xmlns="http://www.w3.org/2000/svg">
<path d="M82.4399 11.1193C81.4665 45.8771 78.3101 165.77 79.8169 208.256C79.9765 212.757 84.0522 216.37 89.1364 216.517C114.282 217.245 206.464 219.092 247.594 217.564C256.161 217.246 262.973 211.103 263.151 203.514C264.006 167.031 265.891 64.419 261.409 17.4125C260.872 11.7804 255.879 7.29537 249.526 6.73261C222.142 4.30746 129.563 -1.62099 94.0292 0.42037C87.6208 0.788579 82.5994 5.43578 82.4399 11.1193Z" fill="url(#paint0_linear)"/>
<path d="M99.8902 16.2168H240.63C243.343 16.2168 245.945 17.2944 247.863 19.2125C249.781 21.1306 250.859 23.732 250.859 26.4446V55.9006C250.859 57.2437 250.594 58.5737 250.08 59.8146C249.566 61.0555 248.813 62.183 247.863 63.1327C246.913 64.0824 245.786 64.8358 244.545 65.3498C243.304 65.8637 241.974 66.1283 240.63 66.1283H99.8902C97.1776 66.1283 94.576 65.0507 92.6579 63.1326C90.7397 61.2146 89.6621 58.6131 89.6621 55.9006V26.4446C89.6621 25.1015 89.9266 23.7715 90.4406 22.5306C90.9546 21.2897 91.708 20.1622 92.6578 19.2125C93.6076 18.2627 94.7351 17.5093 95.9761 16.9953C97.217 16.4813 98.547 16.2168 99.8902 16.2168Z" fill="#91B3FA"/>
<path opacity="0.2" d="M243.679 26.2748C243.063 25.6377 242.328 25.1285 241.514 24.7761C240.701 24.4237 239.826 24.2351 238.94 24.2211L107.248 22.1288C105.55 22.1018 103.905 22.7162 102.641 23.8493C101.377 24.9823 100.586 26.5506 100.428 28.2409L97.6922 57.4564C97.4681 59.8486 101.404 61.8627 106.421 61.9237L235.893 63.4924C240.903 63.553 245.044 61.6424 245.086 59.2522L245.574 31.0797C245.59 30.1936 245.431 29.3131 245.105 28.4886C244.78 27.6641 244.296 26.9118 243.679 26.2748Z" fill="white"/>
<path d="M124.847 95.9929C124.847 97.2286 124.604 98.4522 124.131 99.5938C123.658 100.735 122.965 101.773 122.091 102.647C121.217 103.52 120.18 104.213 119.038 104.686C117.897 105.159 116.673 105.403 115.437 105.402H103.982C101.486 105.402 99.0928 104.411 97.3282 102.646C95.5636 100.882 94.5723 98.4884 94.5723 95.9929C94.5723 93.4974 95.5637 91.104 97.3284 89.3394C99.0932 87.5748 101.487 86.5835 103.982 86.5835H115.438C116.674 86.5835 117.897 86.8268 119.039 87.2997C120.18 87.7726 121.218 88.4657 122.092 89.3394C122.965 90.2131 123.659 91.2504 124.131 92.392C124.604 93.5337 124.848 94.7572 124.848 95.9929H124.847Z" fill="url(#paint1_linear)"/>
<path d="M167.396 95.9929C167.396 97.2286 167.153 98.4522 166.68 99.5938C166.207 100.735 165.514 101.773 164.64 102.647C163.766 103.52 162.729 104.213 161.587 104.686C160.445 105.159 159.222 105.403 157.986 105.402H146.531C144.035 105.402 141.641 104.411 139.877 102.646C138.112 100.882 137.121 98.4885 137.121 95.9929C137.121 93.4974 138.112 91.104 139.877 89.3394C141.641 87.5748 144.035 86.5835 146.531 86.5835H157.986C159.222 86.5835 160.445 86.8268 161.587 87.2997C162.729 87.7726 163.766 88.4657 164.64 89.3394C165.514 90.2131 166.207 91.2504 166.68 92.392C167.153 93.5337 167.396 94.7572 167.396 95.9929Z" fill="url(#paint2_linear)"/>
<path d="M208.309 95.9929C208.309 97.2286 208.066 98.4522 207.593 99.5938C207.12 100.735 206.427 101.773 205.553 102.646C204.679 103.52 203.642 104.213 202.5 104.686C201.359 105.159 200.135 105.402 198.899 105.402H187.444C186.208 105.402 184.984 105.159 183.843 104.686C182.701 104.213 181.664 103.52 180.79 102.646C179.916 101.773 179.223 100.735 178.75 99.5938C178.277 98.4522 178.034 97.2286 178.034 95.9929C178.034 93.4974 179.025 91.1041 180.79 89.3395C182.554 87.5748 184.948 86.5835 187.444 86.5835H198.899C201.395 86.5835 203.788 87.5748 205.553 89.3395C207.318 91.1041 208.309 93.4974 208.309 95.9929Z" fill="url(#paint3_linear)"/>
<path d="M249.782 97.3735C249.782 99.9095 248.775 102.342 246.982 104.135C245.188 105.928 242.756 106.935 240.22 106.935H229.148C227.892 106.935 226.649 106.688 225.489 106.208C224.328 105.727 223.274 105.023 222.386 104.135C221.498 103.247 220.794 102.193 220.313 101.033C219.833 99.8726 219.585 98.6292 219.585 97.3735C219.585 94.8375 220.593 92.4054 222.386 90.6122C224.18 88.819 226.612 87.8115 229.148 87.8115H240.22C242.756 87.8116 245.188 88.819 246.982 90.6122C248.775 92.4055 249.782 94.8376 249.782 97.3735Z" fill="url(#paint4_linear)"/>
<path d="M124.847 125.449C124.847 126.685 124.604 127.908 124.131 129.05C123.658 130.192 122.965 131.229 122.091 132.103C121.217 132.976 120.18 133.669 119.038 134.142C117.897 134.615 116.673 134.859 115.437 134.859H103.982C101.486 134.859 99.0927 133.867 97.328 132.103C95.5632 130.338 94.5718 127.945 94.5718 125.449C94.5718 124.213 94.8152 122.99 95.2881 121.848C95.761 120.707 96.4541 119.669 97.3279 118.796C98.2017 117.922 99.239 117.229 100.381 116.756C101.522 116.283 102.746 116.04 103.982 116.04H115.437C116.673 116.04 117.897 116.283 119.038 116.756C120.18 117.229 121.217 117.922 122.091 118.795C122.965 119.669 123.658 120.707 124.131 121.848C124.604 122.99 124.847 124.213 124.847 125.449Z" fill="url(#paint5_linear)"/>
<path d="M167.396 125.449C167.396 126.685 167.153 127.908 166.68 129.05C166.207 130.192 165.514 131.229 164.64 132.103C163.766 132.976 162.729 133.669 161.587 134.142C160.445 134.615 159.222 134.859 157.986 134.859H146.531C144.035 134.859 141.641 133.867 139.877 132.103C138.112 130.338 137.121 127.945 137.121 125.449C137.121 122.954 138.112 120.56 139.877 118.796C141.641 117.031 144.035 116.04 146.531 116.04H157.986C159.222 116.04 160.445 116.283 161.587 116.756C162.729 117.229 163.766 117.922 164.64 118.795C165.514 119.669 166.207 120.707 166.68 121.848C167.153 122.99 167.396 124.213 167.396 125.449Z" fill="url(#paint6_linear)"/>
<path d="M208.309 125.449C208.309 127.945 207.318 130.338 205.553 132.103C203.788 133.867 201.395 134.859 198.899 134.859H187.444C184.948 134.859 182.554 133.867 180.79 132.103C179.025 130.338 178.034 127.945 178.034 125.449C178.034 124.213 178.277 122.99 178.75 121.848C179.223 120.707 179.916 119.669 180.79 118.796C181.664 117.922 182.701 117.229 183.843 116.756C184.984 116.283 186.208 116.04 187.444 116.04H198.899C200.135 116.04 201.359 116.283 202.5 116.756C203.642 117.229 204.679 117.922 205.553 118.796C206.427 119.669 207.12 120.707 207.593 121.848C208.066 122.99 208.309 124.213 208.309 125.449Z" fill="url(#paint7_linear)"/>
<path d="M250.858 125.449C250.858 126.685 250.615 127.908 250.142 129.05C249.669 130.192 248.976 131.229 248.102 132.103C247.229 132.976 246.191 133.669 245.05 134.142C243.908 134.615 242.684 134.859 241.449 134.859H229.993C227.497 134.859 225.104 133.867 223.339 132.103C221.574 130.338 220.583 127.945 220.583 125.449C220.583 122.954 221.574 120.56 223.339 118.796C225.104 117.031 227.497 116.04 229.993 116.04H241.449C242.684 116.04 243.908 116.283 245.05 116.756C246.191 117.229 247.229 117.922 248.102 118.795C248.976 119.669 249.669 120.707 250.142 121.848C250.615 122.99 250.858 124.213 250.858 125.449Z" fill="url(#paint8_linear)"/>
<path d="M124.847 151.536C124.847 152.772 124.604 153.995 124.131 155.137C123.658 156.278 122.965 157.316 122.091 158.189C121.217 159.063 120.18 159.756 119.038 160.229C117.897 160.702 116.673 160.945 115.437 160.945H103.982C101.486 160.945 99.0928 159.954 97.3282 158.189C95.5636 156.425 94.5723 154.031 94.5723 151.536C94.5723 149.04 95.5637 146.647 97.3284 144.882C99.0932 143.118 101.487 142.126 103.982 142.126H115.438C117.933 142.127 120.327 143.118 122.091 144.883C123.856 146.647 124.847 149.04 124.847 151.536Z" fill="url(#paint9_linear)"/>
<path d="M167.396 151.536C167.396 152.772 167.153 153.995 166.68 155.137C166.207 156.278 165.514 157.316 164.64 158.189C163.766 159.063 162.729 159.756 161.587 160.229C160.445 160.702 159.222 160.945 157.986 160.945H146.531C144.035 160.945 141.641 159.954 139.877 158.189C138.112 156.425 137.121 154.031 137.121 151.536C137.121 149.04 138.112 146.647 139.877 144.882C141.641 143.118 144.035 142.126 146.531 142.126H157.986C159.222 142.126 160.445 142.37 161.587 142.843C162.729 143.316 163.766 144.009 164.64 144.882C165.514 145.756 166.207 146.793 166.68 147.935C167.153 149.077 167.396 150.3 167.396 151.536Z" fill="url(#paint10_linear)"/>
<path d="M208.309 151.536C208.309 152.772 208.066 153.995 207.593 155.137C207.12 156.278 206.427 157.316 205.553 158.189C204.679 159.063 203.642 159.756 202.5 160.229C201.359 160.702 200.135 160.945 198.899 160.945H187.444C186.208 160.945 184.984 160.702 183.843 160.229C182.701 159.756 181.664 159.063 180.79 158.189C179.916 157.316 179.223 156.278 178.75 155.137C178.277 153.995 178.034 152.772 178.034 151.536C178.034 149.04 179.025 146.647 180.79 144.882C182.554 143.118 184.948 142.126 187.444 142.126H198.899C201.395 142.126 203.788 143.118 205.553 144.882C207.318 146.647 208.309 149.04 208.309 151.536Z" fill="url(#paint11_linear)"/>
<path opacity="0.63" d="M124.847 180.174C124.847 181.409 124.604 182.633 124.131 183.775C123.658 184.916 122.965 185.954 122.091 186.827C121.217 187.701 120.18 188.394 119.038 188.867C117.897 189.34 116.673 189.583 115.437 189.583H103.982C101.486 189.583 99.0927 188.592 97.328 186.827C95.5632 185.063 94.5718 182.669 94.5718 180.174C94.5718 177.678 95.5632 175.285 97.328 173.52C99.0927 171.756 101.486 170.764 103.982 170.764H115.437C117.933 170.764 120.326 171.756 122.091 173.52C123.856 175.285 124.847 177.678 124.847 180.174Z" fill="url(#paint12_linear)"/>
<path opacity="0.63" d="M167.396 180.174C167.396 181.409 167.153 182.633 166.68 183.775C166.207 184.916 165.514 185.954 164.64 186.827C163.766 187.701 162.729 188.394 161.587 188.867C160.445 189.34 159.222 189.583 157.986 189.583H146.531C144.035 189.583 141.641 188.592 139.877 186.827C138.112 185.063 137.121 182.669 137.121 180.174C137.121 177.678 138.112 175.285 139.877 173.52C141.641 171.756 144.035 170.764 146.531 170.764H157.986C160.482 170.764 162.875 171.756 164.64 173.52C166.405 175.285 167.396 177.678 167.396 180.174Z" fill="url(#paint13_linear)"/>
<path opacity="0.63" d="M208.309 180.174C208.309 182.669 207.318 185.063 205.553 186.827C203.788 188.592 201.395 189.583 198.899 189.583H187.444C184.948 189.583 182.554 188.592 180.79 186.827C179.025 185.063 178.034 182.669 178.034 180.174C178.034 177.678 179.025 175.285 180.79 173.52C182.554 171.756 184.948 170.764 187.444 170.764H198.899C201.395 170.764 203.788 171.756 205.553 173.52C207.318 175.285 208.309 177.678 208.309 180.174Z" fill="url(#paint14_linear)"/>
<path d="M234.13 144.676H234.856C238.014 144.676 241.044 145.931 243.277 148.165C245.511 150.398 246.766 153.427 246.766 156.586V179.404C246.766 182.563 245.511 185.592 243.277 187.825C241.044 190.059 238.014 191.314 234.856 191.314H234.13C232.566 191.314 231.017 191.006 229.572 190.407C228.127 189.809 226.814 188.931 225.708 187.825C224.602 186.719 223.724 185.407 223.126 183.962C222.527 182.517 222.219 180.968 222.219 179.404V156.587C222.219 155.023 222.527 153.474 223.126 152.029C223.724 150.584 224.601 149.271 225.707 148.165C226.813 147.059 228.126 146.182 229.572 145.583C231.017 144.984 232.565 144.676 234.13 144.676Z" fill="#91B3FA"/>
<ellipse cx="64.4509" cy="314.958" rx="63.4509" ry="8.95778" fill="#C4C4C4" fill-opacity="0.3"/>
<path d="M79.1688 301.485C77.6705 304.316 77.2593 307.598 78.0128 310.711L107.977 310.742C107.977 310.742 108.584 307.611 107.393 306.656C106.203 305.701 92.7824 300.974 92.7824 300.974L79.1688 301.485Z" fill="#EDBB95"/>
<path d="M14.3118 294.302C12.012 296.531 10.6073 299.525 10.3623 302.719L38.8533 312C38.8533 312 40.3969 309.209 39.5593 307.933C38.7217 306.656 27.4161 298.018 27.4161 298.018L14.3118 294.302Z" fill="#EDBB95"/>
<path d="M73.2388 96.811C73.2388 96.811 80.5545 129.168 84.3641 133.198C87.193 136.19 109.92 151.442 109.92 151.442L104.325 159.552C104.325 159.552 80.2566 148.863 74.6293 142.302C70.2684 137.219 65.3857 117.162 65.3857 117.162L73.2388 96.811Z" fill="#EDBB95"/>
<path d="M104.326 159.552C104.326 159.552 108.163 167.237 110.424 167.863C112.686 168.489 121.302 162.075 121.024 159.409C120.746 156.743 109.92 151.447 109.92 151.447L104.326 159.552Z" fill="#EDBB95"/>
<path d="M110.406 152.063C110.406 152.063 115.864 148.772 116.971 150.5C118.079 152.228 113.059 155.325 113.059 155.325L110.406 152.063Z" fill="#EDBB95"/>
<path d="M28.4064 94.6309C28.4064 94.6309 5.12059 119.492 2.64225 130.187C0.197646 140.748 10.0649 172.904 10.0649 172.904L19.5891 170.383C19.5891 170.383 16.3027 133.804 16.9281 131.588C17.6991 128.857 34.4353 119.543 34.4353 119.543L28.4064 94.6309Z" fill="#EDBB95"/>
<path d="M78.1928 175.984L69.1681 242.006L28.6943 298.322C17.3591 299.063 13.3149 294.156 13.3149 294.156C13.3149 294.156 43.0353 239.259 43.4006 237.272C43.8046 235.072 39.0586 175.984 39.0586 175.984H78.1928Z" fill="#121235"/>
<path d="M23.3696 175.984C23.3696 204.136 67.2071 237.258 67.6588 240.223C68.0184 242.579 78.1909 302.495 78.1909 302.495C88.7041 304.66 93.8772 300.774 93.8772 300.774C93.8772 300.774 94.7938 242.993 94.5157 238.809C94.236 234.597 68.1854 175.984 68.1854 175.984H23.3696Z" fill="#121235"/>
<path d="M20.9897 178.926C20.9897 178.926 42.7262 189.534 79.8824 175.355C79.8824 175.355 73.9712 151.593 73.5985 132.718C73.2554 115.331 74.2798 98.7606 73.2389 96.8113C69.6399 90.0716 53.1843 85.6209 48.8447 85.7493C46.252 85.8225 42.3543 86.8099 38.5455 88.3502C36.823 89.0356 35.1493 89.8378 33.5361 90.7512C30.4267 92.5195 27.8998 94.6119 26.9643 96.7636C25.9316 99.1275 26.3883 135.477 26.2418 137.58C26.1571 138.836 20.9897 178.926 20.9897 178.926Z" fill="#FFA62B"/>
<path d="M28.8434 94.1689C28.8434 94.1689 2.88748 117.266 0.576172 131.551C0.576172 131.551 4.88282 138.8 19.2386 137.399C19.2386 137.399 20.0614 133.32 21.1122 132.34C22.1629 131.36 28.8467 126.475 28.8467 126.475L28.8434 94.1689Z" fill="#FFA62B"/>
<path d="M73.2387 96.811C73.2387 96.811 81.8783 127.561 84.6092 129.732C86.2361 131.022 87.7688 132.426 89.1957 133.933C89.1957 133.933 85.2124 143.643 76.9488 146.581C73.8596 145.547 71.2304 143.463 69.5179 140.691C66.9268 136.209 73.2387 96.811 73.2387 96.811Z" fill="#FFA62B"/>
<path d="M74.0065 70.377C75.9877 69.2816 77.7984 67.9028 79.3812 66.2843C80.9993 64.6174 82.2146 62.6025 82.9341 60.3937C83.2452 59.551 83.3303 58.6415 83.181 57.7557C82.9582 56.9083 82.4643 56.157 81.7748 55.6164C81.1032 55.1006 80.3743 54.6641 79.6025 54.3155C80.5986 52.6567 81.0941 50.7454 81.0293 48.8116C81.0925 47.2689 80.6191 45.752 79.6897 44.519C78.7977 43.5158 77.5786 42.8618 76.2495 42.6734C74.7268 42.4551 73.1733 42.677 71.7725 43.3128C70.3717 43.9486 69.1821 44.9718 68.3438 46.2617C68.3583 46.1229 68.3383 45.9826 68.2854 45.8534C68.2326 45.7242 68.1487 45.6101 68.041 45.5212C67.8355 45.3385 67.5922 45.2034 67.3285 45.1254C66.2539 44.7595 65.1035 44.6747 63.9869 44.8791C62.8702 45.0834 61.8245 45.5702 60.9491 46.293C58.9122 46.0159 56.8434 46.0774 54.8265 46.4748C53.8066 46.6841 52.8504 47.1309 52.0355 47.779C51.2206 48.427 50.57 49.2581 50.1364 50.2047C49.7146 50.2596 49.3093 50.4032 48.9469 50.626C48.5846 50.8488 48.2735 51.1457 48.0341 51.4973C47.5476 52.2026 47.2084 52.9988 47.0369 53.8383C46.061 57.9038 47.055 62.2171 48.518 66.1139C48.9563 67.4568 49.6174 68.7163 50.4738 69.8397C52.21 71.9157 54.917 72.7064 57.5065 73.0528C62.9832 73.7859 69.1387 73.1565 74.0065 70.377Z" fill="#191841"/>
<path d="M51.0752 60.7934C50.5132 64.6935 49.66 69.7276 48.8273 74.4868C48.7532 74.9368 48.6627 75.3968 48.5911 75.8469C47.3174 83.0663 46.144 89.2959 46.144 89.2959C48.3064 93.5351 57.1649 93.3746 57.0209 91.9832C56.9822 91.1448 57.1051 90.3068 57.383 89.5148C57.4664 89.2115 57.5684 88.9136 57.6882 88.6228C57.692 88.601 57.701 88.5803 57.7146 88.5628C58.03 87.7032 58.5858 86.9523 59.3158 86.3996C59.7189 86.2201 60.1619 86.1489 60.601 86.193L60.6265 86.1988C60.6619 86.1927 60.6981 86.1927 60.7335 86.1988C60.838 86.2087 60.8923 86.2078 60.8923 86.2078C61.154 86.2259 61.4452 86.2375 61.7579 86.2671C62.1348 86.3107 62.3561 86.3337 62.3561 86.3337C65.4195 86.6423 69.8306 87.1837 72.0399 84.2635C75.3057 80.0062 76.1367 67.7701 76.0528 61.8606C76.0084 58.4664 73.3005 53.6257 67.4954 52.3463C60.4142 50.7977 52.5958 50.4176 51.0752 60.7934Z" fill="#EDBB95"/>
<path d="M72.4185 59.2853C71.0372 59.984 69.4399 60.1243 67.958 59.677C67.2835 59.4028 66.5868 59.187 65.8754 59.0319C64.9798 59.0104 64.0858 59.1182 63.221 59.352C62.7852 59.4662 62.3297 59.4834 61.8865 59.4024C61.4434 59.3213 61.0234 59.144 60.6563 58.883C59.9847 60.4651 59.0797 61.9376 57.9714 63.2513C56.8898 64.5387 55.4185 65.439 53.7799 65.8161C53.0031 66.0002 52.1866 65.911 51.4678 65.5635C50.8208 65.1648 50.2999 64.5911 49.9653 63.9088C49.2431 62.4602 48.8896 60.8558 48.9362 59.2378C48.9829 57.6199 49.4282 56.0385 50.2327 54.6339C51.8309 51.9185 54.4172 49.9263 57.4505 49.0741C60.4038 48.2865 63.5028 48.2171 66.4884 48.8717C68.4681 49.1941 70.3703 49.8828 72.0976 50.9024C73.3934 51.6949 74.4823 52.7841 75.2745 54.0802C76.1146 55.5045 75.3568 56.5709 74.413 57.6899C73.8619 58.3501 73.1836 58.8927 72.4185 59.2853Z" fill="#191841"/>
<g style="mix-blend-mode:multiply">
<path d="M58.2199 86.0813C55.8416 85.6658 53.5394 84.895 51.3904 83.7947C51.3669 83.7822 51.3412 83.7745 51.3147 83.7719C51.2882 83.7694 51.2615 83.7721 51.2361 83.7799C51.2106 83.7877 51.187 83.8004 51.1664 83.8173C51.1459 83.8343 51.1289 83.8551 51.1164 83.8786C51.104 83.9021 51.0962 83.9278 51.0937 83.9543C51.0912 83.9808 51.0939 84.0075 51.1017 84.033C51.1095 84.0584 51.1222 84.0821 51.1391 84.1026C51.1561 84.1231 51.1769 84.1401 51.2004 84.1526C53.3805 85.2703 55.7163 86.0538 58.1294 86.4771C58.3877 86.5223 58.4807 86.1266 58.2199 86.0813Z" fill="#ECD7C7"/>
</g>
<path d="M62.0294 69.6956C61.9093 70.2354 62.5338 70.8336 63.4282 71.0319C64.3226 71.2302 65.1389 70.9537 65.259 70.4131C65.3791 69.8725 64.7538 69.2752 63.8602 69.0769C62.9666 68.8786 62.1496 69.155 62.0294 69.6956Z" fill="#E8A294"/>
<path d="M71.6906 71.8465C71.5704 72.3863 72.1958 72.9845 73.0894 73.1828C73.9829 73.3811 74.8 73.1046 74.9201 72.564C75.0403 72.0234 74.4157 71.4261 73.5213 71.2278C72.6269 71.0295 71.8107 71.3059 71.6906 71.8465Z" fill="#E8A294"/>
<path d="M67.4232 68.8353C67.413 68.5638 67.3146 68.3031 67.143 68.0926C66.9714 67.8821 66.7358 67.7332 66.4721 67.6685C66.201 67.6251 65.9233 67.6542 65.6671 67.7527C65.4109 67.8513 65.1853 68.0158 65.0132 68.2297C64.8305 68.4173 65.1284 68.6921 65.3102 68.5053C65.4314 68.3487 65.5902 68.2254 65.772 68.1468C65.9537 68.0683 66.1524 68.037 66.3495 68.0561C66.5347 68.0944 66.7016 68.1943 66.8229 68.3395C66.9442 68.4847 67.0128 68.6667 67.0176 68.8558C67.0223 68.9082 67.047 68.9567 67.0867 68.9911C67.1264 69.0256 67.1778 69.0434 67.2303 69.0407C67.2828 69.038 67.3322 69.0152 67.3682 68.9769C67.4041 68.9385 67.4239 68.8878 67.4232 68.8353Z" fill="#311E19"/>
<path d="M72.7268 70.1149C72.6796 69.8413 72.5688 69.5825 72.4033 69.3596C72.2378 69.1366 72.0222 68.9557 71.774 68.8313C71.5038 68.7688 71.2208 68.7918 70.9643 68.8972C70.7078 69.0026 70.4904 69.1852 70.3423 69.4196C70.3068 69.4596 70.2882 69.5116 70.2902 69.5649C70.2922 69.6183 70.3147 69.6688 70.3529 69.706C70.3925 69.7422 70.4447 69.7613 70.4983 69.7593C70.5519 69.7573 70.6025 69.7343 70.6393 69.6953C70.8738 69.3982 71.2564 69.0609 71.6662 69.2205C72.0759 69.3801 72.2191 69.8615 72.3409 70.2383C72.3573 70.2895 72.3933 70.3321 72.441 70.3567C72.4888 70.3813 72.5444 70.3859 72.5955 70.3696C72.6467 70.3532 72.6893 70.3172 72.7139 70.2694C72.7385 70.2217 72.7432 70.1661 72.7268 70.1149Z" fill="#311E19"/>
<path d="M69.2538 73.0142C68.9901 72.8715 68.6848 72.8252 68.3906 72.8834C68.3641 72.8846 68.338 72.8912 68.3139 72.9025C68.2899 72.9139 68.2683 72.9299 68.2504 72.9496C68.2325 72.9693 68.2187 72.9924 68.2097 73.0174C68.2008 73.0425 68.1968 73.0691 68.1981 73.0956C68.1994 73.1222 68.2059 73.1483 68.2173 73.1723C68.2287 73.1964 68.2447 73.218 68.2644 73.2359C68.2841 73.2538 68.3071 73.2676 68.3322 73.2765C68.3572 73.2855 68.3838 73.2895 68.4104 73.2882C68.6153 73.2445 68.8288 73.2649 69.0217 73.3466C69.084 73.3855 69.1323 73.4433 69.1594 73.5115C69.1865 73.5798 69.191 73.6549 69.1723 73.7259C69.1682 73.7483 69.1624 73.7703 69.155 73.7918C69.1492 73.8076 69.1424 73.823 69.1345 73.8378C69.1178 73.8731 69.0974 73.9065 69.0736 73.9374C69.0164 74.0104 68.9471 74.073 68.8687 74.1225C68.6757 74.2331 68.4663 74.312 68.2483 74.3562C68.223 74.3643 68.1995 74.3773 68.1791 74.3945C68.1588 74.4117 68.1421 74.4327 68.1299 74.4564C68.1177 74.48 68.1103 74.5058 68.1081 74.5323C68.1059 74.5588 68.1089 74.5855 68.117 74.6109C68.1252 74.6362 68.1382 74.6597 68.1554 74.68C68.1725 74.7003 68.1936 74.717 68.2172 74.7292C68.2408 74.7414 68.2667 74.7488 68.2932 74.751C68.3197 74.7532 68.3464 74.7502 68.3717 74.7421C68.8819 74.6121 69.5113 74.3504 69.578 73.7465C69.5986 73.6063 69.5791 73.4631 69.5217 73.3335C69.4644 73.2039 69.3715 73.0932 69.2538 73.0142Z" fill="#C69E7F"/>
<path d="M68.5189 80.3332C68.5179 80.3331 68.5168 80.3332 68.5157 80.3335C68.5147 80.3338 68.5137 80.3344 68.5129 80.3351C68.512 80.3357 68.5113 80.3366 68.5108 80.3376C68.5103 80.3385 68.51 80.3396 68.5099 80.3406C68.0108 80.5273 67.4798 80.6137 66.9472 80.5951C66.4147 80.5765 65.8911 80.4531 65.4062 80.232C64.7783 79.9719 64.2181 79.572 63.768 79.0628C63.4825 78.7332 63.2575 78.3557 63.1031 77.9479C63.0216 77.7162 62.9664 77.4761 62.9386 77.232C62.8851 76.9596 62.9024 76.6781 62.9889 76.4143C63.0753 76.1505 63.228 75.9134 63.4323 75.7254C63.5915 75.6195 63.7709 75.5476 63.9592 75.5143C64.1475 75.481 64.3407 75.4871 64.5266 75.5321C64.5756 75.5383 64.624 75.5482 64.6714 75.5617C65.0817 75.6974 65.4729 75.8849 65.8357 76.1196C66.3961 76.4474 66.9946 76.705 67.618 76.8864C68.0895 77.0212 68.582 77.067 69.0702 77.0214C69.2832 76.9695 69.5001 76.9351 69.7186 76.9185C69.7994 76.9284 69.8766 76.9578 69.9435 77.0041C70.0104 77.0504 70.0651 77.1122 70.1029 77.1843C70.2247 77.3936 70.2838 77.6335 70.2732 77.8755C70.243 78.4091 70.0622 78.9232 69.7517 79.3582C69.4412 79.7932 69.0138 80.1313 68.5189 80.3332Z" fill="#D08E81"/>
<path d="M68.5117 80.3388C68.0126 80.5254 67.4816 80.6119 66.9491 80.5932C66.4166 80.5746 65.8929 80.4512 65.4081 80.2301C64.7802 79.97 64.2199 79.5701 63.7698 79.0609C63.4844 78.7313 63.2593 78.3538 63.105 77.946C63.7757 77.88 64.4521 77.9005 65.1176 78.0069C66.0148 78.1208 66.8645 78.4757 67.5762 79.0338C67.994 79.3821 68.316 79.8312 68.5117 80.3388Z" fill="#B86657"/>
<path d="M69.6249 77.3032C69.4909 77.48 69.3128 77.6186 69.1086 77.7052C68.9043 77.7919 68.6809 77.8235 68.4606 77.7969C67.5298 77.743 66.6185 77.5074 65.7782 77.1033C65.5082 77.0024 65.2516 76.8689 65.0138 76.7059C64.7738 76.5403 64.5992 76.2961 64.5201 76.0155C64.4823 75.8571 64.4843 75.6917 64.5259 75.5342C64.5748 75.5404 64.6233 75.5503 64.6707 75.5638C65.081 75.6995 65.4722 75.887 65.835 76.1217C66.3953 76.4495 66.9939 76.7071 67.6172 76.8885C68.0888 77.0233 68.5812 77.0691 69.0695 77.0235C69.2825 76.9716 69.4993 76.9372 69.7179 76.9206C69.7226 77.0543 69.6904 77.1866 69.6249 77.3032Z" fill="white"/>
<path d="M68.7188 64.3377C68.1738 63.952 67.5529 63.6869 66.8974 63.5599C66.2419 63.4329 65.5669 63.447 64.9173 63.6013C64.8104 63.6178 64.7138 63.6743 64.647 63.7594C64.5803 63.8445 64.5484 63.9518 64.5578 64.0596C64.5643 64.1133 64.5813 64.1651 64.6079 64.2122C64.6344 64.2592 64.67 64.3006 64.7126 64.3339C64.7552 64.3673 64.8039 64.3919 64.8559 64.4064C64.908 64.4208 64.9624 64.4249 65.0161 64.4184C65.5565 64.2789 66.1205 64.2568 66.6702 64.3534C67.2198 64.4501 67.7424 64.6633 68.2029 64.9787C68.2887 65.0439 68.3962 65.0738 68.5033 65.0622C68.6104 65.0505 68.7091 64.9983 68.7788 64.9162C68.8475 64.8315 68.8798 64.723 68.8685 64.6145C68.8573 64.506 68.8034 64.4065 68.7188 64.3377Z" fill="#311131"/>
<path d="M74.5651 65.7309C73.5653 64.9771 72.3148 64.635 71.0706 64.7748C70.9621 64.7879 70.8633 64.8435 70.7958 64.9295C70.7284 65.0154 70.6979 65.1246 70.711 65.2331C70.7241 65.3415 70.7797 65.4404 70.8657 65.5078C70.9516 65.5752 71.0608 65.6057 71.1693 65.5926C72.1936 65.4746 73.2242 65.7534 74.0492 66.3719C74.4713 66.6903 74.988 66.0501 74.5651 65.7309Z" fill="#311131"/>
<path d="M51.9341 64.6629C51.4737 64.1366 50.854 63.7752 50.1693 63.6335C49.4846 63.4918 48.7724 63.5776 48.1409 63.8779C47.9094 64.0039 47.6974 64.1627 47.5115 64.3494L47.4711 64.3913C47.1702 64.7075 46.9244 65.0718 46.7438 65.4692C46.4063 66.3022 46.2718 67.2034 46.3513 68.0986C46.4309 68.9938 46.7222 69.8572 47.2012 70.6176C47.6412 71.3587 48.2812 71.9607 49.0478 72.3547C49.8143 72.7487 50.6763 72.9186 51.535 72.845C51.837 72.8068 52.1272 72.7037 52.3855 72.5428C52.6439 72.3819 52.8643 72.1669 53.0318 71.9127C53.3859 71.2187 53.5514 70.4438 53.5115 69.6656C53.5395 68.6753 53.397 67.6875 53.0902 66.7454C52.877 66.0745 52.5496 65.4455 52.1225 64.8858C52.0625 64.8093 51.9999 64.7344 51.9341 64.6629Z" fill="#EDBB95"/>
<path d="M51.2687 67.3044C50.8817 66.3978 50.1701 65.6683 49.2733 65.2589C49.0364 65.1511 48.8455 65.5058 49.0833 65.6168C49.9139 65.9933 50.5662 66.6773 50.9027 67.5249C51.2393 68.3725 51.2339 69.3176 50.8877 70.1613C50.7882 70.4007 51.1453 70.5924 51.2465 70.3514C51.452 69.8703 51.5598 69.3532 51.5636 68.8301C51.5675 68.307 51.4672 67.7884 51.2687 67.3044Z" fill="#C69D7F"/>
<path d="M51.1329 67.0773C50.7844 66.9021 50.3944 66.8265 50.0057 66.8589C49.617 66.8913 49.2448 67.0303 48.9302 67.2608C48.8859 67.2905 48.8547 67.3362 48.8432 67.3883C48.8318 67.4404 48.8408 67.4949 48.8685 67.5405C48.8977 67.5855 48.9433 67.6172 48.9956 67.6289C49.0479 67.6405 49.1027 67.6313 49.1482 67.603C49.4026 67.4118 49.7052 67.2951 50.0222 67.266C50.3391 67.237 50.6579 67.2967 50.9428 67.4385C50.9907 67.4637 51.0467 67.4688 51.0983 67.4528C51.1239 67.4448 51.1477 67.4319 51.1683 67.4148C51.1889 67.3977 51.206 67.3766 51.2185 67.3529C51.2309 67.3292 51.2386 67.3033 51.2411 67.2766C51.2435 67.2499 51.2407 67.223 51.2328 67.1974C51.2248 67.1718 51.2119 67.148 51.1948 67.1274C51.1776 67.1068 51.1566 67.0897 51.1329 67.0773Z" fill="#C69D7F"/>
<path d="M10.0649 172.9C10.0649 172.9 7.98147 181.233 9.2947 183.176C10.6079 185.12 21.3219 185.855 22.8449 183.649C24.368 181.444 19.589 170.379 19.589 170.379L10.0649 172.9Z" fill="#EDBB95"/>
<path d="M19.5539 171.173C19.5539 171.173 25.8386 172.224 25.5605 174.254C25.2824 176.285 19.4502 175.375 19.4502 175.375L19.5539 171.173Z" fill="#EDBB95"/>
<g style="mix-blend-mode:multiply">
<path d="M67.296 238.27C60.0728 233.899 53.6521 228.322 48.3127 221.782C46.7806 219.905 45.3465 217.954 44.0102 215.929C43.7189 215.49 43.0063 215.901 43.3001 216.341C48.0387 223.49 53.9716 229.771 60.8394 234.908C62.7845 236.363 64.7982 237.719 66.8805 238.976C66.9733 239.019 67.0789 239.026 67.1767 238.996C67.2746 238.966 67.3576 238.9 67.4096 238.812C67.4615 238.723 67.4787 238.619 67.4577 238.519C67.4367 238.418 67.3791 238.33 67.296 238.27Z" fill="#121235"/>
</g>
<g style="mix-blend-mode:multiply">
<path d="M34.9017 137.895C32.4846 138.155 30.0406 137.988 27.6814 137.402C27.5761 137.373 27.4636 137.386 27.3686 137.44C27.2737 137.494 27.204 137.584 27.175 137.689C27.1459 137.794 27.1599 137.907 27.2139 138.002C27.2678 138.097 27.3572 138.167 27.4625 138.196C29.8928 138.803 32.4107 138.978 34.9017 138.715C35.4225 138.662 35.4283 137.838 34.9017 137.895Z" fill="#F0C7CE"/>
</g>
<g style="mix-blend-mode:multiply">
<path d="M34.3208 140.404C32.2093 140.399 30.1377 139.828 28.3216 138.751C28.2274 138.696 28.1151 138.68 28.0094 138.708C27.9038 138.735 27.8135 138.804 27.7584 138.898C27.7033 138.993 27.6879 139.105 27.7156 139.21C27.7433 139.316 27.8118 139.406 27.9061 139.462C29.8497 140.612 32.0656 141.221 34.3241 141.226C34.3781 141.226 34.4316 141.215 34.4814 141.195C34.5313 141.174 34.5765 141.143 34.6146 141.105C34.6526 141.066 34.6827 141.021 34.7032 140.971C34.7237 140.921 34.7341 140.867 34.7339 140.813C34.7337 140.759 34.7228 140.706 34.7019 140.656C34.6811 140.606 34.6506 140.561 34.6122 140.523C34.5739 140.485 34.5284 140.455 34.4784 140.434C34.4284 140.414 34.3749 140.403 34.3208 140.404Z" fill="#F0C7CE"/>
</g>
<g style="mix-blend-mode:multiply">
<path d="M19.876 130.638C19.9213 130.644 19.8316 130.631 19.8234 130.629C19.7847 130.623 19.746 130.616 19.7073 130.608C19.6308 130.594 19.5543 130.576 19.4786 130.557C19.3273 130.518 19.1784 130.47 19.0326 130.414C18.7537 130.301 18.4883 130.157 18.2411 129.985C17.752 129.641 17.3525 129.186 17.076 128.656C17.0181 128.568 16.9291 128.506 16.827 128.482C16.7249 128.458 16.6174 128.474 16.5266 128.527C16.4358 128.579 16.3686 128.664 16.3385 128.765C16.3085 128.865 16.318 128.973 16.365 129.067C16.7173 129.716 17.2199 130.272 17.8307 130.687C18.4415 131.102 19.1428 131.365 19.876 131.453C19.9851 131.453 20.0898 131.41 20.1669 131.333C20.2441 131.256 20.2874 131.151 20.2874 131.042C20.2833 130.935 20.2384 130.833 20.1619 130.758C20.0854 130.683 19.9832 130.64 19.876 130.638Z" fill="#F0C7CE"/>
</g>
<g style="mix-blend-mode:multiply">
<path d="M18.6056 131.596C17.4109 131.476 16.2741 131.022 15.3259 130.285C15.2317 130.23 15.1195 130.214 15.014 130.242C14.9084 130.27 14.8182 130.338 14.7631 130.432C14.7106 130.527 14.6967 130.638 14.7243 130.743C14.7519 130.848 14.8188 130.938 14.9112 130.995C15.9838 131.808 17.2646 132.302 18.6056 132.418C18.7148 132.418 18.8194 132.375 18.8966 132.298C18.9737 132.221 19.0171 132.116 19.0171 132.007C19.0147 131.899 18.9707 131.795 18.894 131.719C18.8173 131.642 18.714 131.598 18.6056 131.596Z" fill="#F0C7CE"/>
</g>
<g style="mix-blend-mode:multiply">
<path d="M83.3497 129.023C83.2946 128.929 83.2043 128.86 83.0988 128.833C82.9932 128.805 82.881 128.821 82.7869 128.876C81.9204 129.523 80.8732 129.883 79.7918 129.906C79.6827 129.906 79.578 129.949 79.5009 130.026C79.4237 130.103 79.3804 130.208 79.3804 130.317C79.3804 130.426 79.4237 130.531 79.5009 130.608C79.578 130.685 79.6827 130.729 79.7918 130.729C81.0188 130.71 82.2097 130.31 83.1999 129.586C83.2921 129.529 83.3589 129.439 83.3868 129.334C83.4146 129.229 83.4014 129.118 83.3497 129.023Z" fill="#F0C7CE"/>
</g>
<g style="mix-blend-mode:multiply">
<path d="M84.1132 129.9C84.0187 129.847 83.9071 129.832 83.802 129.86C83.697 129.887 83.6067 129.955 83.5504 130.047C83.4813 130.163 83.4089 130.278 83.3307 130.388C83.3077 130.422 83.2838 130.455 83.26 130.487L83.218 130.542L83.1752 130.595L83.1102 130.674C82.9306 130.885 82.7341 131.081 82.5227 131.26C82.4709 131.304 82.4191 131.347 82.3656 131.389C82.4092 131.355 82.3532 131.398 82.3359 131.411L82.2537 131.47C82.1442 131.548 82.0307 131.622 81.9147 131.691C81.7987 131.761 81.6678 131.832 81.5403 131.895C81.4802 131.924 81.4185 131.952 81.3568 131.977C81.3444 131.983 81.3445 131.984 81.3469 131.983L81.3247 131.991L81.2112 132.035C81.1073 132.066 81.0194 132.136 80.9659 132.231C80.9124 132.325 80.8974 132.436 80.924 132.541C80.9384 132.593 80.9628 132.642 80.9961 132.685C81.0293 132.727 81.0705 132.763 81.1175 132.79C81.1645 132.816 81.2163 132.834 81.2699 132.84C81.3235 132.847 81.3779 132.843 81.43 132.829C82.614 132.382 83.6117 131.547 84.2605 130.46C84.3138 130.366 84.3282 130.255 84.3007 130.15C84.2732 130.046 84.2059 129.956 84.1132 129.9Z" fill="#F0C7CE"/>
</g>
<ellipse cx="274.451" cy="314.958" rx="63.4509" ry="8.95778" fill="#C4C4C4" fill-opacity="0.3"/>
<path d="M240.854 179.381C240.854 179.381 234.487 183.039 232.099 182.724C229.712 182.409 215.545 179.858 212.521 186.225C209.497 192.593 209.018 203.096 212.521 205.963C216.023 208.83 230.348 209.147 232.736 212.967C235.124 216.788 231.94 240.027 234.646 248.623C237.352 257.219 241.172 265.814 241.812 276.957C242.453 288.099 236.011 299.878 233.9 301.788C231.789 303.699 227.648 306.405 228.126 309.747C228.603 313.09 229.558 313.727 229.558 313.727H313.917C313.917 313.727 322.989 311.498 326.014 302.903C329.039 294.308 328.403 292.239 327.288 293.512C324.967 295.781 322.464 297.857 319.806 299.72L318.055 300.834C318.055 300.834 320.602 282.21 306.276 265.497C291.949 248.783 280.011 240.028 276.51 225.543C273.008 211.057 278.261 194.822 275.554 186.863C272.847 178.904 248.972 175.083 240.854 179.381Z" fill="#EBA15C"/>
<path d="M269.141 183.134C269.141 183.134 253.614 177.485 249.374 181.722C245.134 185.959 246.313 211.146 252.316 214.559C258.318 217.972 263.968 210.204 267.619 203.495C271.27 196.786 275.317 187.135 269.141 183.134Z" fill="#EA457F"/>
<path d="M227.128 182.114C227.128 182.114 229.92 194.02 225.864 197.768C221.808 201.517 217.727 203.263 215.082 202.587C213.363 202.115 211.725 201.39 210.219 200.437C210.219 200.437 209.673 190.05 211.702 185.932C213.73 181.815 223.562 181.368 227.128 182.114Z" fill="white"/>
<path d="M210.406 193.34C210.406 193.34 215.141 193.938 218.879 191.997C222.616 190.056 222.888 181.818 222.888 181.818C222.888 181.818 213.438 181.14 211.253 184.948C209.067 188.756 210.406 193.34 210.406 193.34Z" fill="#5C2929"/>
<path d="M240.668 184.444C240.615 184.157 240.494 183.887 240.315 183.657C240.135 183.426 239.903 183.242 239.638 183.121C239.372 183 239.081 182.944 238.79 182.959C238.498 182.975 238.215 183.06 237.963 183.208C235.798 184.212 236.804 187.247 238.427 187.662C240.049 188.077 241.131 186.376 240.668 184.444Z" fill="#5C2929"/>
<path d="M233.49 233.734L233.648 242.123L275.456 218.777L275.272 212.362L233.49 233.734Z" fill="#EA457F"/>
<path d="M226.297 249.734C229.033 249.734 231.251 247.516 231.251 244.78C231.251 242.044 229.033 239.827 226.297 239.827C223.561 239.827 221.343 242.044 221.343 244.78C221.343 247.516 223.561 249.734 226.297 249.734Z" fill="#E6BB2E"/>
<path d="M257.308 245.66C257.308 245.66 264.454 263.984 263.05 268.577C261.646 273.169 255.522 284.272 253.48 292.822C251.438 301.371 249.78 313.723 249.78 313.723" stroke="#B22222" stroke-miterlimit="10"/>
<path d="M233.894 313.727C233.894 313.727 234.069 307.559 238.02 305.468C241.971 303.376 243.598 306.513 243.245 307.443C243.245 307.443 246.38 304.308 248.126 306.048C249.872 307.788 248.126 313.727 248.126 313.727H233.894Z" fill="white"/>
<path d="M229.552 313.727C229.552 313.727 226.126 310.523 228.474 307.483C230.823 304.444 231.861 303.378 233.894 305.351C235.927 307.324 234.881 309.244 234.881 309.244L233.894 313.723L229.552 313.727Z" fill="white"/>
<path d="M253.705 313.727C253.705 313.727 257.682 305.237 261.659 304.761C265.635 304.286 269.466 304.42 269.141 305.48C268.816 306.54 264.31 313.727 264.31 313.727" fill="white"/>
<path d="M236.092 252.992C236.092 252.992 244.725 266.972 245.231 269.254C245.738 271.536 242.95 297.268 241.936 299.549C240.921 301.83 236.486 306.651 236.486 306.651" stroke="#B22222" stroke-miterlimit="10"/>
<path d="M267.669 269.379C267.289 269.379 260.444 285.605 260.063 290.168C259.682 294.731 270.204 301.067 273.626 301.324C277.049 301.58 289.601 304.5 289.601 304.5C289.601 304.5 287.193 306.014 286.178 306.142C285.164 306.271 269.144 304.763 269.144 304.763" stroke="#B22222" stroke-miterlimit="10"/>
<path d="M236.724 188.617C237.262 189.248 237.963 189.719 238.75 189.981" stroke="#B22222" stroke-miterlimit="10"/>
<path d="M223.591 194.356C224.105 194.356 224.522 193.939 224.522 193.425C224.522 192.911 224.105 192.494 223.591 192.494C223.077 192.494 222.66 192.911 222.66 193.425C222.66 193.939 223.077 194.356 223.591 194.356Z" fill="#5C2929"/>
<path d="M222.888 198.078C223.402 198.078 223.819 197.661 223.819 197.147C223.819 196.633 223.402 196.216 222.888 196.216C222.374 196.216 221.957 196.633 221.957 197.147C221.957 197.661 222.374 198.078 222.888 198.078Z" fill="#5C2929"/>
<path d="M219.478 196.217C219.992 196.217 220.409 195.8 220.409 195.286C220.409 194.772 219.992 194.355 219.478 194.355C218.964 194.355 218.547 194.772 218.547 195.286C218.547 195.8 218.964 196.217 219.478 196.217Z" fill="#5C2929"/>
<path d="M229.899 242.469C229.899 242.469 233.993 238.052 234.114 238.132C234.307 238.426 234.47 238.738 234.601 239.065L230.71 243.117L229.899 242.469Z" fill="#E6BB2E"/>
<path d="M319.557 187.597C329.663 187.597 337.855 179.404 337.855 169.299C337.855 159.193 329.663 151 319.557 151C309.451 151 301.258 159.193 301.258 169.299C301.258 179.404 309.451 187.597 319.557 187.597Z" fill="#EA457F"/>
<path d="M307.44 179.108L303.978 197.147L315.71 185.337" fill="#EA457F"/>
<path d="M319.709 177.765C319.709 177.765 308.896 167.754 313.331 163.073C317.766 158.392 319.709 164.921 319.709 164.921C319.709 164.921 322.201 160.432 325.034 161.383C327.868 162.334 329.792 165.414 326.427 170.218C324.583 172.906 322.513 175.431 320.237 177.765" fill="white"/>
<defs>
<linearGradient id="paint0_linear" x1="260533" y1="452149" x2="479753" y2="452149" gradientUnits="userSpaceOnUse">
<stop stop-color="#DBDBDB" stop-opacity="0.63"/>
<stop offset="1" stop-color="#FFA62B"/>
</linearGradient>
<linearGradient id="paint1_linear" x1="39572" y1="42933.8" x2="53219.7" y2="21796.1" gradientUnits="userSpaceOnUse">
<stop stop-color="#4F52FF"/>
<stop offset="1" stop-color="#4042E2"/>
</linearGradient>
<linearGradient id="paint2_linear" x1="43589.3" y1="45500.2" x2="57237" y2="24362.4" gradientUnits="userSpaceOnUse">
<stop stop-color="#4F52FF"/>
<stop offset="1" stop-color="#4042E2"/>
</linearGradient>
<linearGradient id="paint3_linear" x1="47451.9" y1="47967.8" x2="61099.6" y2="26830.1" gradientUnits="userSpaceOnUse">
<stop stop-color="#4F52FF"/>
<stop offset="1" stop-color="#4042E2"/>
</linearGradient>
<linearGradient id="paint4_linear" x1="331.539" y1="-9.53984" x2="251.555" y2="78.7586" gradientUnits="userSpaceOnUse">
<stop stop-color="#FF928E"/>
<stop offset="1" stop-color="#FE7062"/>
</linearGradient>
<linearGradient id="paint5_linear" x1="42430.3" y1="44808.8" x2="56078" y2="23671" gradientUnits="userSpaceOnUse">
<stop stop-color="#4F52FF"/>
<stop offset="1" stop-color="#4042E2"/>
</linearGradient>
<linearGradient id="paint6_linear" x1="46447.5" y1="47375.1" x2="60095.2" y2="26237.4" gradientUnits="userSpaceOnUse">
<stop stop-color="#4F52FF"/>
<stop offset="1" stop-color="#4042E2"/>
</linearGradient>
<linearGradient id="paint7_linear" x1="50310.2" y1="49842.7" x2="63957.9" y2="28705" gradientUnits="userSpaceOnUse">
<stop stop-color="#4F52FF"/>
<stop offset="1" stop-color="#4042E2"/>
</linearGradient>
<linearGradient id="paint8_linear" x1="54327.7" y1="52409" x2="67975.4" y2="31271.3" gradientUnits="userSpaceOnUse">
<stop stop-color="#4F52FF"/>
<stop offset="1" stop-color="#4042E2"/>
</linearGradient>
<linearGradient id="paint9_linear" x1="44960.7" y1="46469.3" x2="58608.6" y2="25331.7" gradientUnits="userSpaceOnUse">
<stop stop-color="#4F52FF"/>
<stop offset="1" stop-color="#4042E2"/>
</linearGradient>
<linearGradient id="paint10_linear" x1="48978.9" y1="49035.6" x2="62626.6" y2="27897.8" gradientUnits="userSpaceOnUse">
<stop stop-color="#4F52FF"/>
<stop offset="1" stop-color="#4042E2"/>
</linearGradient>
<linearGradient id="paint11_linear" x1="52841.6" y1="51503.2" x2="66489.3" y2="30365.5" gradientUnits="userSpaceOnUse">
<stop stop-color="#4F52FF"/>
<stop offset="1" stop-color="#4042E2"/>
</linearGradient>
<linearGradient id="paint12_linear" x1="47740.5" y1="48292.2" x2="61388.3" y2="27154.4" gradientUnits="userSpaceOnUse">
<stop stop-color="#4F52FF"/>
<stop offset="1" stop-color="#4042E2"/>
</linearGradient>
<linearGradient id="paint13_linear" x1="51757.8" y1="50858.5" x2="65405.6" y2="29720.7" gradientUnits="userSpaceOnUse">
<stop stop-color="#4F52FF"/>
<stop offset="1" stop-color="#4042E2"/>
</linearGradient>
<linearGradient id="paint14_linear" x1="55620.4" y1="53326.2" x2="69268.2" y2="32188.4" gradientUnits="userSpaceOnUse">
<stop stop-color="#4F52FF"/>
<stop offset="1" stop-color="#4042E2"/>
</linearGradient>
</defs>
</svg>
