<svg width="338" height="282" viewBox="0 0 338 282" fill="none" xmlns="http://www.w3.org/2000/svg">
<ellipse cx="64.4509" cy="272.958" rx="63.4509" ry="8.95778" fill="#C4C4C4" fill-opacity="0.3"/>
<path d="M79.1688 259.485C77.6705 262.316 77.2593 265.598 78.0128 268.711L107.977 268.742C107.977 268.742 108.584 265.611 107.393 264.656C106.203 263.701 92.7824 258.974 92.7824 258.974L79.1688 259.485Z" fill="#EDBB95"/>
<path d="M14.3118 252.302C12.012 254.531 10.6073 257.525 10.3623 260.719L38.8533 270C38.8533 270 40.3969 267.209 39.5593 265.933C38.7217 264.656 27.4161 256.018 27.4161 256.018L14.3118 252.302Z" fill="#EDBB95"/>
<path d="M73.2388 54.811C73.2388 54.811 80.5545 87.1677 84.3641 91.1979C87.193 94.1905 109.92 109.442 109.92 109.442L104.325 117.552C104.325 117.552 80.2566 106.863 74.6293 100.302C70.2684 95.219 65.3857 75.1619 65.3857 75.1619L73.2388 54.811Z" fill="#EDBB95"/>
<path d="M104.326 117.552C104.326 117.552 108.164 125.237 110.425 125.863C112.686 126.489 121.303 120.075 121.025 117.409C120.746 114.743 109.921 109.447 109.921 109.447L104.326 117.552Z" fill="#EDBB95"/>
<path d="M110.405 110.063C110.405 110.063 115.863 106.772 116.971 108.5C118.078 110.228 113.059 113.325 113.059 113.325L110.405 110.063Z" fill="#EDBB95"/>
<path d="M28.4064 52.6309C28.4064 52.6309 5.12059 77.4924 2.64225 88.1875C0.197646 98.7475 10.0649 130.904 10.0649 130.904L19.5891 128.383C19.5891 128.383 16.3027 91.8038 16.9281 89.5879C17.6991 86.8569 34.4353 77.5434 34.4353 77.5434L28.4064 52.6309Z" fill="#EDBB95"/>
<path d="M78.1933 133.984L69.1686 200.006L28.6948 256.322C17.3596 257.063 13.3154 252.156 13.3154 252.156C13.3154 252.156 43.0358 197.259 43.4011 195.272C43.8051 193.072 39.0591 133.984 39.0591 133.984H78.1933Z" fill="#121235"/>
<path d="M23.3701 133.984C23.3701 162.136 67.2076 195.258 67.6593 198.223C68.0189 200.579 78.1914 260.495 78.1914 260.495C88.7046 262.66 93.8777 258.774 93.8777 258.774C93.8777 258.774 94.7943 200.993 94.5162 196.809C94.2365 192.597 68.1859 133.984 68.1859 133.984H23.3701Z" fill="#121235"/>
<path d="M20.9893 136.926C20.9893 136.926 42.7257 147.534 79.8819 133.355C79.8819 133.355 73.9708 109.593 73.598 90.7184C73.2549 73.3306 74.2793 56.7606 73.2384 54.8113C69.6394 48.0716 53.1838 43.6209 48.8442 43.7493C46.2515 43.8225 42.3538 44.8099 38.545 46.3502C36.8225 47.0356 35.1488 47.8378 33.5356 48.7512C30.4262 50.5195 27.8993 52.6119 26.9638 54.7636C25.9311 57.1275 26.3878 93.4765 26.2413 95.5797C26.1566 96.8361 20.9893 136.926 20.9893 136.926Z" fill="#FFA62B"/>
<path d="M28.8434 52.1689C28.8434 52.1689 2.88748 75.2664 0.576172 89.5514C0.576172 89.5514 4.88282 96.7996 19.2386 95.3992C19.2386 95.3992 20.0614 91.3196 21.1122 90.3396C22.1629 89.3597 28.8467 84.4746 28.8467 84.4746L28.8434 52.1689Z" fill="#FFA62B"/>
<path d="M73.2387 54.811C73.2387 54.811 81.8783 85.5607 84.6092 87.7321C86.2361 89.0216 87.7688 90.4256 89.1957 91.9335C89.1957 91.9335 85.2124 101.643 76.9488 104.581C73.8596 103.547 71.2304 101.463 69.5179 98.6913C66.9268 94.2094 73.2387 54.811 73.2387 54.811Z" fill="#FFA62B"/>
<path d="M74.0065 28.377C75.9877 27.2816 77.7984 25.9028 79.3812 24.2843C80.9993 22.6174 82.2146 20.6025 82.9341 18.3937C83.2452 17.551 83.3303 16.6415 83.181 15.7557C82.9582 14.9083 82.4643 14.157 81.7748 13.6164C81.1032 13.1006 80.3743 12.6641 79.6025 12.3155C80.5986 10.6567 81.0941 8.74543 81.0293 6.81165C81.0925 5.26892 80.6191 3.75195 79.6897 2.51898C78.7977 1.51583 77.5786 0.861827 76.2495 0.673392C74.7268 0.455111 73.1733 0.676961 71.7725 1.31277C70.3717 1.94858 69.1821 2.97181 68.3438 4.26172C68.3583 4.12289 68.3383 3.98263 68.2854 3.85343C68.2326 3.72423 68.1487 3.61009 68.041 3.52118C67.8355 3.33851 67.5922 3.20338 67.3285 3.1254C66.2539 2.75949 65.1035 2.67469 63.9869 2.87906C62.8702 3.08344 61.8245 3.57019 60.9491 4.29299C58.9122 4.01593 56.8434 4.07737 54.8265 4.47482C53.8066 4.68411 52.8504 5.13092 52.0355 5.77898C51.2206 6.42703 50.57 7.25808 50.1364 8.20468C49.7146 8.2596 49.3093 8.40318 48.9469 8.62597C48.5846 8.84876 48.2735 9.14572 48.0341 9.49733C47.5476 10.2026 47.2084 10.9988 47.0369 11.8383C46.061 15.9038 47.055 20.2171 48.518 24.1139C48.9563 25.4568 49.6174 26.7163 50.4738 27.8397C52.21 29.9157 54.917 30.7064 57.5065 31.0528C62.9832 31.7859 69.1387 31.1565 74.0065 28.377Z" fill="#191841"/>
<path d="M51.0747 18.7934C50.5127 22.6935 49.6595 27.7276 48.8268 32.4868C48.7527 32.9368 48.6622 33.3968 48.5906 33.8469C47.3169 41.0663 46.1436 47.2959 46.1436 47.2959C48.3059 51.5351 57.1644 51.3746 57.0204 49.9832C56.9817 49.1448 57.1046 48.3068 57.3825 47.5148C57.4659 47.2115 57.5679 46.9136 57.6877 46.6228C57.6915 46.601 57.7005 46.5803 57.7141 46.5628C58.0296 45.7032 58.5853 44.9523 59.3153 44.3996C59.7184 44.2201 60.1614 44.1489 60.6005 44.193L60.626 44.1988C60.6614 44.1927 60.6976 44.1927 60.733 44.1988C60.8375 44.2087 60.8918 44.2078 60.8918 44.2078C61.1535 44.2259 61.4447 44.2375 61.7574 44.2671C62.1343 44.3107 62.3556 44.3337 62.3556 44.3337C65.419 44.6423 69.8301 45.1837 72.0394 42.2635C75.3052 38.0062 76.1362 25.7701 76.0523 19.8606C76.0079 16.4664 73.3 11.6257 67.495 10.3463C60.4138 8.79771 52.5953 8.41757 51.0747 18.7934Z" fill="#EDBB95"/>
<path d="M72.418 17.2853C71.0367 17.984 69.4394 18.1243 67.9575 17.677C67.283 17.4028 66.5863 17.187 65.8749 17.0319C64.9793 17.0104 64.0853 17.1182 63.2205 17.352C62.7847 17.4662 62.3292 17.4834 61.886 17.4024C61.4429 17.3213 61.0229 17.144 60.6558 16.883C59.9842 18.4651 59.0792 19.9376 57.9709 21.2513C56.8893 22.5387 55.418 23.439 53.7794 23.8161C53.0026 24.0002 52.1861 23.911 51.4673 23.5635C50.8204 23.1648 50.2995 22.5911 49.9648 21.9088C49.2426 20.4602 48.8891 18.8558 48.9357 17.2378C48.9824 15.6199 49.4277 14.0385 50.2323 12.6339C51.8304 9.91852 54.4167 7.92633 57.45 7.07413C60.4034 6.28646 63.5023 6.21705 66.4879 6.87171C68.4676 7.19413 70.3698 7.8828 72.0971 8.90244C73.3929 9.69495 74.4818 10.7841 75.274 12.0802C76.1141 13.5045 75.3563 14.5709 74.4125 15.6899C73.8614 16.3501 73.1831 16.8927 72.418 17.2853Z" fill="#191841"/>
<g style="mix-blend-mode:multiply">
<path d="M58.2199 44.0813C55.8416 43.6658 53.5394 42.895 51.3904 41.7947C51.3669 41.7822 51.3412 41.7745 51.3147 41.7719C51.2882 41.7694 51.2615 41.7721 51.2361 41.7799C51.2106 41.7877 51.187 41.8004 51.1664 41.8173C51.1459 41.8343 51.1289 41.8551 51.1164 41.8786C51.104 41.9021 51.0962 41.9278 51.0937 41.9543C51.0912 41.9808 51.0939 42.0075 51.1017 42.033C51.1095 42.0584 51.1222 42.0821 51.1391 42.1026C51.1561 42.1231 51.1769 42.1401 51.2004 42.1526C53.3805 43.2703 55.7163 44.0538 58.1294 44.4771C58.3877 44.5223 58.4807 44.1266 58.2199 44.0813Z" fill="#ECD7C7"/>
</g>
<path d="M62.0294 27.6956C61.9093 28.2354 62.5338 28.8336 63.4282 29.0319C64.3226 29.2302 65.1389 28.9537 65.259 28.4131C65.3791 27.8725 64.7538 27.2752 63.8602 27.0769C62.9666 26.8786 62.1496 27.155 62.0294 27.6956Z" fill="#E8A294"/>
<path d="M71.6906 29.8465C71.5704 30.3863 72.1958 30.9845 73.0894 31.1828C73.9829 31.3811 74.8 31.1046 74.9201 30.564C75.0403 30.0234 74.4157 29.4261 73.5213 29.2278C72.6269 29.0295 71.8107 29.3059 71.6906 29.8465Z" fill="#E8A294"/>
<path d="M67.4232 26.8353C67.413 26.5638 67.3146 26.3031 67.143 26.0926C66.9714 25.8821 66.7358 25.7332 66.4721 25.6685C66.201 25.6251 65.9233 25.6542 65.6671 25.7527C65.4109 25.8513 65.1853 26.0158 65.0132 26.2297C64.8305 26.4173 65.1284 26.6921 65.3102 26.5053C65.4314 26.3487 65.5902 26.2254 65.772 26.1468C65.9537 26.0683 66.1524 26.037 66.3495 26.0561C66.5347 26.0944 66.7016 26.1943 66.8229 26.3395C66.9442 26.4847 67.0128 26.6667 67.0176 26.8558C67.0223 26.9082 67.047 26.9567 67.0867 26.9911C67.1264 27.0256 67.1778 27.0434 67.2303 27.0407C67.2828 27.038 67.3322 27.0152 67.3682 26.9769C67.4041 26.9385 67.4239 26.8878 67.4232 26.8353Z" fill="#311E19"/>
<path d="M72.7268 28.1149C72.6796 27.8413 72.5688 27.5825 72.4033 27.3596C72.2378 27.1366 72.0222 26.9557 71.774 26.8313C71.5038 26.7688 71.2208 26.7918 70.9643 26.8972C70.7078 27.0026 70.4904 27.1852 70.3423 27.4196C70.3068 27.4596 70.2882 27.5116 70.2902 27.5649C70.2922 27.6183 70.3147 27.6688 70.3529 27.706C70.3925 27.7422 70.4447 27.7613 70.4983 27.7593C70.5519 27.7573 70.6025 27.7343 70.6393 27.6953C70.8738 27.3982 71.2564 27.0609 71.6662 27.2205C72.0759 27.3801 72.2191 27.8615 72.3409 28.2383C72.3573 28.2895 72.3933 28.3321 72.441 28.3567C72.4888 28.3813 72.5444 28.3859 72.5955 28.3696C72.6467 28.3532 72.6893 28.3172 72.7139 28.2694C72.7385 28.2217 72.7432 28.1661 72.7268 28.1149Z" fill="#311E19"/>
<path d="M69.2538 31.0142C68.9901 30.8715 68.6848 30.8252 68.3906 30.8834C68.3641 30.8846 68.338 30.8912 68.3139 30.9025C68.2899 30.9139 68.2683 30.9299 68.2504 30.9496C68.2325 30.9693 68.2187 30.9924 68.2097 31.0174C68.2008 31.0425 68.1968 31.0691 68.1981 31.0956C68.1994 31.1222 68.2059 31.1483 68.2173 31.1723C68.2287 31.1964 68.2447 31.218 68.2644 31.2359C68.2841 31.2538 68.3071 31.2676 68.3322 31.2765C68.3572 31.2855 68.3838 31.2895 68.4104 31.2882C68.6153 31.2445 68.8288 31.2649 69.0217 31.3466C69.084 31.3855 69.1323 31.4433 69.1594 31.5115C69.1865 31.5798 69.191 31.6549 69.1723 31.7259C69.1682 31.7483 69.1624 31.7703 69.155 31.7918C69.1492 31.8076 69.1424 31.823 69.1345 31.8378C69.1178 31.8731 69.0974 31.9065 69.0736 31.9374C69.0164 32.0104 68.9471 32.073 68.8687 32.1225C68.6757 32.2331 68.4663 32.312 68.2483 32.3562C68.223 32.3643 68.1995 32.3773 68.1791 32.3945C68.1588 32.4117 68.1421 32.4327 68.1299 32.4564C68.1177 32.48 68.1103 32.5058 68.1081 32.5323C68.1059 32.5588 68.1089 32.5855 68.117 32.6109C68.1252 32.6362 68.1382 32.6597 68.1554 32.68C68.1725 32.7003 68.1936 32.717 68.2172 32.7292C68.2408 32.7414 68.2667 32.7488 68.2932 32.751C68.3197 32.7532 68.3464 32.7502 68.3717 32.7421C68.8819 32.6121 69.5113 32.3504 69.578 31.7465C69.5986 31.6063 69.5791 31.4631 69.5217 31.3335C69.4644 31.2039 69.3715 31.0932 69.2538 31.0142Z" fill="#C69E7F"/>
<path d="M68.5189 38.3332C68.5179 38.3331 68.5168 38.3332 68.5157 38.3335C68.5147 38.3338 68.5137 38.3344 68.5129 38.3351C68.512 38.3357 68.5113 38.3366 68.5108 38.3376C68.5103 38.3385 68.51 38.3396 68.5099 38.3406C68.0108 38.5273 67.4798 38.6137 66.9472 38.5951C66.4147 38.5765 65.8911 38.4531 65.4062 38.232C64.7783 37.9719 64.2181 37.572 63.768 37.0628C63.4825 36.7332 63.2575 36.3557 63.1031 35.9479C63.0216 35.7162 62.9664 35.4761 62.9386 35.232C62.8851 34.9596 62.9024 34.6781 62.9889 34.4143C63.0753 34.1505 63.228 33.9134 63.4323 33.7254C63.5915 33.6195 63.7709 33.5476 63.9592 33.5143C64.1475 33.481 64.3407 33.4871 64.5266 33.5321C64.5756 33.5383 64.624 33.5482 64.6714 33.5617C65.0817 33.6974 65.4729 33.8849 65.8357 34.1196C66.3961 34.4474 66.9946 34.705 67.618 34.8864C68.0895 35.0212 68.582 35.067 69.0702 35.0214C69.2832 34.9695 69.5001 34.9351 69.7186 34.9185C69.7994 34.9284 69.8766 34.9578 69.9435 35.0041C70.0104 35.0504 70.0651 35.1122 70.1029 35.1843C70.2247 35.3936 70.2838 35.6335 70.2732 35.8755C70.243 36.4091 70.0622 36.9232 69.7517 37.3582C69.4412 37.7932 69.0138 38.1313 68.5189 38.3332Z" fill="#D08E81"/>
<path d="M68.5113 38.3388C68.0121 38.5254 67.4811 38.6119 66.9486 38.5932C66.4161 38.5746 65.8924 38.4512 65.4076 38.2301C64.7797 37.97 64.2194 37.5701 63.7693 37.0609C63.4839 36.7313 63.2588 36.3538 63.1045 35.946C63.7752 35.88 64.4516 35.9005 65.1171 36.0069C66.0143 36.1208 66.864 36.4757 67.5757 37.0338C67.9935 37.3821 68.3155 37.8312 68.5113 38.3388Z" fill="#B86657"/>
<path d="M69.6249 35.3032C69.4909 35.48 69.3128 35.6186 69.1086 35.7052C68.9043 35.7919 68.6809 35.8235 68.4606 35.7969C67.5298 35.743 66.6185 35.5074 65.7782 35.1033C65.5082 35.0024 65.2516 34.8689 65.0138 34.7059C64.7738 34.5403 64.5992 34.2961 64.5201 34.0155C64.4823 33.8571 64.4843 33.6917 64.5259 33.5342C64.5748 33.5404 64.6233 33.5503 64.6707 33.5638C65.081 33.6995 65.4722 33.887 65.835 34.1217C66.3953 34.4495 66.9939 34.7071 67.6172 34.8885C68.0888 35.0233 68.5812 35.0691 69.0695 35.0235C69.2825 34.9716 69.4993 34.9372 69.7179 34.9206C69.7226 35.0543 69.6904 35.1866 69.6249 35.3032Z" fill="white"/>
<path d="M68.7193 22.3377C68.1743 21.952 67.5534 21.6869 66.8979 21.5599C66.2424 21.4329 65.5674 21.447 64.9178 21.6013C64.8109 21.6178 64.7143 21.6743 64.6475 21.7594C64.5808 21.8445 64.5488 21.9518 64.5583 22.0596C64.5648 22.1133 64.5818 22.1651 64.6084 22.2122C64.6349 22.2592 64.6705 22.3006 64.7131 22.3339C64.7556 22.3673 64.8044 22.3919 64.8564 22.4064C64.9085 22.4208 64.9629 22.4249 65.0166 22.4184C65.557 22.2789 66.121 22.2568 66.6706 22.3534C67.2203 22.4501 67.7429 22.6633 68.2034 22.9787C68.2891 23.0439 68.3967 23.0738 68.5038 23.0622C68.6109 23.0505 68.7095 22.9983 68.7793 22.9162C68.848 22.8315 68.8803 22.723 68.869 22.6145C68.8578 22.506 68.8039 22.4065 68.7193 22.3377Z" fill="#311131"/>
<path d="M74.5651 23.7309C73.5653 22.9771 72.3148 22.635 71.0706 22.7748C70.9621 22.7879 70.8633 22.8435 70.7958 22.9295C70.7284 23.0154 70.6979 23.1246 70.711 23.2331C70.7241 23.3415 70.7797 23.4404 70.8657 23.5078C70.9516 23.5752 71.0608 23.6057 71.1693 23.5926C72.1936 23.4746 73.2242 23.7534 74.0492 24.3719C74.4713 24.6903 74.988 24.0501 74.5651 23.7309Z" fill="#311131"/>
<path d="M51.9341 22.6629C51.4737 22.1366 50.854 21.7752 50.1693 21.6335C49.4846 21.4918 48.7724 21.5776 48.1409 21.8779C47.9094 22.0039 47.6974 22.1627 47.5115 22.3494L47.4711 22.3913C47.1702 22.7075 46.9244 23.0718 46.7438 23.4692C46.4063 24.3022 46.2718 25.2034 46.3513 26.0986C46.4309 26.9938 46.7222 27.8572 47.2012 28.6176C47.6412 29.3587 48.2812 29.9607 49.0478 30.3547C49.8143 30.7487 50.6763 30.9186 51.535 30.845C51.837 30.8068 52.1272 30.7037 52.3855 30.5428C52.6439 30.3819 52.8643 30.1669 53.0318 29.9127C53.3859 29.2187 53.5514 28.4438 53.5115 27.6656C53.5395 26.6753 53.397 25.6875 53.0902 24.7454C52.877 24.0745 52.5496 23.4455 52.1225 22.8858C52.0625 22.8093 51.9999 22.7344 51.9341 22.6629Z" fill="#EDBB95"/>
<path d="M51.2682 25.3044C50.8812 24.3978 50.1696 23.6683 49.2729 23.2589C49.0359 23.1511 48.845 23.5058 49.0828 23.6168C49.9134 23.9933 50.5657 24.6773 50.9022 25.5249C51.2388 26.3725 51.2334 27.3176 50.8872 28.1613C50.7877 28.4007 51.1448 28.5924 51.246 28.3514C51.4515 27.8703 51.5593 27.3532 51.5632 26.8301C51.567 26.307 51.4667 25.7884 51.2682 25.3044Z" fill="#C69D7F"/>
<path d="M51.1334 25.0773C50.7849 24.9021 50.3949 24.8265 50.0062 24.8589C49.6175 24.8913 49.2453 25.0303 48.9307 25.2608C48.8864 25.2905 48.8552 25.3362 48.8437 25.3883C48.8322 25.4404 48.8413 25.4949 48.869 25.5405C48.8982 25.5855 48.9438 25.6172 48.9961 25.6289C49.0484 25.6405 49.1032 25.6313 49.1487 25.603C49.4031 25.4118 49.7057 25.2951 50.0226 25.266C50.3396 25.237 50.6584 25.2967 50.9433 25.4385C50.9912 25.4637 51.0471 25.4688 51.0988 25.4528C51.1244 25.4448 51.1482 25.4319 51.1688 25.4148C51.1894 25.3977 51.2065 25.3766 51.2189 25.3529C51.2314 25.3292 51.2391 25.3033 51.2416 25.2766C51.244 25.2499 51.2412 25.223 51.2332 25.1974C51.2253 25.1718 51.2124 25.148 51.1952 25.1274C51.1781 25.1068 51.1571 25.0897 51.1334 25.0773Z" fill="#C69D7F"/>
<path d="M10.0649 130.9C10.0649 130.9 7.98147 139.233 9.2947 141.176C10.6079 143.12 21.3219 143.855 22.8449 141.649C24.368 139.444 19.589 128.379 19.589 128.379L10.0649 130.9Z" fill="#EDBB95"/>
<path d="M19.5539 129.173C19.5539 129.173 25.8386 130.224 25.5605 132.254C25.2824 134.285 19.4502 133.375 19.4502 133.375L19.5539 129.173Z" fill="#EDBB95"/>
<g style="mix-blend-mode:multiply">
<path d="M67.296 196.27C60.0728 191.899 53.6521 186.322 48.3127 179.782C46.7806 177.905 45.3465 175.954 44.0102 173.929C43.7189 173.49 43.0063 173.901 43.3001 174.341C48.0387 181.49 53.9716 187.771 60.8394 192.908C62.7845 194.363 64.7982 195.719 66.8805 196.976C66.9733 197.019 67.0789 197.026 67.1767 196.996C67.2746 196.966 67.3576 196.9 67.4096 196.812C67.4615 196.723 67.4787 196.619 67.4577 196.519C67.4367 196.418 67.3791 196.33 67.296 196.27Z" fill="#121235"/>
</g>
<g style="mix-blend-mode:multiply">
<path d="M34.9017 95.8952C32.4846 96.1553 30.0406 95.9882 27.6814 95.4015C27.5761 95.3725 27.4636 95.3865 27.3686 95.4404C27.2737 95.4944 27.204 95.5838 27.175 95.6891C27.1459 95.7944 27.1599 95.9069 27.2139 96.0019C27.2678 96.0968 27.3572 96.1665 27.4625 96.1955C29.8928 96.8025 32.4107 96.9783 34.9017 96.7148C35.4225 96.6621 35.4283 95.8385 34.9017 95.8952Z" fill="#F0C7CE"/>
</g>
<g style="mix-blend-mode:multiply">
<path d="M34.3208 98.4036C32.2093 98.3986 30.1377 97.8278 28.3216 96.7506C28.2274 96.6955 28.1151 96.6801 28.0094 96.7078C27.9038 96.7355 27.8135 96.804 27.7584 96.8983C27.7033 96.9926 27.6879 97.1049 27.7156 97.2105C27.7433 97.3161 27.8118 97.4064 27.9061 97.4615C29.8497 98.6118 32.0656 99.2212 34.3241 99.2265C34.3781 99.2262 34.4316 99.2154 34.4814 99.1945C34.5313 99.1736 34.5765 99.1432 34.6146 99.1048C34.6526 99.0664 34.6827 99.021 34.7032 98.971C34.7237 98.921 34.7341 98.8674 34.7339 98.8134C34.7337 98.7594 34.7228 98.7059 34.7019 98.6561C34.6811 98.6063 34.6506 98.561 34.6122 98.523C34.5739 98.4849 34.5284 98.4548 34.4784 98.4343C34.4284 98.4139 34.3749 98.4034 34.3208 98.4036Z" fill="#F0C7CE"/>
</g>
<g style="mix-blend-mode:multiply">
<path d="M19.876 88.638C19.9213 88.6438 19.8316 88.6306 19.8234 88.6289C19.7847 88.6232 19.746 88.6158 19.7073 88.6084C19.6308 88.5936 19.5543 88.5763 19.4786 88.5565C19.3273 88.5178 19.1784 88.4703 19.0326 88.4142C18.7537 88.3007 18.4883 88.1566 18.2411 87.9847C17.752 87.6413 17.3525 87.1856 17.076 86.6558C17.0181 86.5683 16.9291 86.5062 16.827 86.4821C16.7249 86.4581 16.6174 86.474 16.5266 86.5265C16.4358 86.5791 16.3686 86.6643 16.3385 86.7648C16.3085 86.8653 16.318 86.9735 16.365 87.0672C16.7173 87.7163 17.2199 88.2716 17.8307 88.6868C18.4415 89.1019 19.1428 89.3648 19.876 89.4534C19.9851 89.4534 20.0898 89.4101 20.1669 89.3329C20.2441 89.2558 20.2874 89.1511 20.2874 89.042C20.2833 88.9349 20.2384 88.8335 20.1619 88.7584C20.0854 88.6833 19.9832 88.6402 19.876 88.638Z" fill="#F0C7CE"/>
</g>
<g style="mix-blend-mode:multiply">
<path d="M18.6061 89.5956C17.4114 89.4758 16.2746 89.0215 15.3264 88.2848C15.2322 88.2297 15.12 88.2143 15.0145 88.2419C14.9089 88.2695 14.8187 88.338 14.7636 88.4321C14.7111 88.527 14.6972 88.6384 14.7248 88.7432C14.7524 88.848 14.8193 88.9382 14.9117 88.9949C15.9843 89.8083 17.2651 90.3017 18.6061 90.4184C18.7152 90.4184 18.8199 90.375 18.897 90.2979C18.9742 90.2207 19.0175 90.1161 19.0175 90.007C19.0152 89.8986 18.9711 89.7953 18.8945 89.7186C18.8178 89.642 18.7145 89.5979 18.6061 89.5956Z" fill="#F0C7CE"/>
</g>
<g style="mix-blend-mode:multiply">
<path d="M83.3492 87.0229C83.2941 86.9288 83.2038 86.8604 83.0983 86.8327C82.9927 86.8051 82.8805 86.8206 82.7864 86.8757C81.9199 87.5231 80.8727 87.8833 79.7913 87.9058C79.6822 87.9058 79.5775 87.9492 79.5004 88.0263C79.4232 88.1035 79.3799 88.2081 79.3799 88.3172C79.3799 88.4263 79.4232 88.531 79.5004 88.6081C79.5775 88.6853 79.6822 88.7286 79.7913 88.7286C81.0183 88.7098 82.2092 88.3105 83.1994 87.5857C83.2916 87.5288 83.3585 87.4388 83.3863 87.3341C83.4142 87.2295 83.4009 87.1181 83.3492 87.0229Z" fill="#F0C7CE"/>
</g>
<g style="mix-blend-mode:multiply">
<path d="M84.1132 87.9001C84.0187 87.8468 83.9071 87.8323 83.802 87.8598C83.697 87.8873 83.6067 87.9546 83.5504 88.0474C83.4813 88.1635 83.4089 88.2778 83.3307 88.3881C83.3077 88.4218 83.2838 88.4547 83.26 88.4868L83.218 88.5419L83.1752 88.5954L83.1102 88.6736C82.9306 88.8847 82.7341 89.0809 82.5227 89.2603C82.4709 89.3039 82.4191 89.3475 82.3656 89.3886C82.4092 89.3549 82.3532 89.3977 82.3359 89.4108L82.2537 89.4701C82.1442 89.5483 82.0307 89.6223 81.9147 89.6914C81.7987 89.7606 81.6678 89.8321 81.5403 89.8947C81.4802 89.9243 81.4185 89.9523 81.3568 89.977C81.3444 89.9827 81.3445 89.9835 81.3469 89.9827L81.3247 89.9909L81.2112 90.0354C81.1073 90.0664 81.0194 90.1364 80.9659 90.2307C80.9124 90.325 80.8974 90.4363 80.924 90.5414C80.9384 90.5935 80.9628 90.6422 80.9961 90.6848C81.0293 90.7275 81.0705 90.7631 81.1175 90.7898C81.1645 90.8165 81.2163 90.8336 81.2699 90.8403C81.3235 90.8469 81.3779 90.8429 81.43 90.8286C82.614 90.3817 83.6117 89.547 84.2605 88.4605C84.3138 88.3663 84.3282 88.2551 84.3007 88.1504C84.2732 88.0458 84.2059 87.956 84.1132 87.9001Z" fill="#F0C7CE"/>
</g>
<ellipse cx="274.451" cy="272.958" rx="63.4509" ry="8.95778" fill="#C4C4C4" fill-opacity="0.3"/>
<path d="M240.854 137.381C240.854 137.381 234.487 141.039 232.1 140.724C229.713 140.409 215.545 137.858 212.521 144.225C209.497 150.593 209.019 161.096 212.521 163.963C216.024 166.83 230.349 167.147 232.737 170.967C235.124 174.788 231.941 198.027 234.647 206.623C237.353 215.219 241.172 223.814 241.813 234.957C242.453 246.099 236.011 257.878 233.9 259.788C231.789 261.699 227.648 264.405 228.126 267.747C228.604 271.09 229.559 271.727 229.559 271.727H313.917C313.917 271.727 322.99 269.498 326.015 260.903C329.039 252.308 328.403 250.239 327.288 251.512C324.967 253.781 322.465 255.857 319.806 257.72L318.056 258.834C318.056 258.834 320.603 240.21 306.276 223.497C291.95 206.783 280.012 198.028 276.51 183.543C273.008 169.057 278.261 152.822 275.555 144.863C272.848 136.904 248.972 133.083 240.854 137.381Z" fill="#EBA15C"/>
<path d="M269.14 141.134C269.14 141.134 253.613 135.485 249.373 139.722C245.133 143.959 246.313 169.146 252.315 172.559C258.318 175.972 263.967 168.204 267.618 161.495C271.269 154.786 275.317 145.135 269.14 141.134Z" fill="#EA457F"/>
<path d="M227.128 140.114C227.128 140.114 229.92 152.02 225.864 155.768C221.808 159.517 217.727 161.263 215.082 160.587C213.363 160.115 211.725 159.39 210.219 158.437C210.219 158.437 209.673 148.05 211.702 143.932C213.73 139.815 223.562 139.368 227.128 140.114Z" fill="white"/>
<path d="M210.406 151.34C210.406 151.34 215.141 151.938 218.879 149.997C222.616 148.056 222.888 139.818 222.888 139.818C222.888 139.818 213.438 139.14 211.253 142.948C209.067 146.756 210.406 151.34 210.406 151.34Z" fill="#5C2929"/>
<path d="M240.668 142.444C240.616 142.157 240.495 141.887 240.315 141.657C240.136 141.426 239.904 141.242 239.638 141.121C239.373 141 239.082 140.944 238.79 140.959C238.499 140.975 238.215 141.06 237.964 141.208C235.799 142.212 236.804 145.247 238.427 145.662C240.05 146.077 241.132 144.376 240.668 142.444Z" fill="#5C2929"/>
<path d="M233.49 191.734L233.648 200.123L275.456 176.777L275.272 170.362L233.49 191.734Z" fill="#EA457F"/>
<path d="M226.297 207.734C229.033 207.734 231.251 205.516 231.251 202.78C231.251 200.044 229.033 197.827 226.297 197.827C223.562 197.827 221.344 200.044 221.344 202.78C221.344 205.516 223.562 207.734 226.297 207.734Z" fill="#E6BB2E"/>
<path d="M257.309 203.66C257.309 203.66 264.455 221.984 263.05 226.577C261.646 231.169 255.522 242.272 253.481 250.822C251.439 259.371 249.78 271.723 249.78 271.723" stroke="#B22222" stroke-miterlimit="10"/>
<path d="M233.895 271.727C233.895 271.727 234.069 265.559 238.02 263.468C241.971 261.376 243.598 264.513 243.246 265.443C243.246 265.443 246.381 262.308 248.127 264.048C249.873 265.788 248.127 271.727 248.127 271.727H233.895Z" fill="white"/>
<path d="M229.553 271.727C229.553 271.727 226.127 268.523 228.475 265.483C230.823 262.444 231.861 261.378 233.894 263.351C235.928 265.324 234.881 267.244 234.881 267.244L233.894 271.723L229.553 271.727Z" fill="white"/>
<path d="M253.705 271.727C253.705 271.727 257.682 263.237 261.659 262.761C265.635 262.286 269.466 262.42 269.141 263.48C268.816 264.54 264.31 271.727 264.31 271.727" fill="white"/>
<path d="M236.093 210.992C236.093 210.992 244.725 224.972 245.232 227.254C245.739 229.536 242.951 255.268 241.936 257.549C240.922 259.83 236.487 264.651 236.487 264.651" stroke="#B22222" stroke-miterlimit="10"/>
<path d="M267.669 227.379C267.289 227.379 260.444 243.605 260.063 248.168C259.682 252.731 270.204 259.067 273.626 259.324C277.049 259.58 289.601 262.5 289.601 262.5C289.601 262.5 287.193 264.014 286.178 264.142C285.164 264.271 269.144 262.763 269.144 262.763" stroke="#B22222" stroke-miterlimit="10"/>
<path d="M236.724 146.617C237.262 147.248 237.963 147.719 238.75 147.981" stroke="#B22222" stroke-miterlimit="10"/>
<path d="M223.591 152.356C224.105 152.356 224.522 151.939 224.522 151.425C224.522 150.911 224.105 150.494 223.591 150.494C223.077 150.494 222.66 150.911 222.66 151.425C222.66 151.939 223.077 152.356 223.591 152.356Z" fill="#5C2929"/>
<path d="M222.888 156.078C223.402 156.078 223.819 155.661 223.819 155.147C223.819 154.633 223.402 154.216 222.888 154.216C222.374 154.216 221.957 154.633 221.957 155.147C221.957 155.661 222.374 156.078 222.888 156.078Z" fill="#5C2929"/>
<path d="M219.478 154.217C219.992 154.217 220.409 153.8 220.409 153.286C220.409 152.772 219.992 152.355 219.478 152.355C218.964 152.355 218.547 152.772 218.547 153.286C218.547 153.8 218.964 154.217 219.478 154.217Z" fill="#5C2929"/>
<path d="M229.899 200.469C229.899 200.469 233.993 196.052 234.114 196.132C234.307 196.426 234.47 196.738 234.601 197.065L230.71 201.117L229.899 200.469Z" fill="#E6BB2E"/>
<path d="M319.556 145.597C329.662 145.597 337.855 137.404 337.855 127.299C337.855 117.193 329.662 109 319.556 109C309.45 109 301.258 117.193 301.258 127.299C301.258 137.404 309.45 145.597 319.556 145.597Z" fill="#EA457F"/>
<path d="M307.44 137.108L303.978 155.147L315.71 143.337" fill="#EA457F"/>
<path d="M319.708 135.765C319.708 135.765 308.896 125.754 313.331 121.073C317.765 116.392 319.708 122.921 319.708 122.921C319.708 122.921 322.2 118.432 325.034 119.383C327.868 120.334 329.791 123.414 326.427 128.218C324.583 130.906 322.512 133.431 320.237 135.765" fill="white"/>
</svg>
