<svg width="172" height="219" viewBox="0 0 172 219" fill="none" xmlns="http://www.w3.org/2000/svg">
<path d="M41.3328 38.0201C41.3328 38.0201 32.8028 42.9202 29.6048 42.4982C26.4068 42.0762 7.42777 38.6591 3.37677 47.1891C-0.674231 55.7191 -1.31523 69.7892 3.37677 73.6302C8.06877 77.4712 27.2588 77.8952 30.4578 83.0132C33.6568 88.1312 29.3918 119.263 33.0168 130.778C36.6418 142.293 41.7588 153.807 42.6168 168.734C43.4748 183.661 34.8448 199.44 32.0168 201.999C29.1888 204.558 23.6418 208.183 24.2818 212.661C24.9218 217.139 26.2008 217.992 26.2008 217.992H139.209C139.209 217.992 151.363 215.006 155.415 203.492C159.467 191.978 158.615 189.206 157.121 190.912C154.012 193.952 150.659 196.733 147.098 199.228L144.753 200.72C144.753 200.72 148.165 175.772 128.973 153.382C109.781 130.992 93.7888 119.264 89.0978 99.8592C84.4068 80.4542 91.4438 58.7052 87.8178 48.0432C84.1918 37.3812 52.2078 32.2621 41.3328 38.0201Z" fill="#EBA15C"/>
<path d="M79.2261 43.0478C79.2261 43.0478 58.4261 35.4798 52.7461 41.1558C47.0661 46.8318 48.6461 80.5728 56.6871 85.1448C64.7281 89.7168 72.2961 79.3108 77.1871 70.3238C82.0781 61.3368 87.5001 48.4078 79.2261 43.0478Z" fill="#EA457F"/>
<path d="M22.9461 41.6811C22.9461 41.6811 26.6861 57.6302 21.2521 62.6522C15.8181 67.6742 10.3521 70.0131 6.80807 69.1071C4.5062 68.4747 2.31095 67.5041 0.29406 66.2271C0.29406 66.2271 -0.436948 52.3121 2.28005 46.7961C4.99705 41.2801 18.1681 40.6821 22.9461 41.6811Z" fill="white"/>
<path d="M0.543965 56.7203C0.543965 56.7203 6.88697 57.5203 11.894 54.9203C16.901 52.3203 17.2649 41.2843 17.2649 41.2843C17.2649 41.2843 4.60595 40.3763 1.67795 45.4773C-1.25005 50.5783 0.543965 56.7203 0.543965 56.7203Z" fill="#5C2929"/>
<path d="M41.0828 44.8031C41.0125 44.4184 40.8504 44.0563 40.6102 43.7477C40.37 43.439 40.0588 43.193 39.7031 43.0304C39.3474 42.8678 38.9577 42.7935 38.5672 42.8138C38.1766 42.8341 37.7967 42.9485 37.4598 43.1471C34.5598 44.4921 35.9068 48.5571 38.0808 49.1131C40.2548 49.6691 41.7038 47.3911 41.0828 44.8031Z" fill="#5C2929"/>
<path d="M31.4678 110.832L31.6788 122.069L87.6858 90.7952L87.4388 82.2012L31.4678 110.832Z" fill="#EA457F"/>
<path d="M21.8323 132.266C25.4972 132.266 28.4683 129.295 28.4683 125.63C28.4683 121.965 25.4972 118.994 21.8323 118.994C18.1673 118.994 15.1963 121.965 15.1963 125.63C15.1963 129.295 18.1673 132.266 21.8323 132.266Z" fill="#E6BB2E"/>
<path d="M63.375 126.808C63.375 126.808 72.948 151.356 71.067 157.508C69.186 163.66 60.982 178.534 58.247 189.987C55.512 201.44 53.29 217.987 53.29 217.987" stroke="#B22222" stroke-miterlimit="10"/>
<path d="M32.0088 217.992C32.0088 217.992 32.2428 209.729 37.5358 206.927C42.8288 204.125 45.0078 208.327 44.5358 209.574C44.5358 209.574 48.7358 205.374 51.0748 207.705C53.4138 210.036 51.0748 217.992 51.0748 217.992H32.0088Z" fill="white"/>
<path d="M26.1929 217.992C26.1929 217.992 21.6029 213.7 24.7489 209.628C27.8949 205.556 29.285 204.128 32.009 206.771C34.733 209.414 33.3309 211.987 33.3309 211.987L32.009 217.987L26.1929 217.992Z" fill="white"/>
<path d="M58.5479 217.992C58.5479 217.992 63.8759 206.619 69.2029 205.982C74.5299 205.345 79.6609 205.524 79.2259 206.944C78.7909 208.364 72.7538 217.992 72.7538 217.992" fill="white"/>
<path d="M34.9541 136.63C34.9541 136.63 46.5181 155.357 47.1971 158.414C47.8761 161.471 44.1411 195.942 42.7821 198.998C41.4231 202.054 35.4821 208.512 35.4821 208.512" stroke="#B22222" stroke-miterlimit="10"/>
<path d="M77.2542 158.583C76.7452 158.583 67.5752 180.319 67.0652 186.432C66.5552 192.545 80.6502 201.032 85.2352 201.376C89.8202 201.72 106.635 205.631 106.635 205.631C106.635 205.631 103.409 207.659 102.05 207.831C100.691 208.003 79.2303 205.984 79.2303 205.984" stroke="#B22222" stroke-miterlimit="10"/>
<path d="M35.7998 50.3931C36.5212 51.2378 37.4597 51.8696 38.5138 52.2201" stroke="#B22222" stroke-miterlimit="10"/>
<path d="M18.207 58.0799C18.8957 58.0799 19.454 57.5216 19.454 56.8329C19.454 56.1442 18.8957 55.5859 18.207 55.5859C17.5183 55.5859 16.96 56.1442 16.96 56.8329C16.96 57.5216 17.5183 58.0799 18.207 58.0799Z" fill="#5C2929"/>
<path d="M17.265 63.0672C17.9537 63.0672 18.5121 62.509 18.5121 61.8203C18.5121 61.1316 17.9537 60.5732 17.265 60.5732C16.5763 60.5732 16.0181 61.1316 16.0181 61.8203C16.0181 62.509 16.5763 63.0672 17.265 63.0672Z" fill="#5C2929"/>
<path d="M12.6972 60.5731C13.3859 60.5731 13.9442 60.0148 13.9442 59.3261C13.9442 58.6374 13.3859 58.0791 12.6972 58.0791C12.0085 58.0791 11.4502 58.6374 11.4502 59.3261C11.4502 60.0148 12.0085 60.5731 12.6972 60.5731Z" fill="#5C2929"/>
<path d="M26.6582 122.534C26.6582 122.534 32.1422 116.616 32.3042 116.724C32.563 117.117 32.7815 117.536 32.9562 117.973L27.7442 123.402L26.6582 122.534Z" fill="#E6BB2E"/>
<path d="M146.764 49.026C160.302 49.026 171.277 38.0512 171.277 24.513C171.277 10.9748 160.302 0 146.764 0C133.226 0 122.251 10.9748 122.251 24.513C122.251 38.0512 133.226 49.026 146.764 49.026Z" fill="#EA457F"/>
<path d="M130.532 37.6543L125.894 61.8203L141.611 45.9983" fill="#EA457F"/>
<path d="M146.968 35.8551C146.968 35.8551 132.483 22.4451 138.424 16.1741C144.365 9.90313 146.968 18.6491 146.968 18.6491C146.968 18.6491 150.306 12.6361 154.102 13.9101C157.898 15.1841 160.475 19.3101 155.968 25.7451C153.498 29.3459 150.723 32.7283 147.676 35.8551" fill="white"/>
</svg>
