<svg width="55" height="43" viewBox="0 0 55 43" fill="none" xmlns="http://www.w3.org/2000/svg">
<path d="M1.25102 3.71649C3.29902 3.57249 5.32903 3.43649 7.34303 3.28749C7.46009 2.51643 7.80562 1.79818 8.33502 1.22549C11.204 -1.78451 18.943 0.941492 25.607 7.30849C29.467 10.9945 36.539 22.0265 38.807 24.1995C46.229 31.2825 59.551 32.8315 52.935 40.2995C47.459 46.4845 44.577 34.8785 37.751 27.7535C36.097 26.0245 34.969 24.6685 32.92 23.7065C32.7919 23.9113 32.6439 24.1029 32.478 24.2785C31.9436 24.7683 31.3052 25.1308 30.6107 25.3386C29.9162 25.5464 29.1837 25.5943 28.468 25.4785C28.102 27.2195 27.706 28.9725 27.246 30.7375C27.3357 30.8232 27.3988 30.9329 27.4278 31.0534C27.4569 31.174 27.4507 31.3004 27.41 31.4175C27.3522 31.5939 27.231 31.7426 27.07 31.8349C26.909 31.9272 26.7195 31.9566 26.538 31.9175C26.4545 31.8952 26.3768 31.8551 26.3102 31.8C26.2437 31.7449 26.1898 31.6761 26.1523 31.5982C26.1147 31.5203 26.0945 31.4353 26.0929 31.3488C26.0913 31.2624 26.1084 31.1767 26.143 31.0975C26.1898 30.9752 26.2664 30.8664 26.3657 30.781C26.465 30.6957 26.5841 30.6364 26.712 30.6085C27.196 28.8705 27.612 27.1435 28.005 25.4345C27.683 25.3925 27.347 25.3345 27.005 25.2615C26.528 26.9615 26.021 28.6615 25.443 30.3845C25.5294 30.4734 25.5878 30.5857 25.6107 30.7076C25.6336 30.8294 25.6202 30.9553 25.572 31.0695C25.5004 31.2384 25.3689 31.3748 25.2028 31.4526C25.0366 31.5303 24.8475 31.5438 24.672 31.4905C24.5896 31.4639 24.5138 31.4199 24.45 31.3613C24.3862 31.3027 24.3359 31.2309 24.3024 31.151C24.269 31.0711 24.2532 30.9849 24.2563 30.8983C24.2593 30.8118 24.2811 30.7269 24.32 30.6495C24.3737 30.5309 24.4572 30.4282 24.5623 30.3515C24.6675 30.2747 24.7907 30.2265 24.92 30.2115C25.512 28.5115 26.05 26.8245 26.546 25.1505C26.221 25.0615 25.891 24.9665 25.553 24.8505C24.966 26.5265 24.337 28.2115 23.645 29.9045C23.7276 29.9971 23.7807 30.1122 23.7974 30.2351C23.8142 30.3581 23.7938 30.4832 23.739 30.5945C23.656 30.7577 23.515 30.8839 23.3437 30.9485C23.1724 31.0131 22.9831 31.0113 22.813 30.9435C22.7323 30.9107 22.6595 30.8612 22.5991 30.7984C22.5388 30.7355 22.4924 30.6607 22.4629 30.5787C22.4334 30.4968 22.4214 30.4095 22.4278 30.3227C22.4342 30.2358 22.4588 30.1512 22.5 30.0745C22.562 29.962 22.6523 29.8676 22.7619 29.8006C22.8715 29.7336 22.9966 29.6964 23.125 29.6925C23.837 28.0145 24.485 26.3495 25.097 24.6925C24.772 24.5695 24.447 24.4475 24.114 24.3005C23.404 25.9675 22.658 27.6395 21.851 29.3115C21.9296 29.4071 21.9774 29.5243 21.9882 29.6477C21.9989 29.771 21.972 29.8947 21.911 30.0025C21.8174 30.1601 21.6675 30.2763 21.4916 30.3277C21.3156 30.3791 21.1268 30.3619 20.963 30.2795C20.8849 30.2425 20.8154 30.1896 20.759 30.1242C20.7026 30.0587 20.6604 29.9822 20.6353 29.8996C20.6101 29.8169 20.6025 29.7299 20.613 29.6441C20.6235 29.5583 20.6518 29.4757 20.696 29.4015C20.7628 29.2928 20.8575 29.2039 20.9702 29.1441C21.0829 29.0844 21.2096 29.0558 21.337 29.0615C22.165 27.4035 22.93 25.7515 23.666 24.1005C23.344 23.9565 23.024 23.8065 22.7 23.6385C21.867 25.2955 21 26.9585 20.068 28.6215C20.1408 28.7208 20.182 28.8396 20.1865 28.9627C20.1909 29.0857 20.1584 29.2072 20.093 29.3115C19.9902 29.4621 19.8336 29.5676 19.6554 29.6063C19.4773 29.6449 19.291 29.6139 19.135 29.5195C19.0584 29.4794 18.991 29.4236 18.9372 29.3559C18.8834 29.2881 18.8443 29.2099 18.8226 29.1262C18.8008 29.0424 18.7968 28.9551 18.8109 28.8697C18.8249 28.7843 18.8566 28.7029 18.904 28.6305C18.9778 28.5269 19.0781 28.4451 19.1944 28.3937C19.3107 28.3423 19.4388 28.3232 19.565 28.3385C20.511 26.6895 21.404 25.0475 22.258 23.4055C21.945 23.2395 21.635 23.0635 21.321 22.8745C20.357 24.5325 19.354 26.1835 18.295 27.8365C18.3647 27.9375 18.402 28.0573 18.402 28.18C18.402 28.3027 18.3647 28.4225 18.295 28.5235C18.1814 28.6656 18.0182 28.7594 17.8382 28.786C17.6582 28.8125 17.4748 28.7698 17.325 28.6665C17.2501 28.623 17.185 28.5644 17.1339 28.4945C17.0827 28.4246 17.0466 28.3449 17.0278 28.2603C17.0091 28.1758 17.008 28.0882 17.0247 28.0032C17.0414 27.9182 17.0756 27.8376 17.125 27.7665C17.2045 27.6693 17.3086 27.5953 17.4265 27.5522C17.5444 27.5091 17.6716 27.4985 17.795 27.5215C18.869 25.8885 19.895 24.2515 20.875 22.6135C20.575 22.4265 20.265 22.2285 19.953 22.0225C18.853 23.6745 17.728 25.3225 16.539 26.9655C16.6051 27.0681 16.6378 27.1887 16.6326 27.3106C16.6274 27.4325 16.5846 27.5499 16.51 27.6465C16.3889 27.7811 16.2213 27.8648 16.041 27.8807C15.8606 27.8967 15.6809 27.8437 15.538 27.7325C15.4652 27.686 15.4028 27.6249 15.3548 27.5531C15.3069 27.4812 15.2743 27.4002 15.2593 27.3151C15.2442 27.2301 15.247 27.1428 15.2675 27.0588C15.2879 26.9749 15.3256 26.8961 15.378 26.8275C15.4611 26.7336 15.569 26.6651 15.6893 26.6297C15.8095 26.5943 15.9373 26.5936 16.058 26.6275C17.258 25.0035 18.407 23.3705 19.531 21.7395C19.236 21.5395 18.942 21.3285 18.65 21.1095C17.405 22.7545 16.132 24.3945 14.805 26.0205C14.8672 26.1237 14.8958 26.2438 14.8868 26.3639C14.8779 26.4841 14.8318 26.5986 14.755 26.6915C14.6276 26.8206 14.4557 26.8961 14.2745 26.9026C14.0932 26.9091 13.9164 26.8461 13.78 26.7265C13.7094 26.6776 13.6497 26.6147 13.6044 26.5417C13.5592 26.4687 13.5295 26.3872 13.5171 26.3022C13.5047 26.2172 13.5099 26.1306 13.5325 26.0477C13.555 25.9649 13.5943 25.8875 13.648 25.8205C13.7368 25.7316 13.8484 25.669 13.9704 25.6393C14.0925 25.6097 14.2204 25.6143 14.34 25.6525C15.68 24.0465 16.973 22.4275 18.24 20.8025C17.959 20.5855 17.673 20.3615 17.389 20.1325C15.989 21.7685 14.5604 23.3918 13.103 25.0025C13.1591 25.1085 13.1817 25.229 13.1678 25.3481C13.1538 25.4672 13.104 25.5793 13.025 25.6695C12.8909 25.7903 12.7161 25.8558 12.5356 25.8531C12.3551 25.8503 12.1824 25.7793 12.052 25.6545C11.9827 25.6039 11.9246 25.5394 11.8816 25.4651C11.8386 25.3908 11.8115 25.3084 11.8021 25.223C11.7927 25.1377 11.8011 25.0513 11.827 24.9695C11.8528 24.8876 11.8954 24.812 11.952 24.7475C12.0436 24.6635 12.1567 24.6066 12.2787 24.5831C12.4007 24.5597 12.5268 24.5705 12.643 24.6145C14.129 23.0215 15.572 21.4145 16.988 19.7995C16.715 19.5725 16.447 19.3405 16.176 19.0995C14.617 20.7255 13.037 22.3365 11.415 23.9295C11.4694 24.0358 11.489 24.1565 11.471 24.2746C11.4531 24.3927 11.3985 24.5021 11.315 24.5875C11.1751 24.701 10.9973 24.7572 10.8175 24.745C10.6378 24.7327 10.4693 24.6529 10.346 24.5215C10.279 24.4693 10.2236 24.4037 10.1834 24.3288C10.1432 24.254 10.119 24.1716 10.1124 24.0869C10.1059 24.0022 10.117 23.9171 10.1452 23.837C10.1733 23.7568 10.2179 23.6834 10.276 23.6215C10.3723 23.5422 10.4886 23.491 10.612 23.4733C10.7355 23.4557 10.8614 23.4724 10.976 23.5215C12.6107 21.9475 14.2167 20.3595 15.794 18.7575C15.594 18.5755 15.394 18.3905 15.194 18.1975C15.135 18.1425 15.077 18.0815 15.013 18.0255C13.2857 19.6342 11.5354 21.2262 9.76202 22.8015C9.81082 22.9092 9.82502 23.0293 9.80263 23.1454C9.78024 23.2614 9.72237 23.3677 9.63702 23.4495C9.49254 23.5563 9.31314 23.6048 9.1345 23.5854C8.95587 23.5659 8.79113 23.4799 8.67303 23.3445C8.60817 23.2899 8.55542 23.2224 8.51816 23.1462C8.4809 23.07 8.45994 22.9869 8.45665 22.9022C8.45335 22.8175 8.46779 22.733 8.49902 22.6542C8.53026 22.5754 8.5776 22.504 8.63803 22.4445C8.73708 22.3696 8.8551 22.3238 8.97877 22.3123C9.10245 22.3008 9.22687 22.3241 9.33803 22.3795C11.13 20.8215 12.8997 19.2498 14.647 17.6645C14.395 17.4125 14.147 17.1555 13.903 16.8985C12.069 18.4318 10.2164 19.9465 8.34503 21.4425C8.39149 21.5503 8.40288 21.6701 8.37758 21.7847C8.35227 21.8994 8.29156 22.0032 8.20402 22.0815C8.05372 22.1806 7.87191 22.2201 7.69404 22.1923C7.51618 22.1646 7.35504 22.0716 7.24203 21.9315C7.17737 21.8761 7.12521 21.8076 7.08906 21.7305C7.05291 21.6534 7.03359 21.5696 7.03236 21.4844C7.03113 21.3993 7.04803 21.3149 7.08194 21.2368C7.11585 21.1587 7.16599 21.0887 7.22903 21.0315C7.33115 20.9617 7.45057 20.9215 7.57409 20.9153C7.69762 20.9092 7.82046 20.9372 7.92903 20.9965C9.81003 19.5155 11.686 18.0275 13.544 16.5145C13.328 16.2845 13.118 16.0455 12.908 15.8145C10.973 17.1785 9.00803 18.5225 7.04503 19.8475C7.08638 19.955 7.09096 20.0732 7.05803 20.1835C7.0251 20.2939 6.95651 20.3902 6.86302 20.4575C6.71032 20.5463 6.53066 20.5769 6.35716 20.5436C6.18367 20.5104 6.02804 20.4155 5.91902 20.2765C5.85881 20.2196 5.81154 20.1505 5.78042 20.0738C5.7493 19.9971 5.73507 19.9145 5.73868 19.8318C5.74228 19.7491 5.76364 19.6681 5.80131 19.5944C5.83899 19.5206 5.8921 19.4559 5.95703 19.4045C6.06321 19.3424 6.184 19.3096 6.30702 19.3096C6.43004 19.3096 6.55085 19.3424 6.65703 19.4045C8.64003 18.0935 10.618 16.7755 12.578 15.4325C12.356 15.1685 12.134 14.9045 11.924 14.6325C9.99202 15.8445 8.04003 17.0325 6.09103 18.2175C6.12447 18.3261 6.12178 18.4426 6.08337 18.5495C6.04497 18.6564 5.97292 18.748 5.87803 18.8105C5.72433 18.8937 5.54574 18.9188 5.37507 18.8809C5.20441 18.8431 5.05314 18.7449 4.94903 18.6045C4.89198 18.5461 4.84833 18.4759 4.82113 18.399C4.79394 18.322 4.78385 18.24 4.79156 18.1587C4.79927 18.0774 4.8246 17.9988 4.86578 17.9283C4.90696 17.8578 4.96301 17.7971 5.03003 17.7505C5.13827 17.6922 5.25996 17.6635 5.38284 17.6672C5.50572 17.6708 5.62547 17.7068 5.73002 17.7715C7.69402 16.6045 9.66502 15.4325 11.622 14.2415C11.412 13.9745 11.208 13.7025 11.015 13.4315C9.08403 14.5025 7.13903 15.5535 5.20103 16.5995C5.22846 16.7087 5.22004 16.8239 5.177 16.928C5.13396 17.032 5.0586 17.1195 4.96203 17.1775C4.80736 17.2549 4.62998 17.2741 4.46232 17.2315C4.29467 17.1889 4.14796 17.0874 4.04902 16.9455C3.99626 16.885 3.95723 16.8137 3.93461 16.7367C3.912 16.6596 3.90634 16.5786 3.91803 16.4992C3.92972 16.4197 3.95847 16.3438 4.00232 16.2765C4.04616 16.2092 4.10406 16.1522 4.17203 16.1095C4.2821 16.055 4.40438 16.0299 4.52702 16.0365C4.64966 16.0432 4.7685 16.0814 4.87202 16.1475C6.82502 15.1145 8.78903 14.0835 10.739 13.0385C10.547 12.7625 10.3607 12.4875 10.18 12.2135C8.25402 13.1495 6.32003 14.0665 4.38603 14.9885C4.40651 15.0987 4.39137 15.2126 4.34283 15.3136C4.29429 15.4146 4.21486 15.4976 4.11603 15.5505C3.96059 15.6232 3.78422 15.6376 3.61903 15.5912C3.45385 15.5447 3.31084 15.4405 3.21603 15.2975C3.16762 15.234 3.13355 15.1607 3.11621 15.0827C3.09887 15.0048 3.09866 14.924 3.11558 14.8459C3.13251 14.7679 3.16616 14.6944 3.21423 14.6306C3.26231 14.5668 3.32365 14.5143 3.39403 14.4765C3.50418 14.4271 3.62525 14.407 3.74545 14.4182C3.86565 14.4295 3.98091 14.4716 4.08003 14.5405C6.03003 13.6325 7.97903 12.7258 9.92703 11.8205C9.75303 11.5415 9.58503 11.2585 9.42703 10.9825C7.50603 11.7935 5.57603 12.5825 3.64903 13.3915C3.66137 13.5028 3.63848 13.6151 3.58359 13.7127C3.52869 13.8103 3.44455 13.8882 3.34303 13.9355C3.18736 14.0025 3.01267 14.0107 2.85139 13.9587C2.69011 13.9066 2.55319 13.7978 2.46603 13.6525C2.42023 13.5875 2.38947 13.5131 2.37599 13.4347C2.36251 13.3563 2.36665 13.2759 2.38809 13.1993C2.40954 13.1227 2.44774 13.0519 2.49997 12.9919C2.55219 12.9319 2.61712 12.8843 2.69003 12.8525C2.80135 12.8059 2.92283 12.7888 3.04268 12.803C3.16252 12.8172 3.27666 12.8622 3.37402 12.9335C5.31402 12.1475 7.26402 11.3695 9.21002 10.5845C9.05302 10.3035 8.91003 10.0245 8.76703 9.74549C6.84903 10.4325 4.92103 11.1125 2.99803 11.7985C3.0009 11.91 2.96957 12.0197 2.90825 12.1128C2.84693 12.2059 2.75856 12.2781 2.65503 12.3195C2.49938 12.3824 2.3262 12.3866 2.16766 12.3314C2.00912 12.2763 1.876 12.1654 1.79303 12.0195C1.75404 11.9513 1.7304 11.8754 1.72377 11.7971C1.71713 11.7189 1.72766 11.6401 1.75461 11.5663C1.78155 11.4925 1.82428 11.4255 1.87979 11.3699C1.9353 11.3143 2.00227 11.2715 2.07603 11.2445C2.18786 11.2029 2.30837 11.1903 2.42637 11.2078C2.54438 11.2253 2.65604 11.2723 2.75102 11.3445C4.69402 10.6735 6.64202 10.0135 8.57902 9.34449C8.44502 9.06149 8.32203 8.77949 8.20503 8.49949C6.28803 9.07949 4.36203 9.64649 2.43403 10.2235C2.42768 10.3349 2.38835 10.4419 2.32104 10.531C2.25374 10.62 2.1615 10.687 2.05603 10.7235C1.90005 10.7818 1.72803 10.7806 1.57287 10.7201C1.41772 10.6596 1.29032 10.544 1.21503 10.3955C1.18227 10.3246 1.1652 10.2475 1.16499 10.1695C1.16478 10.0914 1.18144 10.0142 1.21382 9.94322C1.2462 9.87219 1.29354 9.80899 1.3526 9.75795C1.41166 9.70691 1.48106 9.66924 1.55603 9.64749C1.66924 9.60977 1.79016 9.60136 1.9075 9.62304C2.02484 9.64473 2.13478 9.6958 2.22703 9.77149C4.16903 9.20749 6.11503 8.66049 8.05003 8.10649C7.94403 7.82249 7.85002 7.53949 7.76002 7.26449C5.83402 7.73549 3.90303 8.19349 1.97003 8.66449C1.95399 8.77589 1.90566 8.88016 1.83102 8.96439C1.75638 9.04863 1.65869 9.10916 1.55003 9.13849C1.39426 9.19047 1.22472 9.1826 1.07443 9.11642C0.924141 9.05024 0.803861 8.93049 0.737028 8.78049C0.710622 8.70709 0.700223 8.62889 0.706526 8.55113C0.712829 8.47338 0.735689 8.39787 0.773573 8.32968C0.811457 8.26149 0.863489 8.20219 0.926176 8.15576C0.988863 8.10933 1.06075 8.07685 1.13702 8.06049C1.25097 8.0276 1.37141 8.02421 1.48703 8.05062C1.60265 8.07703 1.70967 8.13239 1.79803 8.21149C3.74503 7.75549 5.69803 7.31749 7.64003 6.87249C7.55803 6.58649 7.49103 6.30949 7.44003 6.03349C5.50803 6.40049 3.56603 6.75549 1.62103 7.13349C1.59146 7.2428 1.53246 7.3419 1.45047 7.42001C1.36848 7.49812 1.26665 7.55225 1.15603 7.57649C1.00099 7.62416 0.833634 7.61136 0.687636 7.54068C0.541637 7.47 0.427816 7.34667 0.369032 7.19549C0.350701 7.11901 0.348471 7.03956 0.362501 6.96217C0.376531 6.88479 0.406515 6.81117 0.450529 6.746C0.494543 6.68083 0.551623 6.62552 0.618162 6.5836C0.684702 6.54168 0.759245 6.51406 0.837034 6.50249C0.95167 6.47476 1.07144 6.47645 1.18526 6.50739C1.29907 6.53834 1.40321 6.59753 1.48802 6.67949C3.45702 6.32949 5.41803 5.99049 7.36903 5.64849C7.31903 5.36849 7.29103 5.09649 7.26903 4.82649C5.31903 5.09449 3.36003 5.35049 1.38803 5.62049C1.345 5.72728 1.27536 5.82129 1.18574 5.89358C1.09613 5.96587 0.989502 6.01403 0.876021 6.03349C0.720908 6.07676 0.555058 6.05809 0.41345 5.98141C0.271843 5.90473 0.165567 5.77604 0.117033 5.62249C0.108922 5.54435 0.116547 5.46538 0.139464 5.39024C0.162381 5.3151 0.200119 5.24532 0.250456 5.18501C0.300793 5.1247 0.362709 5.07508 0.432539 5.0391C0.50237 5.00311 0.578698 4.98148 0.657026 4.97549C0.772071 4.95244 0.891074 4.95867 1.00308 4.99362C1.11509 5.02856 1.21651 5.09111 1.29803 5.17549C3.29803 4.92649 5.27903 4.69249 7.25203 4.45049C7.2478 4.18341 7.25882 3.91631 7.28503 3.65049C5.30103 3.82249 3.30103 3.98549 1.28503 4.15049C1.2289 4.25395 1.14855 4.34228 1.05086 4.40794C0.953161 4.47359 0.841026 4.51461 0.724028 4.52749C0.648252 4.5465 0.569475 4.55037 0.492201 4.53888C0.414927 4.5274 0.340668 4.50079 0.273695 4.46056C0.206722 4.42034 0.148343 4.36731 0.101896 4.30449C0.0554501 4.24167 0.0218623 4.17031 0.00303476 4.09449C-0.0329652 3.79449 0.256024 3.53049 0.620024 3.48949C0.735822 3.47065 0.854508 3.4816 0.964903 3.52132C1.0753 3.56103 1.17376 3.6282 1.25102 3.71649ZM17.251 15.5095C20.1973 18.4442 23.5684 20.9189 27.251 22.8505C31.723 24.8825 31.667 22.0385 33.451 22.4405C34.894 22.7615 36.658 24.5485 38.24 26.0605C40.8157 28.5057 43.1922 31.1524 45.347 33.9755C46.919 35.9285 48.56 38.8165 49.654 39.8625C50.372 40.5495 51.096 40.5625 52.573 39.2235C55.032 37.0005 54.443 35.5075 53.027 34.1525C51.2889 32.7408 49.3993 31.5267 47.393 30.5325C44.6027 29.0951 41.9572 27.3926 39.493 25.4485C39.145 25.1585 38.804 24.8575 38.477 24.5415C36.6303 22.4324 34.9147 20.2119 33.34 17.8925C30.551 14.0405 27.39 9.67249 25.274 7.65149C22.508 4.89785 19.2067 2.74075 15.574 1.31349C12.748 0.313491 11.198 0.397492 10.112 1.53649C9.02603 2.67549 9.53602 4.35949 10.663 7.13649C11.912 10.2155 14.132 12.5265 17.254 15.5095H17.251Z" fill="#EA457F"/>
</svg>
