<svg width="69" height="52" viewBox="0 0 69 52" fill="none" xmlns="http://www.w3.org/2000/svg">
<path d="M68.219 4.752V46.758C68.2177 48.0198 67.7159 49.2297 66.8237 50.122C65.9315 51.0144 64.7218 51.5164 63.46 51.518H4.75999C3.49805 51.5164 2.28825 51.0144 1.39592 50.1221C0.503591 49.2297 0.00158768 48.0199 0 46.758V4.752C0.00185496 3.49087 0.504205 2.28205 1.39671 1.39105C2.28921 0.500051 3.49887 -0.000266256 4.75999 1.06301e-07H63.46C64.721 -1.25776e-06 65.9304 0.500431 66.8226 1.3914C67.7149 2.28238 68.2171 3.49105 68.219 4.752ZM66.041 46.72V3.364C66.041 3.341 66.033 3.31 66.033 3.287C66.0128 2.86859 65.8327 2.4739 65.53 2.18437C65.2272 1.89484 64.8249 1.73256 64.406 1.731H3.818C3.38478 1.73232 2.96967 1.905 2.66334 2.21133C2.357 2.51767 2.18432 2.93277 2.183 3.366V46.722C2.18432 47.1552 2.357 47.5703 2.66334 47.8767C2.96967 48.183 3.38478 48.3557 3.818 48.357H64.406C64.8396 48.3557 65.255 48.1827 65.5614 47.876C65.8678 47.5692 66.0402 47.1536 66.041 46.72Z" fill="#EA457F"/>
<path d="M48.1892 9.84496C48.1884 10.1683 48.1518 10.4906 48.0802 10.806C47.6936 11.5129 47.1244 12.1031 46.4318 12.5148C45.7393 12.9266 44.9489 13.1449 44.1432 13.147H24.0812C23.2752 13.146 22.4841 12.9291 21.7903 12.5188C21.0965 12.1085 20.5254 11.5198 20.1362 10.8139C20.0714 10.5027 20.0379 10.1858 20.0362 9.86795C20.0334 9.29367 20.144 8.7245 20.3615 8.19302C20.5791 7.66154 20.8993 7.17819 21.304 6.77068C21.7086 6.36316 22.1897 6.03949 22.7196 5.81818C23.2495 5.59686 23.8179 5.48227 24.3922 5.48096H43.8262C44.3992 5.48096 44.9667 5.59385 45.4961 5.81317C46.0255 6.0325 46.5065 6.35395 46.9116 6.7592C47.3168 7.16445 47.6382 7.64554 47.8574 8.175C48.0766 8.70446 48.1893 9.27191 48.1892 9.84496ZM45.8092 9.86795C45.8118 9.60554 45.7625 9.34521 45.664 9.10196C45.5655 8.85871 45.4199 8.63737 45.2354 8.4507C45.051 8.26403 44.8314 8.11572 44.5894 8.01433C44.3473 7.91294 44.0876 7.86047 43.8252 7.85995H24.3912C23.8837 7.8921 23.4074 8.11638 23.0594 8.48717C22.7113 8.85796 22.5176 9.34741 22.5176 9.85596C22.5176 10.3645 22.7113 10.854 23.0594 11.2247C23.4074 11.5955 23.8837 11.8198 24.3912 11.852H43.8252C44.3505 11.8501 44.8538 11.6404 45.225 11.2686C45.5962 10.8969 45.8051 10.3933 45.8062 9.86795H45.8092Z" fill="#EA457F"/>
<path d="M44.2901 32.0302V32.5262H37.4921H37.3831V39.1622V39.4332H30.8411V39.1622V32.5262H30.7321H23.9341V32.0302V25.9842H30.8411V19.0771H37.3831V25.9842H44.2901V32.0302Z" fill="#EA457F"/>
</svg>
