<svg width="338" height="324" viewBox="0 0 338 324" fill="none" xmlns="http://www.w3.org/2000/svg">
<path d="M81.7434 10.0877C80.8603 41.6207 77.9967 150.39 79.3637 188.934C79.5085 193.018 83.2061 196.295 87.8186 196.429C110.631 197.09 194.261 198.765 231.575 197.379C239.347 197.09 245.527 191.517 245.688 184.632C246.464 151.534 248.175 58.4423 244.108 15.797C243.621 10.6875 239.091 6.61852 233.328 6.10797C208.484 3.90782 124.494 -1.4706 92.2574 0.381369C86.4436 0.715416 81.8881 4.93146 81.7434 10.0877Z" fill="url(#paint0_linear)"/>
<path d="M97.5746 14.7114H225.257C227.718 14.7114 230.078 15.689 231.819 17.4292C233.559 19.1693 234.536 21.5294 234.536 23.9903V50.7134C234.536 51.9319 234.296 53.1385 233.83 54.2643C233.364 55.39 232.68 56.4129 231.819 57.2745C230.957 58.1362 229.934 58.8196 228.808 59.2859C227.682 59.7522 226.476 59.9922 225.257 59.9922H97.5746C95.1136 59.9922 92.7534 59.0146 91.0132 57.2745C89.273 55.5344 88.2954 53.1743 88.2954 50.7134V23.9903C88.2954 22.7718 88.5354 21.5652 89.0017 20.4395C89.468 19.3137 90.1515 18.2908 91.0132 17.4292C91.8748 16.5675 92.8978 15.8841 94.0236 15.4177C95.1494 14.9514 96.356 14.7114 97.5746 14.7114Z" fill="#91B3FA"/>
<path opacity="0.2" d="M228.024 23.8368C227.465 23.2589 226.797 22.7969 226.06 22.4772C225.322 22.1575 224.528 21.9864 223.724 21.9737L104.25 20.0755C102.71 20.051 101.217 20.6084 100.07 21.6363C98.9235 22.6643 98.2066 24.0871 98.063 25.6205L95.581 52.1254C95.3777 54.2957 98.9481 56.123 103.5 56.1783L220.96 57.6014C225.505 57.6564 229.262 55.9231 229.3 53.7547L229.743 28.196C229.757 27.392 229.612 26.5932 229.317 25.8452C229.022 25.0972 228.583 24.4147 228.024 23.8368Z" fill="white"/>
<path d="M120.216 87.0867C120.216 88.2078 119.995 89.3178 119.566 90.3536C119.137 91.3893 118.508 92.3303 117.716 93.123C116.923 93.9157 115.982 94.5445 114.946 94.9735C113.91 95.4025 112.8 95.6233 111.679 95.6233H101.286C99.0224 95.6231 96.8511 94.7237 95.2502 93.1228C93.6494 91.5219 92.75 89.3507 92.75 87.0867C92.75 84.8227 93.6495 82.6514 95.2505 81.0505C96.8515 79.4497 99.0228 78.5503 101.287 78.5503H111.68C112.801 78.5503 113.911 78.7711 114.947 79.2001C115.982 79.629 116.923 80.2578 117.716 81.0505C118.509 81.8432 119.138 82.7842 119.567 83.8199C119.996 84.8556 120.217 85.9657 120.217 87.0867H120.216Z" fill="url(#paint1_linear)"/>
<path d="M158.818 87.0867C158.818 88.2078 158.597 89.3178 158.168 90.3536C157.739 91.3893 157.11 92.3303 156.317 93.123C155.525 93.9157 154.583 94.5445 153.548 94.9735C152.512 95.4025 151.402 95.6233 150.281 95.6233H139.888C137.624 95.6233 135.452 94.7239 133.851 93.123C132.25 91.5221 131.351 89.3508 131.351 87.0867C131.351 84.8227 132.251 82.6514 133.852 81.0505C135.453 79.4497 137.624 78.5503 139.888 78.5503H150.281C151.402 78.5503 152.512 78.7711 153.548 79.2001C154.583 79.629 155.524 80.2578 156.317 81.0505C157.11 81.8432 157.739 82.7842 158.168 83.8199C158.597 84.8556 158.818 85.9657 158.818 87.0867Z" fill="url(#paint2_linear)"/>
<path d="M195.935 87.0867C195.935 88.2077 195.714 89.3178 195.285 90.3535C194.856 91.3892 194.227 92.3303 193.434 93.123C192.642 93.9157 191.701 94.5445 190.665 94.9735C189.629 95.4025 188.519 95.6233 187.398 95.6233H177.005C175.884 95.6233 174.774 95.4025 173.738 94.9735C172.702 94.5445 171.761 93.9157 170.969 93.123C170.176 92.3303 169.547 91.3892 169.118 90.3535C168.689 89.3178 168.468 88.2077 168.468 87.0867C168.468 84.8227 169.368 82.6515 170.969 81.0506C172.57 79.4497 174.741 78.5503 177.005 78.5503H187.398C189.662 78.5503 191.833 79.4497 193.434 81.0506C195.035 82.6515 195.935 84.8227 195.935 87.0867Z" fill="url(#paint3_linear)"/>
<path d="M233.56 88.3394C233.56 90.6401 232.646 92.8466 231.019 94.4734C229.392 96.1002 227.186 97.0142 224.885 97.0142H214.84C213.701 97.0142 212.572 96.7898 211.52 96.3539C210.467 95.9179 209.511 95.279 208.706 94.4735C207.9 93.6679 207.261 92.7116 206.825 91.6591C206.389 90.6067 206.165 89.4786 206.165 88.3394C206.165 86.0387 207.079 83.8322 208.705 82.2054C210.332 80.5785 212.539 79.6646 214.84 79.6646H224.885C227.186 79.6646 229.392 80.5786 231.019 82.2054C232.646 83.8323 233.56 86.0387 233.56 88.3394Z" fill="url(#paint4_linear)"/>
<path d="M120.216 113.81C120.216 114.931 119.995 116.041 119.566 117.077C119.137 118.112 118.508 119.054 117.716 119.846C116.923 120.639 115.982 121.268 114.946 121.697C113.91 122.126 112.8 122.346 111.679 122.346H101.286C99.0224 122.346 96.851 121.447 95.25 119.846C93.649 118.245 92.7495 116.074 92.7495 113.81C92.7495 112.689 92.9703 111.579 93.3994 110.543C93.8284 109.507 94.4572 108.566 95.2499 107.774C96.0427 106.981 96.9838 106.352 98.0195 105.923C99.0553 105.494 100.165 105.273 101.286 105.273H111.679C112.8 105.273 113.91 105.494 114.946 105.923C115.982 106.352 116.923 106.981 117.716 107.774C118.508 108.566 119.137 109.507 119.566 110.543C119.995 111.579 120.216 112.689 120.216 113.81Z" fill="url(#paint5_linear)"/>
<path d="M158.818 113.81C158.818 114.931 158.597 116.041 158.168 117.077C157.739 118.112 157.11 119.054 156.317 119.846C155.524 120.639 154.583 121.268 153.548 121.697C152.512 122.126 151.402 122.346 150.281 122.346H139.888C137.624 122.346 135.453 121.447 133.852 119.846C132.251 118.245 131.351 116.074 131.351 113.81C131.351 111.546 132.25 109.375 133.851 107.774C135.452 106.173 137.624 105.273 139.888 105.273H150.281C151.402 105.273 152.512 105.494 153.548 105.923C154.583 106.352 155.525 106.981 156.317 107.774C157.11 108.566 157.739 109.507 158.168 110.543C158.597 111.579 158.818 112.689 158.818 113.81Z" fill="url(#paint6_linear)"/>
<path d="M195.935 113.81C195.935 116.074 195.035 118.245 193.434 119.846C191.833 121.447 189.662 122.346 187.398 122.346H177.005C174.741 122.346 172.57 121.447 170.969 119.846C169.368 118.245 168.468 116.074 168.468 113.81C168.468 112.689 168.689 111.579 169.118 110.543C169.547 109.507 170.176 108.566 170.969 107.774C171.761 106.981 172.702 106.352 173.738 105.923C174.774 105.494 175.884 105.273 177.005 105.273H187.398C188.519 105.273 189.629 105.494 190.665 105.923C191.701 106.352 192.642 106.981 193.434 107.774C194.227 108.566 194.856 109.507 195.285 110.543C195.714 111.579 195.935 112.689 195.935 113.81Z" fill="url(#paint7_linear)"/>
<path d="M234.536 113.81C234.536 114.931 234.316 116.041 233.887 117.077C233.458 118.112 232.829 119.054 232.036 119.846C231.243 120.639 230.302 121.268 229.266 121.697C228.231 122.126 227.121 122.346 225.999 122.346H215.607C213.343 122.346 211.171 121.447 209.57 119.846C207.969 118.245 207.07 116.074 207.07 113.81C207.07 111.546 207.969 109.375 209.57 107.774C211.171 106.173 213.343 105.273 215.607 105.273H225.999C227.121 105.273 228.231 105.494 229.266 105.923C230.302 106.352 231.243 106.981 232.036 107.774C232.829 108.566 233.458 109.507 233.887 110.543C234.316 111.579 234.536 112.689 234.536 113.81Z" fill="url(#paint8_linear)"/>
<path d="M120.216 137.476C120.216 138.597 119.995 139.707 119.566 140.743C119.137 141.779 118.508 142.72 117.716 143.513C116.923 144.305 115.982 144.934 114.946 145.363C113.91 145.792 112.8 146.013 111.679 146.013H101.286C99.0223 146.013 96.8511 145.113 95.2502 143.512C93.6494 141.912 92.75 139.74 92.75 137.476C92.75 135.212 93.6495 133.041 95.2505 131.44C96.8514 129.839 99.0228 128.94 101.287 128.94H111.68C113.944 128.94 116.115 129.839 117.716 131.44C119.317 133.041 120.216 135.212 120.216 137.476Z" fill="url(#paint9_linear)"/>
<path d="M158.818 137.476C158.818 138.597 158.597 139.707 158.168 140.743C157.739 141.779 157.11 142.72 156.317 143.513C155.525 144.305 154.583 144.934 153.548 145.363C152.512 145.792 151.402 146.013 150.281 146.013H139.888C137.624 146.013 135.452 145.114 133.851 143.513C132.25 141.912 131.351 139.74 131.351 137.476C131.351 135.212 132.251 133.041 133.852 131.44C135.453 129.839 137.624 128.94 139.888 128.94H150.281C151.402 128.94 152.512 129.161 153.548 129.59C154.583 130.019 155.524 130.647 156.317 131.44C157.11 132.233 157.739 133.174 158.168 134.21C158.597 135.245 158.818 136.355 158.818 137.476Z" fill="url(#paint10_linear)"/>
<path d="M195.935 137.476C195.935 138.597 195.714 139.707 195.285 140.743C194.856 141.779 194.227 142.72 193.434 143.513C192.642 144.305 191.701 144.934 190.665 145.363C189.629 145.792 188.519 146.013 187.398 146.013H177.005C175.884 146.013 174.774 145.792 173.738 145.363C172.702 144.934 171.761 144.305 170.969 143.513C170.176 142.72 169.547 141.779 169.118 140.743C168.689 139.707 168.468 138.597 168.468 137.476C168.468 135.212 169.368 133.041 170.969 131.44C172.57 129.839 174.741 128.94 177.005 128.94H187.398C189.662 128.94 191.833 129.839 193.434 131.44C195.035 133.041 195.935 135.212 195.935 137.476Z" fill="url(#paint11_linear)"/>
<path opacity="0.63" d="M120.216 163.457C120.216 164.579 119.995 165.689 119.566 166.724C119.137 167.76 118.508 168.701 117.716 169.494C116.923 170.286 115.982 170.915 114.946 171.344C113.91 171.773 112.8 171.994 111.679 171.994H101.286C99.0224 171.994 96.851 171.095 95.25 169.494C93.649 167.893 92.7495 165.722 92.7495 163.457C92.7495 161.193 93.649 159.022 95.25 157.421C96.851 155.82 99.0223 154.921 101.286 154.921H111.679C113.943 154.921 116.115 155.82 117.716 157.421C119.317 159.022 120.216 161.193 120.216 163.457Z" fill="url(#paint12_linear)"/>
<path opacity="0.63" d="M158.818 163.457C158.818 164.579 158.597 165.689 158.168 166.724C157.739 167.76 157.11 168.701 156.317 169.494C155.524 170.286 154.583 170.915 153.548 171.344C152.512 171.773 151.402 171.994 150.281 171.994H139.888C137.624 171.994 135.453 171.095 133.852 169.494C132.251 167.893 131.351 165.722 131.351 163.457C131.351 161.193 132.251 159.022 133.852 157.421C135.452 155.82 137.624 154.921 139.888 154.921H150.281C152.545 154.921 154.716 155.82 156.317 157.421C157.918 159.022 158.818 161.193 158.818 163.457Z" fill="url(#paint13_linear)"/>
<path opacity="0.63" d="M195.935 163.457C195.935 165.721 195.035 167.893 193.434 169.494C191.833 171.095 189.662 171.994 187.398 171.994H177.005C174.741 171.994 172.57 171.095 170.969 169.494C169.368 167.893 168.468 165.721 168.468 163.457C168.468 161.193 169.368 159.022 170.969 157.421C172.57 155.82 174.741 154.921 177.005 154.921H187.398C189.662 154.921 191.833 155.82 193.434 157.421C195.035 159.022 195.935 161.193 195.935 163.457Z" fill="url(#paint14_linear)"/>
<path d="M219.36 131.253H220.018C222.884 131.253 225.632 132.391 227.659 134.418C229.685 136.444 230.823 139.192 230.823 142.058V162.759C230.823 165.624 229.685 168.372 227.659 170.399C225.632 172.425 222.884 173.563 220.018 173.563H219.36C217.941 173.563 216.536 173.284 215.225 172.741C213.914 172.198 212.722 171.402 211.719 170.399C210.716 169.395 209.92 168.204 209.377 166.893C208.834 165.582 208.554 164.177 208.554 162.759V142.059C208.554 140.64 208.834 139.235 209.376 137.924C209.919 136.613 210.715 135.421 211.719 134.418C212.722 133.414 213.913 132.619 215.224 132.075C216.535 131.532 217.941 131.253 219.36 131.253Z" fill="#91B3FA"/>
<ellipse cx="256" cy="314.5" rx="82" ry="9.5" fill="#C4C4C4" fill-opacity="0.3"/>
<path d="M243.994 143.934C243.994 143.934 237.175 179.186 231.943 181.464C226.585 183.798 187.048 187.27 187.048 187.27L188.308 196.97C188.308 196.97 232.491 199.488 237.632 196.644C242.773 193.799 253.505 179.361 253.505 179.361L243.994 143.934Z" fill="#EDBB95"/>
<path d="M188.308 196.966C188.308 196.966 177.739 202.612 176.084 201.993C174.428 201.373 166.231 190.704 168.346 188.238C170.462 185.773 187.048 187.266 187.048 187.266L188.308 196.966Z" fill="#EDBB95"/>
<path d="M186.186 187.542C186.186 187.542 180.524 180.789 178.795 181.442C177.066 182.094 180.864 189.181 180.864 189.181L186.186 187.542Z" fill="#EDBB95"/>
<g style="mix-blend-mode:multiply">
<path d="M237.271 183.555C236.909 182.89 236.382 182.328 235.742 181.924C235.101 181.52 234.368 181.286 233.611 181.246C233.503 181.246 233.4 181.289 233.323 181.366C233.247 181.442 233.204 181.546 233.204 181.654C233.204 181.762 233.247 181.866 233.323 181.942C233.4 182.019 233.503 182.062 233.611 182.062C234.225 182.102 234.819 182.298 235.336 182.631C235.853 182.964 236.277 183.424 236.567 183.967C236.591 184.017 236.626 184.062 236.669 184.098C236.711 184.135 236.761 184.162 236.815 184.178C236.868 184.195 236.925 184.2 236.98 184.194C237.036 184.187 237.09 184.169 237.138 184.141C237.187 184.113 237.229 184.075 237.262 184.03C237.295 183.985 237.319 183.934 237.331 183.879C237.344 183.824 237.345 183.768 237.334 183.713C237.324 183.658 237.302 183.605 237.271 183.559V183.555Z" fill="#F8E7DA"/>
</g>
<g style="mix-blend-mode:multiply">
<path d="M233.463 182.502C233.18 182.062 232.474 182.47 232.759 182.91C233.457 183.984 233.877 185.215 233.982 186.492C233.985 186.6 234.029 186.702 234.105 186.778C234.181 186.854 234.283 186.898 234.39 186.9C234.498 186.9 234.602 186.857 234.679 186.781C234.755 186.704 234.798 186.601 234.798 186.492C234.691 185.072 234.232 183.701 233.463 182.502Z" fill="#F8E7DA"/>
</g>
<path d="M327.547 284.735C327.547 284.735 330.513 305.6 330.098 307.361C329.82 308.539 314.915 316.509 314.915 316.509C314.915 316.509 313.353 313.818 314.344 311.579C315.335 309.339 320.99 303.107 320.99 303.107L317.905 298.824V285.638C317.905 285.638 323.132 282.852 327.547 284.735Z" fill="#EDBB95"/>
<path d="M215.802 305.128C217.334 308.153 217.706 311.634 216.85 314.915L183.488 315.399C183.488 315.399 182.134 312.137 183.977 310.691C185.228 309.713 201.615 304.969 201.615 304.969L215.802 305.128Z" fill="#EDBB95"/>
<path d="M241.796 213.227C241.796 213.227 189.582 220.149 185.223 231.088C180.642 242.587 199.395 304.846 199.395 304.846C199.395 304.846 206.775 308.542 217.238 304.56C217.238 304.56 212.813 249.874 214.375 248.625C216.703 246.761 292.778 262.468 297.929 225.666L241.796 213.227Z" fill="#512B58"/>
<path d="M297.929 225.667C299.019 254.561 266.015 284.024 268.41 286.628C270.775 289.202 319.658 282.273 319.658 282.273C323.354 292.386 317.142 300.297 317.142 300.297C317.142 300.297 246.373 316.371 239.467 307.348C231.91 297.479 256.229 216.977 256.229 216.977L297.929 225.667Z" fill="#512B58"/>
<g style="mix-blend-mode:multiply">
<g style="mix-blend-mode:multiply">
<path d="M253.387 225.942C251.744 231.868 250.101 237.795 248.459 243.721C248.43 243.825 248.444 243.937 248.497 244.031C248.55 244.125 248.639 244.194 248.743 244.223C248.847 244.251 248.959 244.238 249.053 244.184C249.147 244.131 249.216 244.042 249.245 243.938C250.887 238.012 252.53 232.085 254.173 226.159C254.202 226.055 254.188 225.943 254.135 225.849C254.081 225.755 253.993 225.686 253.889 225.657C253.784 225.629 253.673 225.642 253.579 225.696C253.485 225.749 253.416 225.838 253.387 225.942Z" fill="#98809D"/>
</g>
<g style="mix-blend-mode:multiply">
<path d="M266.159 286.343C265.183 286.407 264.206 286.248 263.301 285.879C262.395 285.51 261.586 284.94 260.933 284.212C260.584 283.82 260.008 284.398 260.357 284.789C261.085 285.593 261.984 286.223 262.988 286.633C263.993 287.042 265.076 287.22 266.159 287.154C266.677 287.123 266.681 286.308 266.159 286.343Z" fill="#98809D"/>
</g>
<g style="mix-blend-mode:multiply">
<path d="M267.047 285.178C265.09 284.18 263.555 282.516 262.719 280.485C262.687 280.382 262.618 280.296 262.524 280.243C262.431 280.19 262.321 280.175 262.217 280.2C262.165 280.214 262.117 280.238 262.075 280.271C262.032 280.304 261.997 280.345 261.97 280.392C261.944 280.438 261.927 280.49 261.92 280.543C261.913 280.596 261.917 280.65 261.932 280.702C262.828 282.936 264.497 284.775 266.635 285.883C267.101 286.122 267.515 285.418 267.047 285.178Z" fill="#98809D"/>
</g>
<g style="mix-blend-mode:multiply">
<path d="M212.164 247.52C209.879 247.29 207.749 246.265 206.143 244.624C205.775 244.248 205.199 244.824 205.567 245.2C207.328 246.989 209.664 248.099 212.164 248.335C212.687 248.386 212.682 247.57 212.164 247.52Z" fill="#98809D"/>
</g>
<g style="mix-blend-mode:multiply">
<path d="M213.416 246.623C211.964 245.723 210.793 244.435 210.034 242.905C210.01 242.855 209.975 242.81 209.933 242.774C209.89 242.737 209.84 242.71 209.787 242.694C209.733 242.677 209.677 242.672 209.621 242.678C209.565 242.685 209.512 242.703 209.463 242.731C209.415 242.759 209.372 242.797 209.339 242.842C209.306 242.887 209.282 242.938 209.27 242.993C209.258 243.048 209.256 243.104 209.267 243.159C209.277 243.214 209.299 243.267 209.33 243.313C210.158 244.965 211.429 246.353 213 247.324C213.451 247.604 213.862 246.899 213.416 246.623Z" fill="#98809D"/>
</g>
</g>
<path d="M243.994 143.934L230.963 172.071C230.963 172.071 236.238 180.122 250.815 184.911L256.021 157.564L243.994 143.934Z" fill="#FFA62B"/>
<path d="M297.877 225.653C297.877 225.653 280.053 242.019 241.744 213.214C241.744 213.214 246.182 206.62 247.917 179.828C248.693 167.845 242.911 145.849 243.942 143.917C247.509 137.236 263.589 133.175 267.89 133.3C270.46 133.372 282.652 134.747 288.537 142.434C290.086 144.465 291.482 183.545 291.523 184.372C291.585 185.614 297.877 225.653 297.877 225.653Z" fill="#FFA62B"/>
<path d="M288.587 142.449C288.587 142.449 310.011 171.082 310.809 182.506C311.728 195.675 291.86 231.792 291.86 231.792L282.593 228.66C282.593 228.66 294.725 194.336 293.735 182.51C293.594 180.813 291.06 176.245 291.06 176.245L288.587 142.449Z" fill="#EDBB95"/>
<path d="M291.862 231.792C291.862 231.792 292.287 243.767 291.002 244.982C289.718 246.198 276.531 248.869 275.247 245.884C273.962 242.899 282.595 228.661 282.595 228.661L291.862 231.792Z" fill="#EDBB95"/>
<path d="M282.465 229.556C282.465 229.556 273.911 231.677 273.739 233.512C273.566 235.348 281.599 235.057 281.599 235.057L282.465 229.556Z" fill="#EDBB95"/>
<g style="mix-blend-mode:multiply">
<g style="mix-blend-mode:multiply">
<path d="M300.321 180.832C298.798 180.655 297.256 180.863 295.835 181.437C295.733 181.468 295.646 181.538 295.593 181.631C295.541 181.724 295.525 181.834 295.551 181.938C295.565 181.99 295.589 182.038 295.622 182.081C295.655 182.123 295.696 182.159 295.742 182.185C295.789 182.212 295.84 182.229 295.893 182.235C295.946 182.242 296 182.238 296.052 182.224C297.403 181.674 298.871 181.476 300.319 181.648C300.427 181.648 300.531 181.605 300.607 181.529C300.684 181.452 300.727 181.348 300.727 181.24C300.724 181.133 300.681 181.031 300.605 180.955C300.529 180.88 300.428 180.836 300.321 180.832Z" fill="#F8E7DA"/>
</g>
<g style="mix-blend-mode:multiply">
<path d="M300.353 183.022C298.562 182.671 296.71 182.783 294.975 183.349C294.478 183.512 294.691 184.3 295.192 184.135C296.785 183.606 298.487 183.494 300.136 183.809C300.649 183.908 300.868 183.122 300.353 183.022Z" fill="#F8E7DA"/>
</g>
</g>
<path d="M262.174 97.7867C262.43 97.6504 262.65 97.4566 262.818 97.2206C262.986 96.9845 263.097 96.7126 263.142 96.4264C263.187 96.1402 263.165 95.8474 263.077 95.5712C262.99 95.295 262.839 95.0429 262.638 94.8348C262.436 94.6268 262.189 94.4684 261.915 94.3722C261.642 94.276 261.35 94.2447 261.063 94.2806C260.775 94.3165 260.5 94.4188 260.259 94.5793C260.018 94.7398 259.817 94.9541 259.673 95.2054C259.772 94.3034 259.556 93.3949 259.061 92.634C258.809 92.2598 258.464 91.9585 258.059 91.7602C257.654 91.562 257.204 91.4737 256.754 91.5044C256.306 91.5538 255.889 91.7591 255.577 92.0844C255.265 92.4096 255.077 92.8342 255.046 93.284C248.964 90.5005 241.969 90.8683 235.293 91.2907C232.885 91.4433 230.169 91.7507 228.699 93.664C228.283 94.2431 227.993 94.9031 227.848 95.6014C227.703 96.2996 227.706 97.0204 227.857 97.7173C228.172 99.113 228.858 100.398 229.842 101.436C229.379 101.56 228.964 101.819 228.65 102.181C228.336 102.542 228.138 102.99 228.081 103.466C228.025 103.941 228.112 104.423 228.332 104.849C228.552 105.274 228.894 105.624 229.315 105.853C228.565 107.197 229.213 108.89 230.079 110.164C232.496 113.721 236.501 115.983 240.681 116.993C244.861 118.003 249.236 117.868 253.514 117.42C256.869 117.069 260.918 116.314 263.13 113.464C265.22 110.773 265.559 106.555 264.857 103.342C264.425 101.301 263.504 99.3945 262.174 97.7867Z" fill="#1A0B23"/>
<path d="M260.029 107.572C260.981 111.671 262.347 116.951 263.666 121.936C263.785 122.408 263.922 122.89 264.041 123.362C266.052 130.927 267.867 137.449 267.867 137.449C265.952 142.155 256.512 142.79 256.538 141.296C256.504 140.402 256.297 139.522 255.929 138.706C255.812 138.391 255.676 138.084 255.521 137.785C255.515 137.762 255.504 137.741 255.487 137.724C255.074 136.838 254.414 136.09 253.588 135.568C253.143 135.413 252.665 135.378 252.201 135.464L252.174 135.473C252.136 135.469 252.098 135.471 252.06 135.48C252.006 135.491 251.952 135.499 251.897 135.504C251.619 135.547 251.312 135.585 250.98 135.645C250.584 135.727 250.35 135.77 250.35 135.77C247.12 136.377 242.476 137.355 239.86 134.449C235.998 130.216 234.001 117.273 233.554 110.979C233.292 107.363 235.733 101.966 241.791 100.078C249.182 97.7864 257.466 96.6708 260.029 107.572Z" fill="#EDBB95"/>
<path d="M233.532 108.238C234.589 108.911 235.773 109.362 237.01 109.564C238.248 109.765 239.513 109.713 240.73 109.41C243.155 108.789 245.483 107.837 247.648 106.58C247.593 106.723 247.569 106.876 247.577 107.029C247.585 107.182 247.626 107.332 247.696 107.468C247.766 107.604 247.864 107.724 247.983 107.82C248.103 107.916 248.241 107.986 248.39 108.024C248.996 108.134 249.621 108.052 250.178 107.79C250.125 109.459 251.58 110.743 252.971 111.613C254.583 112.622 256.301 113.45 258.094 114.083C258.975 114.496 259.977 114.574 260.911 114.301C262.072 113.818 262.601 112.435 262.794 111.163C263.528 106.309 261.057 101.288 257.238 98.3079C253.418 95.3278 248.462 94.1991 243.678 94.3386C240.717 94.298 237.806 95.1056 235.289 96.6662C233.828 97.6145 232.697 98.9938 232.054 100.613C231.411 102.232 231.288 104.012 231.701 105.704C231.994 106.738 232.642 107.635 233.532 108.238Z" fill="#1A0B23"/>
<path d="M248.945 117.882C249.096 118.453 248.455 119.118 247.514 119.37C246.573 119.621 245.686 119.362 245.533 118.791C245.381 118.22 246.023 117.554 246.964 117.303C247.905 117.052 248.792 117.311 248.945 117.882Z" fill="#E8A294"/>
<path d="M239.082 120.981C239.259 121.545 238.649 122.239 237.719 122.531C236.788 122.823 235.891 122.602 235.714 122.041C235.537 121.48 236.148 120.785 237.079 120.492C238.009 120.199 238.903 120.418 239.082 120.981Z" fill="#E8A294"/>
<path d="M243.365 117.615C243.351 117.325 243.432 117.038 243.596 116.799C243.759 116.559 243.996 116.379 244.271 116.286C244.555 116.215 244.853 116.221 245.135 116.302C245.416 116.384 245.671 116.538 245.874 116.75C246.085 116.934 245.792 117.253 245.583 117.071C245.44 116.915 245.259 116.798 245.059 116.732C244.858 116.665 244.644 116.65 244.436 116.688C244.243 116.746 244.075 116.868 243.959 117.033C243.843 117.198 243.787 117.398 243.798 117.599C243.798 117.655 243.775 117.708 243.736 117.748C243.698 117.788 243.645 117.811 243.589 117.813C243.534 117.815 243.479 117.795 243.438 117.758C243.396 117.722 243.37 117.67 243.365 117.615Z" fill="#311E19"/>
<path d="M237.839 119.458C237.864 119.163 237.958 118.877 238.114 118.625C238.27 118.373 238.483 118.16 238.736 118.006C239.018 117.915 239.321 117.914 239.603 118.002C239.886 118.091 240.134 118.266 240.313 118.501C240.354 118.541 240.379 118.594 240.381 118.651C240.384 118.708 240.365 118.764 240.328 118.807C240.289 118.849 240.235 118.874 240.178 118.877C240.121 118.88 240.065 118.86 240.022 118.822C239.745 118.527 239.307 118.203 238.886 118.414C238.465 118.625 238.356 119.148 238.261 119.556C238.247 119.61 238.211 119.657 238.163 119.686C238.115 119.715 238.057 119.724 238.002 119.711C237.948 119.699 237.9 119.665 237.869 119.618C237.839 119.571 237.828 119.513 237.839 119.458Z" fill="#311E19"/>
<path d="M241.973 121.636C242.24 121.461 242.56 121.384 242.879 121.417C242.936 121.417 242.991 121.438 243.032 121.477C243.074 121.516 243.099 121.569 243.103 121.626C243.104 121.684 243.083 121.739 243.044 121.781C243.005 121.823 242.951 121.848 242.894 121.851C242.672 121.823 242.447 121.864 242.249 121.969C242.186 122.016 242.14 122.081 242.118 122.156C242.095 122.231 242.097 122.312 242.123 122.386C242.13 122.409 242.138 122.432 242.148 122.454C242.155 122.471 242.164 122.486 242.174 122.501C242.195 122.537 242.219 122.571 242.247 122.602C242.315 122.674 242.395 122.734 242.483 122.779C242.698 122.88 242.928 122.945 243.164 122.972C243.217 122.987 243.263 123.022 243.291 123.07C243.32 123.118 243.329 123.175 243.316 123.229C243.304 123.283 243.271 123.33 243.225 123.361C243.179 123.392 243.123 123.404 243.068 123.394C242.513 123.301 241.819 123.081 241.694 122.444C241.659 122.297 241.667 122.143 241.716 122C241.766 121.857 241.854 121.731 241.973 121.636Z" fill="#C69E7F"/>
<path d="M243.07 129.689C243.07 129.689 243.079 129.689 243.081 129.695C244.187 130.005 245.372 129.862 246.373 129.298C247.017 128.964 247.577 128.488 248.01 127.905C248.283 127.528 248.488 127.106 248.616 126.658C248.683 126.405 248.72 126.144 248.728 125.882C248.761 125.587 248.717 125.289 248.601 125.017C248.485 124.744 248.302 124.505 248.068 124.323C247.889 124.225 247.691 124.165 247.488 124.147C247.285 124.128 247.08 124.152 246.886 124.217C246.834 124.227 246.784 124.243 246.734 124.262C246.31 124.444 245.911 124.679 245.546 124.961C244.98 125.362 244.367 125.69 243.72 125.94C243.231 126.126 242.711 126.22 242.187 126.215C241.956 126.18 241.722 126.163 241.489 126.165C241.403 126.182 241.324 126.221 241.257 126.276C241.19 126.332 241.137 126.403 241.104 126.483C240.993 126.717 240.952 126.977 240.985 127.234C241.065 127.798 241.303 128.329 241.672 128.763C242.042 129.197 242.526 129.519 243.07 129.689Z" fill="#D08E81"/>
<path d="M243.079 129.696C244.185 130.005 245.37 129.862 246.371 129.298C247.015 128.965 247.575 128.488 248.008 127.906C248.281 127.528 248.486 127.106 248.614 126.659C247.894 126.648 247.176 126.731 246.478 126.903C245.534 127.106 244.662 127.561 243.955 128.219C243.542 128.628 243.24 129.137 243.079 129.696Z" fill="#B86657"/>
<path d="M241.621 126.562C241.78 126.738 241.982 126.868 242.206 126.941C242.431 127.015 242.671 127.028 242.903 126.979C243.888 126.838 244.837 126.506 245.695 126C245.973 125.87 246.234 125.705 246.472 125.511C246.713 125.313 246.877 125.038 246.936 124.731C246.962 124.559 246.945 124.383 246.886 124.219C246.834 124.23 246.784 124.245 246.734 124.265C246.31 124.446 245.911 124.681 245.546 124.964C244.98 125.364 244.367 125.693 243.72 125.943C243.231 126.129 242.711 126.222 242.187 126.218C241.956 126.183 241.722 126.166 241.489 126.168C241.495 126.309 241.541 126.446 241.621 126.562Z" fill="white"/>
<path d="M239.991 114.737C239.975 114.698 239.951 114.663 239.922 114.633C239.892 114.604 239.857 114.58 239.818 114.564C239.131 114.282 238.36 114.284 237.674 114.569C236.988 114.854 236.443 115.399 236.158 116.084C236.141 116.123 236.133 116.164 236.133 116.206C236.133 116.248 236.141 116.29 236.157 116.329C236.173 116.367 236.196 116.403 236.226 116.432C236.255 116.462 236.29 116.486 236.329 116.502C236.376 116.522 236.428 116.53 236.479 116.526C236.537 116.52 236.593 116.499 236.64 116.465C236.687 116.43 236.724 116.384 236.746 116.33C236.967 115.8 237.388 115.378 237.918 115.158C238.448 114.938 239.044 114.937 239.575 115.155C239.614 115.171 239.655 115.179 239.697 115.179C239.739 115.179 239.781 115.171 239.819 115.155C239.858 115.139 239.893 115.115 239.922 115.086C239.951 115.056 239.974 115.021 239.99 114.983C240.006 114.944 240.015 114.902 240.015 114.86C240.015 114.818 240.007 114.776 239.991 114.737Z" fill="#1A0B23"/>
<path d="M241.769 114.166C241.756 114.126 241.751 114.083 241.755 114.041C241.758 113.999 241.77 113.959 241.79 113.921C242.133 113.263 242.723 112.767 243.431 112.542C244.139 112.318 244.907 112.382 245.567 112.722C245.604 112.741 245.638 112.768 245.665 112.8C245.692 112.832 245.713 112.869 245.725 112.909C245.746 112.974 245.745 113.043 245.724 113.107C245.702 113.171 245.661 113.227 245.606 113.266C245.559 113.3 245.503 113.321 245.444 113.325C245.386 113.329 245.328 113.317 245.276 113.29C244.766 113.027 244.172 112.977 243.625 113.15C243.077 113.324 242.621 113.707 242.355 114.216C242.326 114.271 242.281 114.317 242.226 114.348C242.171 114.378 242.108 114.391 242.045 114.386C241.983 114.38 241.923 114.356 241.874 114.317C241.825 114.278 241.788 114.225 241.769 114.165V114.166Z" fill="#1A0B23"/>
<path d="M262.233 120.102C262.74 119.86 263.186 119.507 263.538 119.069C264.135 118.264 264.561 117.345 264.788 116.368C265.112 115.35 265.216 114.275 265.094 113.213C265.029 112.683 264.847 112.174 264.561 111.724C264.275 111.273 263.892 110.892 263.44 110.607C262.986 110.368 262.481 110.242 261.967 110.237C261.454 110.233 260.946 110.352 260.488 110.584C259.571 111.062 258.855 111.853 258.471 112.813C258.094 113.77 257.943 114.801 258.031 115.825C258.083 117.138 258.541 118.403 259.341 119.445C259.715 119.924 260.255 120.244 260.854 120.342C261.327 120.395 261.806 120.312 262.233 120.102Z" fill="#EDBB95"/>
<path d="M260.414 114.517C260.743 113.517 261.433 112.677 262.35 112.159C262.595 112.023 262.828 112.387 262.585 112.523C261.735 112.999 261.103 113.786 260.822 114.719C260.541 115.651 260.633 116.656 261.078 117.523C261.206 117.767 260.844 118.004 260.714 117.757C260.451 117.264 260.29 116.724 260.238 116.167C260.187 115.611 260.246 115.05 260.414 114.517Z" fill="#C69D7F"/>
<path d="M260.538 114.264C260.892 114.045 261.3 113.929 261.717 113.928C262.133 113.927 262.542 114.041 262.897 114.258C262.947 114.286 262.984 114.331 263.001 114.386C263.018 114.44 263.013 114.499 262.988 114.55C262.962 114.601 262.916 114.639 262.861 114.656C262.807 114.673 262.748 114.668 262.697 114.642C262.409 114.461 262.076 114.363 261.736 114.361C261.396 114.358 261.062 114.451 260.772 114.627C260.724 114.658 260.665 114.669 260.609 114.657C260.553 114.645 260.504 114.611 260.473 114.562C260.442 114.514 260.431 114.456 260.443 114.4C260.456 114.344 260.489 114.295 260.538 114.264Z" fill="#C69D7F"/>
<g style="mix-blend-mode:multiply">
<path d="M262.268 131.548C260.006 133.193 257.404 134.308 254.653 134.811C254.14 134.904 254.222 135.716 254.739 135.626C257.632 135.103 260.37 133.937 262.752 132.213C262.795 132.181 262.832 132.141 262.86 132.095C262.889 132.049 262.907 131.998 262.916 131.945C262.924 131.891 262.922 131.837 262.909 131.785C262.897 131.732 262.874 131.683 262.842 131.639C262.81 131.595 262.77 131.558 262.724 131.53C262.678 131.502 262.627 131.483 262.574 131.475C262.52 131.466 262.466 131.469 262.414 131.481C262.361 131.494 262.312 131.517 262.268 131.548Z" fill="#F8E7DA"/>
</g>
<path d="M285.899 139.669C285.899 139.669 303.276 153.917 310.842 167.521C310.842 167.521 306.099 178.037 291.423 180.529L285.899 139.669Z" fill="#FFA62B"/>
<g style="mix-blend-mode:multiply">
<g style="mix-blend-mode:multiply">
<path d="M289.418 176.706C287.021 173.652 285.332 170.105 284.471 166.319C284.354 165.808 283.568 166.024 283.684 166.536C284.586 170.456 286.348 174.126 288.842 177.282C289.166 177.698 289.74 177.113 289.418 176.706Z" fill="#C895A9"/>
</g>
<g style="mix-blend-mode:multiply">
<path d="M289.745 186.13C289.667 186.056 289.564 186.015 289.456 186.015C289.349 186.015 289.246 186.056 289.168 186.13C288.443 186.699 287.613 187.118 286.725 187.363C285.837 187.608 284.909 187.674 283.996 187.558C283.888 187.558 283.784 187.601 283.707 187.677C283.631 187.754 283.588 187.857 283.588 187.965C283.59 188.073 283.634 188.175 283.71 188.251C283.786 188.327 283.888 188.371 283.996 188.373C285.017 188.491 286.051 188.404 287.038 188.118C288.024 187.832 288.945 187.352 289.745 186.707C289.821 186.631 289.864 186.527 289.864 186.419C289.864 186.311 289.821 186.207 289.745 186.13Z" fill="#C895A9"/>
</g>
<g style="mix-blend-mode:multiply">
<path d="M289.851 188.027C288.337 190.433 285.327 191.021 282.736 191.491C282.22 191.585 282.439 192.371 282.952 192.278C285.783 191.764 288.913 191.049 290.555 188.438C290.836 187.993 290.13 187.583 289.851 188.027Z" fill="#C895A9"/>
</g>
<g style="mix-blend-mode:multiply">
<path d="M246.566 166.694C246.537 166.59 246.468 166.502 246.374 166.448C246.28 166.395 246.168 166.381 246.064 166.41C245.96 166.438 245.871 166.507 245.818 166.602C245.764 166.696 245.751 166.807 245.779 166.911C247.005 171.035 247.514 175.338 247.282 179.634C247.254 180.158 248.069 180.157 248.098 179.634C248.33 175.265 247.812 170.888 246.566 166.694Z" fill="#C895A9"/>
</g>
</g>
<ellipse cx="69.0496" cy="313.704" rx="69.0496" ry="9.70426" fill="#C4C4C4" fill-opacity="0.3"/>
<path d="M91.3445 277.948C91.3445 277.948 90.0626 288.838 95.3628 297.926C100.663 307.013 103.693 307.265 104.576 308.654C105.46 310.042 106.091 311.683 104.324 311.935C102.558 312.188 98.392 310.042 96.7515 308.149C95.1109 306.256 87.5233 297.004 87.4785 295.802C87.4337 294.6 88.9645 281.572 91.3445 277.948Z" fill="#877A9C"/>
<path d="M46.8468 264.401C46.8468 264.401 49.9254 276.471 49.5467 280.636C49.1681 284.801 47.2749 289.092 48.7895 295.655C50.304 302.218 50.43 304.111 52.45 305.247C54.4699 306.383 56.4883 307.643 55.6051 308.908C54.7218 310.173 51.5659 310.17 49.6727 308.908C47.7795 307.646 39.9431 296.984 39.45 294.953C38.957 292.921 28.9739 261.704 30.7412 257.413C32.5085 253.122 33.1367 250.344 35.5369 249.714C37.937 249.083 46.8468 264.401 46.8468 264.401Z" fill="#877A9C"/>
<path d="M19.9975 214.928C19.9975 214.928 11.3582 233.164 13.2785 242.766C15.1988 252.367 28.157 279.483 28.6368 290.042C29.1167 300.601 25.2746 310.681 27.1972 312.36C27.4092 312.596 27.6683 312.784 27.9577 312.913C28.2471 313.041 28.5604 313.108 28.8772 313.108C29.1939 313.108 29.5072 313.041 29.7966 312.913C30.086 312.784 30.3451 312.596 30.5571 312.36C30.5571 312.36 31.7572 304.441 34.8768 299.401C37.9963 294.361 38.9561 292.922 38.9561 292.922C38.9561 292.922 44.9557 283.082 42.316 275.643C39.6763 268.204 35.3566 254.525 35.3566 254.525C35.3566 254.525 46.3961 262.444 51.1979 269.644C55.9998 276.843 68.9564 279.003 70.8767 279.243L72.7962 279.483C72.7962 279.483 80.2354 292.922 82.8751 298.681C85.5148 304.44 87.1948 312.893 91.9935 313.107C96.7923 313.32 95.593 312.121 94.6332 311.16C93.6735 310.2 87.1932 300.121 87.4336 294.602C87.6739 289.082 91.584 275.163 95.5088 267.964C99.4335 260.764 107.108 245.406 107.108 245.406C107.108 245.406 125.95 238.404 125.064 227.643C124.178 216.882 91.2671 177.762 90.125 179.028C88.9829 180.295 97.4661 207.64 97.4661 207.64L92.2756 210.678C92.2756 210.678 73.6663 189.283 71.2607 192.321C68.8552 195.359 78.3507 222.579 82.022 228.53L85.6941 234.48L82.6557 240.683C82.6557 240.683 61.8927 235.999 56.1953 233.087C50.4978 230.176 39.99 217.135 34.6728 215.996C29.3555 214.856 25.178 213.97 25.178 213.97C25.178 213.97 31.5076 198.401 43.9148 192.321C56.322 186.241 85.4406 177.508 91.2672 168.393C97.0937 159.278 93.9262 147.124 87.2164 146.112C80.5067 145.099 83.0382 151.175 85.1903 156.366C87.3424 161.556 89.2418 163.456 86.0766 168.14C82.9114 172.825 62.3989 183.712 48.7259 185.611C35.0529 187.511 21.8985 210.515 19.9975 214.928Z" fill="#9BC9EB"/>
<path d="M97.6231 231.569C98.7293 231.569 99.626 230.672 99.626 229.566C99.626 228.46 98.7293 227.563 97.6231 227.563C96.5169 227.563 95.6201 228.46 95.6201 229.566C95.6201 230.672 96.5169 231.569 97.6231 231.569Z" fill="#5C2929"/>
<path d="M112.598 220.886C113.704 220.886 114.601 219.989 114.601 218.883C114.601 217.777 113.704 216.88 112.598 216.88C111.492 216.88 110.595 217.777 110.595 218.883C110.595 219.989 111.492 220.886 112.598 220.886Z" fill="#5C2929"/>
<path d="M116.597 231.22C116.597 231.22 113.607 224.3 109.736 225.238C105.865 226.176 105.572 235.442 106.922 238.432C108.271 241.423 118.063 238.725 116.597 231.22Z" fill="white"/>
<path d="M107.711 226.862C107.711 226.862 108.649 228.533 110.13 228.74C111.611 228.947 111.949 225.486 111.7 225.397L111.449 225.308C111.449 225.308 109.427 224.296 107.711 226.862Z" fill="#4D2322"/>
<path d="M107.711 231.569C107.711 231.569 109.868 234.643 111.775 233.803C113.681 232.963 113.381 227.864 113.381 227.864C113.381 227.864 114.515 233.083 112.598 234.523C110.682 235.964 108.345 232.995 107.711 231.569Z" fill="#5C2929"/>
<path d="M83.7307 238.487C83.7307 238.487 88.9081 245.534 93.7277 249.522C96.2999 251.742 99.1825 253.574 102.284 254.961L100.377 258.688C100.377 258.688 93.2293 255.503 89.6847 252.844C86.1402 250.186 81.0215 240.306 81.0215 240.306L82.6558 240.683L83.7307 238.487Z" fill="#EA457F"/>
<path d="M109.743 259.894C109.743 259.894 106.14 253.734 104.306 255.176C102.471 256.618 106.137 263.302 107.711 263.564C108.157 263.612 108.606 263.528 109.004 263.321C109.402 263.115 109.729 262.796 109.946 262.404C110.163 262.012 110.26 261.565 110.223 261.118C110.187 260.672 110.02 260.246 109.743 259.894Z" fill="#E6BB2E"/>
<path d="M93.165 240.889C93.165 240.889 99.8253 248.085 107.112 245.405L103.059 253.442C103.059 253.442 94.0823 246.656 93.165 240.889Z" fill="#877A9C"/>
<path d="M87.481 309.604C87.481 309.604 89.4955 304.93 91.2937 305.921C93.0919 306.912 96.9873 312.472 95.261 312.799C93.5347 313.125 88.9044 314.113 87.481 309.604Z" fill="white"/>
<path d="M98.7838 309.854C98.7838 309.854 103.163 313.14 105.449 311.956C107.734 310.773 105.091 309.207 102.792 307.139C100.493 305.071 97.4407 307.799 98.7838 309.854Z" fill="white"/>
<path d="M55.8179 307.275C55.8179 307.275 53.8127 304.829 51.513 304.525C49.2133 304.222 47.5944 306.38 49.2233 308.539C50.8523 310.698 57.0613 310.774 55.8179 307.275Z" fill="white"/>
<path d="M33.4298 311.958C33.4298 311.958 34.2025 309.09 31.4701 308.071C28.7376 307.051 25.9836 309.412 26.7293 311.359C27.475 313.305 31.4191 315.672 33.4298 311.958Z" fill="white"/>
<path d="M108.675 203.355C108.675 203.355 93.471 180.25 93.165 185.071C92.859 189.892 99.2295 205.486 100.138 205.711C101.047 205.936 102.333 205.935 102.082 204.925C101.832 203.915 99.1398 195.059 99.1398 195.059C99.1398 195.059 105.503 204.14 106.191 204.589C106.88 205.038 108.675 203.355 108.675 203.355Z" fill="#EC6198"/>
<path d="M86.5767 210.197C87.137 210.533 75.9198 196.512 75.3588 198.868C74.7978 201.224 81.9774 223.21 83.7724 223.322C85.5675 223.434 86.5968 218.882 86.5968 218.882L81.8653 210.085C81.8653 210.085 87.4739 217.055 87.9229 216.879C88.3718 216.703 90.1638 214.348 90.1638 214.348L86.5767 210.197Z" fill="#EC6198"/>
<defs>
<linearGradient id="paint0_linear" x1="236368" y1="410200" x2="435249" y2="410200" gradientUnits="userSpaceOnUse">
<stop stop-color="#DBDBDB" stop-opacity="0.63"/>
<stop offset="1" stop-color="#FFA62B"/>
</linearGradient>
<linearGradient id="paint1_linear" x1="35907.5" y1="38950.5" x2="48289" y2="19773.9" gradientUnits="userSpaceOnUse">
<stop stop-color="#4F52FF"/>
<stop offset="1" stop-color="#4042E2"/>
</linearGradient>
<linearGradient id="paint2_linear" x1="39552.1" y1="41278.7" x2="51933.6" y2="22102.1" gradientUnits="userSpaceOnUse">
<stop stop-color="#4F52FF"/>
<stop offset="1" stop-color="#4042E2"/>
</linearGradient>
<linearGradient id="paint3_linear" x1="43056.4" y1="43517.4" x2="55437.9" y2="24340.8" gradientUnits="userSpaceOnUse">
<stop stop-color="#4F52FF"/>
<stop offset="1" stop-color="#4042E2"/>
</linearGradient>
<linearGradient id="paint4_linear" x1="307.731" y1="-8.65471" x2="235.168" y2="71.4516" gradientUnits="userSpaceOnUse">
<stop stop-color="#FF928E"/>
<stop offset="1" stop-color="#FE7062"/>
</linearGradient>
<linearGradient id="paint5_linear" x1="38500.6" y1="40651.5" x2="50882.1" y2="21474.9" gradientUnits="userSpaceOnUse">
<stop stop-color="#4F52FF"/>
<stop offset="1" stop-color="#4042E2"/>
</linearGradient>
<linearGradient id="paint6_linear" x1="42145.2" y1="42979.7" x2="54526.6" y2="23803.1" gradientUnits="userSpaceOnUse">
<stop stop-color="#4F52FF"/>
<stop offset="1" stop-color="#4042E2"/>
</linearGradient>
<linearGradient id="paint7_linear" x1="45649.5" y1="45218.4" x2="58031" y2="26041.8" gradientUnits="userSpaceOnUse">
<stop stop-color="#4F52FF"/>
<stop offset="1" stop-color="#4042E2"/>
</linearGradient>
<linearGradient id="paint8_linear" x1="49294.2" y1="47546.6" x2="61675.7" y2="28370" gradientUnits="userSpaceOnUse">
<stop stop-color="#4F52FF"/>
<stop offset="1" stop-color="#4042E2"/>
</linearGradient>
<linearGradient id="paint9_linear" x1="40796.3" y1="42157.9" x2="53177.9" y2="22981.5" gradientUnits="userSpaceOnUse">
<stop stop-color="#4F52FF"/>
<stop offset="1" stop-color="#4042E2"/>
</linearGradient>
<linearGradient id="paint10_linear" x1="44441.7" y1="44486.1" x2="56823.2" y2="25309.5" gradientUnits="userSpaceOnUse">
<stop stop-color="#4F52FF"/>
<stop offset="1" stop-color="#4042E2"/>
</linearGradient>
<linearGradient id="paint11_linear" x1="47946" y1="46724.8" x2="60327.5" y2="27548.2" gradientUnits="userSpaceOnUse">
<stop stop-color="#4F52FF"/>
<stop offset="1" stop-color="#4042E2"/>
</linearGradient>
<linearGradient id="paint12_linear" x1="43318.2" y1="43811.7" x2="55699.7" y2="24635.1" gradientUnits="userSpaceOnUse">
<stop stop-color="#4F52FF"/>
<stop offset="1" stop-color="#4042E2"/>
</linearGradient>
<linearGradient id="paint13_linear" x1="46962.8" y1="46139.9" x2="59344.3" y2="26963.3" gradientUnits="userSpaceOnUse">
<stop stop-color="#4F52FF"/>
<stop offset="1" stop-color="#4042E2"/>
</linearGradient>
<linearGradient id="paint14_linear" x1="50467" y1="48378.7" x2="62848.6" y2="29202" gradientUnits="userSpaceOnUse">
<stop stop-color="#4F52FF"/>
<stop offset="1" stop-color="#4042E2"/>
</linearGradient>
</defs>
</svg>
