<svg width="354" height="244" viewBox="0 0 354 244" fill="none" xmlns="http://www.w3.org/2000/svg">
<ellipse cx="268.108" cy="234.052" rx="85.8712" ry="9.9485" fill="#C4C4C4" fill-opacity="0.3"/>
<path d="M255.535 55.4331C255.535 55.4331 248.394 92.349 242.916 94.7353C237.304 97.1787 195.9 100.814 195.9 100.814L197.22 110.973C197.22 110.973 243.489 113.61 248.873 110.631C254.257 107.652 265.495 92.5327 265.495 92.5327L255.535 55.4331Z" fill="#EDBB95"/>
<path d="M197.22 110.969C197.22 110.969 186.152 116.882 184.418 116.233C182.685 115.584 174.1 104.411 176.316 101.829C178.531 99.2473 195.9 100.811 195.9 100.811L197.22 110.969Z" fill="#EDBB95"/>
<path d="M194.997 101.1C194.997 101.1 189.068 94.0283 187.258 94.7115C185.447 95.3948 189.424 102.816 189.424 102.816L194.997 101.1Z" fill="#EDBB95"/>
<g style="mix-blend-mode:multiply">
<path d="M248.494 96.9247C248.114 96.228 247.563 95.64 246.892 95.2167C246.222 94.7935 245.453 94.5491 244.661 94.5068C244.548 94.5068 244.44 94.5518 244.359 94.6319C244.279 94.712 244.234 94.8206 244.234 94.9339C244.234 95.0471 244.279 95.1557 244.359 95.2358C244.44 95.3159 244.548 95.3609 244.661 95.3609C245.304 95.4029 245.926 95.6081 246.468 95.9572C247.009 96.3063 247.453 96.7877 247.757 97.356C247.782 97.4088 247.818 97.4557 247.863 97.4938C247.908 97.5319 247.96 97.5604 248.016 97.5776C248.072 97.5947 248.131 97.6001 248.189 97.5934C248.248 97.5867 248.304 97.5681 248.355 97.5387C248.405 97.5092 248.45 97.4697 248.484 97.4224C248.519 97.3752 248.544 97.3213 248.557 97.2641C248.57 97.2069 248.571 97.1476 248.56 97.0899C248.549 97.0323 248.527 96.9775 248.494 96.929V96.9247Z" fill="#F8E7DA"/>
</g>
<g style="mix-blend-mode:multiply">
<path d="M244.507 95.8218C244.211 95.3615 243.471 95.7885 243.77 96.2489C244.501 97.3742 244.941 98.6634 245.051 100.001C245.054 100.113 245.1 100.22 245.179 100.3C245.259 100.379 245.366 100.425 245.478 100.428C245.591 100.428 245.7 100.383 245.78 100.303C245.86 100.223 245.905 100.114 245.905 100.001C245.793 98.5134 245.313 97.0773 244.507 95.8218Z" fill="#F8E7DA"/>
</g>
<path d="M343.032 202.881C343.032 202.881 346.139 224.731 345.704 226.576C345.413 227.809 329.804 236.156 329.804 236.156C329.804 236.156 328.168 233.338 329.206 230.992C330.244 228.647 336.166 222.121 336.166 222.121L332.936 217.636V203.827C332.936 203.827 338.409 200.91 343.032 202.881Z" fill="#EDBB95"/>
<path d="M226.012 224.237C227.616 227.405 228.006 231.05 227.11 234.486L192.173 234.993C192.173 234.993 190.755 231.577 192.685 230.063C193.995 229.038 211.156 224.071 211.156 224.071L226.012 224.237Z" fill="#EDBB95"/>
<path d="M253.233 127.998C253.233 127.998 198.553 135.246 193.988 146.701C189.191 158.744 208.83 223.942 208.83 223.942C208.83 223.942 216.558 227.812 227.515 223.642C227.515 223.642 222.881 166.375 224.517 165.066C226.955 163.115 306.621 179.563 312.015 141.024L253.233 127.998Z" fill="#512B58"/>
<path d="M312.016 141.025C313.157 171.282 278.595 202.137 281.103 204.863C283.58 207.559 334.77 200.303 334.77 200.303C338.641 210.894 332.136 219.178 332.136 219.178C332.136 219.178 258.025 236.011 250.793 226.561C242.88 216.227 268.347 131.924 268.347 131.924L312.016 141.025Z" fill="#512B58"/>
<g style="mix-blend-mode:multiply">
<g style="mix-blend-mode:multiply">
<path d="M265.372 141.313C263.651 147.519 261.931 153.725 260.211 159.931C260.181 160.041 260.195 160.157 260.251 160.256C260.307 160.354 260.4 160.427 260.509 160.457C260.618 160.487 260.735 160.472 260.833 160.416C260.932 160.361 261.004 160.268 261.034 160.159C262.754 153.953 264.474 147.746 266.195 141.54C266.225 141.431 266.211 141.314 266.155 141.216C266.099 141.117 266.006 141.045 265.897 141.015C265.788 140.985 265.671 140.999 265.573 141.055C265.474 141.111 265.402 141.204 265.372 141.313Z" fill="#98809D"/>
</g>
<g style="mix-blend-mode:multiply">
<path d="M278.747 204.565C277.725 204.632 276.702 204.466 275.754 204.08C274.806 203.693 273.958 203.097 273.275 202.334C272.909 201.923 272.306 202.529 272.671 202.938C273.433 203.78 274.375 204.44 275.427 204.869C276.478 205.298 277.613 205.484 278.747 205.415C279.289 205.382 279.293 204.528 278.747 204.565Z" fill="#98809D"/>
</g>
<g style="mix-blend-mode:multiply">
<path d="M279.677 203.346C277.628 202.301 276.02 200.558 275.144 198.431C275.111 198.324 275.038 198.233 274.941 198.177C274.843 198.122 274.728 198.106 274.619 198.133C274.565 198.148 274.514 198.173 274.47 198.207C274.425 198.242 274.388 198.285 274.361 198.333C274.333 198.382 274.315 198.436 274.308 198.492C274.301 198.547 274.305 198.604 274.32 198.658C275.259 200.998 277.007 202.924 279.245 204.084C279.734 204.334 280.167 203.597 279.677 203.346Z" fill="#98809D"/>
</g>
<g style="mix-blend-mode:multiply">
<path d="M222.203 163.909C219.811 163.669 217.579 162.595 215.898 160.877C215.513 160.483 214.909 161.087 215.294 161.48C217.139 163.354 219.585 164.516 222.203 164.763C222.75 164.816 222.746 163.962 222.203 163.909Z" fill="#98809D"/>
</g>
<g style="mix-blend-mode:multiply">
<path d="M223.514 162.971C221.994 162.028 220.768 160.68 219.973 159.077C219.947 159.024 219.911 158.977 219.867 158.939C219.822 158.901 219.77 158.873 219.714 158.856C219.658 158.838 219.599 158.833 219.54 158.84C219.482 158.846 219.426 158.865 219.375 158.894C219.324 158.924 219.28 158.963 219.245 159.011C219.211 159.058 219.186 159.112 219.173 159.169C219.16 159.226 219.159 159.286 219.17 159.343C219.18 159.401 219.203 159.456 219.236 159.504C220.103 161.234 221.433 162.688 223.079 163.704C223.552 163.997 223.981 163.259 223.514 162.971Z" fill="#98809D"/>
</g>
</g>
<path d="M255.535 55.4331L241.889 84.8982C241.889 84.8982 247.413 93.3295 262.677 98.3445L268.129 69.7062L255.535 55.4331Z" fill="#FFA62B"/>
<path d="M311.961 141.011C311.961 141.011 293.297 158.149 253.179 127.984C253.179 127.984 257.826 121.079 259.643 93.0219C260.455 80.4732 254.401 57.4383 255.48 55.415C259.216 48.4194 276.055 44.1662 280.559 44.2969C283.25 44.3729 296.018 45.8128 302.18 53.8623C303.803 55.9898 305.264 96.9147 305.308 97.7807C305.373 99.0814 311.961 141.011 311.961 141.011Z" fill="#FFA62B"/>
<path d="M302.233 53.8779C302.233 53.8779 324.668 83.8623 325.504 95.826C326.467 109.616 305.661 147.439 305.661 147.439L295.956 144.159C295.956 144.159 308.66 108.214 307.624 95.8302C307.476 94.0529 304.822 89.2693 304.822 89.2693L302.233 53.8779Z" fill="#EDBB95"/>
<path d="M305.662 147.439C305.662 147.439 306.107 159.979 304.762 161.252C303.417 162.525 289.608 165.322 288.262 162.197C286.917 159.071 295.958 144.16 295.958 144.16L305.662 147.439Z" fill="#EDBB95"/>
<path d="M295.822 145.097C295.822 145.097 286.864 147.318 286.684 149.24C286.503 151.163 294.915 150.858 294.915 150.858L295.822 145.097Z" fill="#EDBB95"/>
<g style="mix-blend-mode:multiply">
<g style="mix-blend-mode:multiply">
<path d="M314.521 94.0736C312.927 93.888 311.311 94.1056 309.823 94.7064C309.716 94.7396 309.626 94.8124 309.57 94.91C309.515 95.0076 309.499 95.1227 309.525 95.2317C309.54 95.2858 309.565 95.3365 309.6 95.3808C309.634 95.4252 309.677 95.4623 309.726 95.4901C309.775 95.5178 309.828 95.5357 309.884 95.5426C309.94 95.5496 309.996 95.5455 310.05 95.5306C311.465 94.9553 313.002 94.7479 314.519 94.9276C314.632 94.9276 314.741 94.8826 314.821 94.8026C314.901 94.7225 314.946 94.6139 314.946 94.5006C314.943 94.3885 314.897 94.2818 314.818 94.2024C314.739 94.1229 314.633 94.0768 314.521 94.0736V94.0736Z" fill="#F8E7DA"/>
</g>
<g style="mix-blend-mode:multiply">
<path d="M314.553 96.3668C312.678 95.9984 310.739 96.116 308.922 96.7084C308.402 96.8792 308.625 97.7042 309.149 97.5317C310.817 96.9782 312.6 96.8606 314.326 97.1901C314.863 97.2943 315.093 96.471 314.553 96.3668Z" fill="#F8E7DA"/>
</g>
</g>
<path d="M274.573 7.10706C274.841 6.96439 275.072 6.76145 275.248 6.51424C275.424 6.26703 275.54 5.98233 275.587 5.68258C275.634 5.38284 275.611 5.07625 275.519 4.78701C275.427 4.49778 275.27 4.23379 275.059 4.01589C274.847 3.79799 274.589 3.63214 274.302 3.53141C274.016 3.43069 273.71 3.39784 273.409 3.43547C273.108 3.4731 272.82 3.58018 272.567 3.74825C272.315 3.91632 272.105 4.1408 271.954 4.40397C272.057 3.45933 271.831 2.50794 271.313 1.71111C271.05 1.31931 270.688 1.00374 270.263 0.796116C269.839 0.588487 269.368 0.496092 268.897 0.528231C268.428 0.579974 267.992 0.794937 267.665 1.13556C267.338 1.47618 267.141 1.92081 267.109 2.3918C260.739 -0.523112 253.415 -0.137931 246.423 0.304473C243.901 0.464182 241.057 0.786166 239.517 2.78979C239.082 3.39625 238.778 4.08742 238.626 4.81859C238.474 5.54977 238.478 6.30467 238.636 7.03448C238.966 8.496 239.684 9.84143 240.715 10.929C240.23 11.0581 239.795 11.3296 239.466 11.7085C239.138 12.0874 238.93 12.5562 238.871 13.0543C238.811 13.5524 238.903 14.0568 239.133 14.5024C239.363 14.948 239.722 15.3142 240.163 15.5537C239.377 16.9612 240.056 18.7351 240.962 20.0683C243.494 23.7937 247.688 26.1629 252.065 27.2202C256.442 28.2775 261.024 28.1366 265.504 27.6677C269.017 27.2996 273.258 26.5088 275.574 23.5247C277.763 20.7063 278.117 16.2891 277.383 12.9249C276.93 10.7871 275.966 8.79082 274.573 7.10706Z" fill="#1A0B23"/>
<path d="M272.328 17.3549C273.325 21.6466 274.755 27.1766 276.136 32.3967C276.261 32.8912 276.405 33.3959 276.529 33.8896C278.635 41.8127 280.536 48.6417 280.536 48.6417C278.53 53.5705 268.645 54.235 268.673 52.6712C268.636 51.7345 268.42 50.8135 268.035 49.9587C267.913 49.6288 267.77 49.3068 267.608 48.9945C267.601 48.9702 267.589 48.9479 267.572 48.9296C267.139 48.0022 266.448 47.2187 265.583 46.6723C265.117 46.5103 264.616 46.4729 264.131 46.5638L264.103 46.5732C264.063 46.5685 264.022 46.5708 263.983 46.58C263.927 46.5914 263.87 46.5997 263.812 46.6048C263.521 46.6501 263.199 46.6902 262.852 46.7534C262.437 46.8388 262.192 46.8841 262.192 46.8841C258.809 47.5195 253.946 48.5435 251.207 45.5005C247.162 41.0679 245.072 27.514 244.603 20.9224C244.329 17.1355 246.885 11.4841 253.229 9.50697C260.969 7.10706 269.644 5.93872 272.328 17.3549Z" fill="#EDBB95"/>
<path d="M244.578 18.0521C245.686 18.757 246.925 19.2293 248.221 19.4403C249.517 19.6513 250.842 19.5965 252.116 19.2794C254.656 18.629 257.094 17.6317 259.361 16.3158C259.304 16.4655 259.278 16.6258 259.287 16.7861C259.295 16.9463 259.338 17.1029 259.411 17.2457C259.484 17.3885 259.587 17.5142 259.712 17.6146C259.837 17.715 259.982 17.7878 260.138 17.8283C260.772 17.9434 261.427 17.8574 262.01 17.5823C261.955 19.3306 263.479 20.6749 264.936 21.5862C266.623 22.6429 268.422 23.5105 270.3 24.1731C271.223 24.6058 272.272 24.6869 273.25 24.4012C274.466 23.8956 275.02 22.4471 275.222 21.1147C275.991 16.0322 273.403 10.7738 269.403 7.65304C265.404 4.5323 260.214 3.35028 255.204 3.49632C252.103 3.45383 249.054 4.29963 246.419 5.93381C244.888 6.92692 243.704 8.37137 243.031 10.0671C242.358 11.7629 242.228 13.626 242.661 15.3985C242.968 16.481 243.647 17.4206 244.578 18.0521Z" fill="#1A0B23"/>
<path d="M260.719 28.1511C260.878 28.749 260.207 29.4459 259.221 29.7089C258.235 29.972 257.306 29.7013 257.147 29.1034C256.987 28.5056 257.659 27.8078 258.645 27.5448C259.63 27.2817 260.559 27.5533 260.719 28.1511Z" fill="#E8A294"/>
<path d="M250.391 31.3966C250.577 31.9867 249.938 32.7135 248.963 33.0193C247.989 33.325 247.049 33.0944 246.864 32.5068C246.679 31.9192 247.318 31.1907 248.293 30.8841C249.267 30.5775 250.203 30.8064 250.391 31.3966Z" fill="#E8A294"/>
<path d="M254.877 27.871C254.862 27.5676 254.947 27.2677 255.118 27.0167C255.289 26.7657 255.537 26.5772 255.825 26.4797C256.123 26.4056 256.435 26.4116 256.73 26.4969C257.024 26.5822 257.291 26.744 257.504 26.9657C257.725 27.1579 257.418 27.4927 257.199 27.3013C257.049 27.1385 256.86 27.0164 256.65 26.9463C256.44 26.8763 256.216 26.8606 255.998 26.9008C255.796 26.9615 255.62 27.0887 255.498 27.2618C255.377 27.4349 255.318 27.6438 255.33 27.8548C255.329 27.9131 255.306 27.9688 255.265 28.0105C255.225 28.0521 255.169 28.0765 255.111 28.0786C255.053 28.0807 254.996 28.0603 254.952 28.0217C254.909 27.983 254.882 27.9291 254.877 27.871Z" fill="#311E19"/>
<path d="M249.088 29.8014C249.115 29.492 249.214 29.1931 249.377 28.9289C249.54 28.6647 249.763 28.4425 250.028 28.2803C250.323 28.1851 250.64 28.1839 250.936 28.2769C251.232 28.3699 251.492 28.5526 251.68 28.7995C251.723 28.8408 251.748 28.897 251.751 28.9566C251.754 29.0162 251.734 29.0746 251.695 29.1198C251.654 29.1638 251.598 29.1901 251.538 29.193C251.478 29.1958 251.419 29.1751 251.375 29.1352C251.085 28.8269 250.626 28.487 250.185 28.7082C249.744 28.9294 249.63 29.4768 249.531 29.9038C249.516 29.9608 249.479 30.0097 249.428 30.0401C249.378 30.0705 249.317 30.08 249.26 30.0667C249.202 30.0534 249.152 30.0183 249.12 29.9688C249.088 29.9192 249.077 29.8592 249.088 29.8014V29.8014Z" fill="#311E19"/>
<path d="M253.419 32.0823C253.699 31.8988 254.034 31.8179 254.368 31.8534C254.427 31.8528 254.485 31.8752 254.529 31.9159C254.572 31.9565 254.599 32.0124 254.603 32.072C254.604 32.132 254.582 32.1902 254.541 32.2342C254.5 32.2781 254.444 32.3042 254.384 32.3069C254.151 32.2776 253.915 32.3209 253.708 32.4307C253.643 32.4798 253.594 32.5487 253.571 32.6273C253.547 32.7058 253.549 32.7899 253.577 32.8672C253.584 32.8917 253.592 32.9156 253.602 32.9389C253.61 32.9562 253.619 32.9728 253.63 32.9884C253.652 33.026 253.677 33.0612 253.707 33.0935C253.777 33.1694 253.861 33.2324 253.953 33.2797C254.179 33.3854 254.419 33.4535 254.667 33.4812C254.723 33.4971 254.77 33.5339 254.8 33.5839C254.83 33.634 254.839 33.6935 254.826 33.7502C254.813 33.807 254.779 33.8566 254.731 33.8889C254.682 33.9211 254.623 33.9336 254.566 33.9236C253.985 33.8263 253.258 33.5957 253.127 32.9286C253.09 32.7744 253.099 32.613 253.15 32.4632C253.202 32.3134 253.295 32.1813 253.419 32.0823V32.0823Z" fill="#C69E7F"/>
<path d="M254.567 40.5153C254.567 40.5153 254.577 40.5153 254.579 40.5221C255.738 40.8461 256.978 40.6965 258.026 40.1062C258.701 39.7566 259.287 39.2577 259.741 38.6475C260.027 38.2526 260.241 37.8106 260.375 37.3416C260.445 37.0759 260.485 36.8032 260.493 36.5286C260.527 36.2201 260.481 35.9081 260.36 35.6224C260.239 35.3367 260.046 35.0868 259.801 34.8965C259.614 34.7936 259.407 34.7306 259.194 34.7114C258.981 34.6921 258.767 34.717 258.564 34.7846C258.509 34.7958 258.456 34.8118 258.405 34.8324C257.961 35.0225 257.542 35.2685 257.16 35.5643C256.568 35.9837 255.926 36.328 255.248 36.5892C254.736 36.7842 254.191 36.8821 253.643 36.8779C253.401 36.841 253.156 36.8233 252.911 36.8249C252.822 36.8433 252.739 36.8833 252.669 36.9414C252.598 36.9994 252.543 37.0738 252.508 37.158C252.392 37.4029 252.349 37.6759 252.384 37.9446C252.468 38.5356 252.717 39.0907 253.104 39.5457C253.49 40.0007 253.998 40.3368 254.567 40.5153V40.5153Z" fill="#D08E81"/>
<path d="M254.575 40.5227C255.734 40.8466 256.974 40.697 258.023 40.1068C258.698 39.7571 259.284 39.2582 259.737 38.648C260.023 38.2531 260.238 37.8112 260.372 37.3422C259.618 37.3316 258.867 37.4178 258.135 37.5984C257.146 37.8108 256.233 38.2869 255.493 38.976C255.06 39.4048 254.744 39.9372 254.575 40.5227V40.5227Z" fill="#B86657"/>
<path d="M253.05 37.2413C253.217 37.4249 253.428 37.5617 253.664 37.6383C253.899 37.7148 254.151 37.7284 254.393 37.6777C255.425 37.5303 256.418 37.1821 257.317 36.6529C257.608 36.5158 257.881 36.3437 258.13 36.1404C258.383 35.9333 258.555 35.6445 258.616 35.324C258.644 35.1436 258.626 34.9593 258.564 34.7876C258.51 34.7989 258.457 34.8149 258.405 34.8354C257.961 35.0255 257.543 35.2715 257.161 35.5674C256.568 35.9867 255.926 36.331 255.249 36.5922C254.736 36.7873 254.192 36.8852 253.643 36.8809C253.401 36.844 253.157 36.8263 252.912 36.828C252.919 36.976 252.967 37.1192 253.05 37.2413V37.2413Z" fill="white"/>
<path d="M251.343 24.8577C251.326 24.817 251.301 24.7801 251.27 24.749C251.239 24.718 251.202 24.6934 251.162 24.6766C250.442 24.3815 249.635 24.3833 248.917 24.6816C248.198 24.9799 247.627 25.5505 247.329 26.2686C247.312 26.3091 247.303 26.3525 247.303 26.3964C247.303 26.4403 247.311 26.4838 247.328 26.5244C247.344 26.565 247.369 26.602 247.4 26.6331C247.431 26.6642 247.468 26.689 247.508 26.7059C247.558 26.7269 247.612 26.7354 247.665 26.7306C247.726 26.7252 247.784 26.7033 247.834 26.6672C247.883 26.631 247.922 26.5821 247.945 26.5257C248.176 25.9705 248.617 25.5293 249.172 25.2987C249.727 25.068 250.351 25.0667 250.907 25.295C250.948 25.312 250.991 25.3207 251.035 25.3207C251.079 25.3207 251.123 25.312 251.163 25.295C251.204 25.2783 251.24 25.2538 251.271 25.2229C251.302 25.1919 251.326 25.1552 251.342 25.1148C251.359 25.0741 251.368 25.0304 251.368 24.9863C251.368 24.9421 251.36 24.8984 251.343 24.8577Z" fill="#1A0B23"/>
<path d="M253.205 24.2595C253.191 24.2175 253.186 24.1732 253.19 24.1291C253.194 24.0851 253.206 24.0423 253.227 24.0033C253.586 23.3137 254.204 22.7945 254.945 22.5592C255.687 22.324 256.491 22.3918 257.182 22.7478C257.221 22.7677 257.256 22.7953 257.285 22.8289C257.313 22.8625 257.335 22.9014 257.348 22.9434C257.369 23.0109 257.369 23.0835 257.346 23.1508C257.324 23.218 257.281 23.2764 257.223 23.3175C257.173 23.3531 257.115 23.3742 257.054 23.3786C256.993 23.383 256.932 23.3704 256.877 23.3423C256.343 23.0668 255.721 23.0141 255.148 23.1958C254.575 23.3774 254.097 23.7786 253.819 24.3116C253.788 24.37 253.741 24.4181 253.683 24.4498C253.626 24.4815 253.56 24.4954 253.494 24.4897C253.428 24.484 253.366 24.4591 253.314 24.418C253.263 24.3769 253.225 24.3214 253.205 24.2587V24.2595Z" fill="#1A0B23"/>
<path d="M274.635 30.4758C275.166 30.2224 275.633 29.8529 276.002 29.3946C276.627 28.5514 277.073 27.5885 277.31 26.5659C277.65 25.4995 277.759 24.3733 277.632 23.2616C277.563 22.7068 277.372 22.1741 277.073 21.7022C276.773 21.2303 276.372 20.8308 275.899 20.5328C275.423 20.2827 274.894 20.1499 274.357 20.1456C273.819 20.1413 273.288 20.2656 272.808 20.5081C271.847 21.0089 271.098 21.8373 270.696 22.8431C270.3 23.8446 270.142 24.9242 270.235 25.9971C270.289 27.3723 270.769 28.6967 271.607 29.7883C271.998 30.2893 272.564 30.6246 273.191 30.7277C273.687 30.7827 274.188 30.6953 274.635 30.4758V30.4758Z" fill="#EDBB95"/>
<path d="M272.73 24.6275C273.075 23.5806 273.798 22.7001 274.758 22.1584C275.014 22.0158 275.258 22.3967 275.004 22.5393C274.114 23.0379 273.452 23.8621 273.158 24.8385C272.864 25.8149 272.959 26.8675 273.425 27.7747C273.559 28.0309 273.18 28.2786 273.044 28.0207C272.769 27.5042 272.6 26.9382 272.546 26.3557C272.492 25.7731 272.555 25.1856 272.73 24.6275Z" fill="#C69D7F"/>
<path d="M272.859 24.3619C273.23 24.1333 273.657 24.0118 274.093 24.0107C274.529 24.0097 274.957 24.1291 275.33 24.3559C275.382 24.385 275.42 24.4329 275.438 24.4898C275.456 24.5466 275.451 24.6082 275.425 24.6617C275.397 24.7148 275.349 24.7547 275.292 24.7728C275.235 24.7908 275.173 24.7856 275.12 24.7582C274.818 24.5685 274.47 24.4666 274.114 24.4638C273.758 24.4611 273.408 24.5577 273.104 24.7428C273.053 24.7753 272.992 24.7864 272.933 24.7737C272.875 24.761 272.823 24.7254 272.791 24.6749C272.758 24.6244 272.747 24.5631 272.76 24.5044C272.773 24.4457 272.808 24.3944 272.859 24.3619V24.3619Z" fill="#C69D7F"/>
<g style="mix-blend-mode:multiply">
<path d="M274.671 42.4627C272.302 44.1847 269.577 45.3522 266.696 45.879C266.159 45.9764 266.245 46.827 266.786 46.733C269.815 46.1853 272.683 44.9638 275.177 43.1588C275.223 43.1256 275.262 43.0836 275.291 43.0354C275.321 42.9872 275.34 42.9336 275.349 42.8778C275.358 42.822 275.356 42.765 275.342 42.71C275.329 42.6551 275.305 42.6032 275.272 42.5575C275.239 42.5118 275.197 42.4731 275.149 42.4436C275.1 42.4141 275.047 42.3944 274.991 42.3856C274.935 42.3768 274.878 42.3791 274.823 42.3923C274.768 42.4056 274.716 42.4295 274.671 42.4627Z" fill="#F8E7DA"/>
</g>
<path d="M299.419 50.9668C299.419 50.9668 317.616 65.8872 325.539 80.1338C325.539 80.1338 320.572 91.1461 305.203 93.7561L299.419 50.9668Z" fill="#FFA62B"/>
<g style="mix-blend-mode:multiply">
<g style="mix-blend-mode:multiply">
<path d="M303.103 89.7521C300.593 86.5545 298.823 82.8398 297.922 78.8757C297.799 78.3402 296.976 78.5665 297.098 79.1028C298.043 83.2075 299.888 87.0511 302.499 90.3559C302.839 90.7915 303.44 90.1791 303.103 89.7521Z" fill="#C895A9"/>
</g>
<g style="mix-blend-mode:multiply">
<path d="M303.445 99.6218C303.364 99.5439 303.256 99.5005 303.143 99.5005C303.031 99.5005 302.923 99.5439 302.842 99.6218C302.083 100.217 301.213 100.656 300.283 100.912C299.353 101.169 298.382 101.238 297.425 101.116C297.312 101.116 297.203 101.161 297.123 101.241C297.043 101.322 296.998 101.43 296.998 101.543C297.001 101.656 297.046 101.763 297.126 101.842C297.206 101.922 297.313 101.968 297.425 101.97C298.494 102.093 299.577 102.002 300.611 101.703C301.644 101.403 302.608 100.901 303.445 100.226C303.525 100.146 303.57 100.037 303.57 99.9237C303.57 99.8104 303.525 99.7018 303.445 99.6218V99.6218Z" fill="#C895A9"/>
</g>
<g style="mix-blend-mode:multiply">
<path d="M303.558 101.608C301.972 104.128 298.819 104.744 296.107 105.236C295.566 105.335 295.795 106.158 296.333 106.06C299.297 105.522 302.574 104.773 304.295 102.039C304.588 101.572 303.85 101.144 303.558 101.608Z" fill="#C895A9"/>
</g>
<g style="mix-blend-mode:multiply">
<path d="M258.228 79.2685C258.198 79.1594 258.126 79.0666 258.027 79.0107C257.929 78.9548 257.812 78.9403 257.703 78.9705C257.594 79.0006 257.501 79.0729 257.445 79.1714C257.389 79.2699 257.375 79.3865 257.405 79.4957C258.689 83.8139 259.221 88.3206 258.979 92.8191C258.949 93.3682 259.803 93.3665 259.833 92.8191C260.077 88.2437 259.534 83.6605 258.228 79.2685V79.2685Z" fill="#C895A9"/>
</g>
</g>
<ellipse cx="72.3309" cy="233.219" rx="72.3094" ry="10.1624" fill="#C4C4C4" fill-opacity="0.3"/>
<path d="M95.6785 195.773C95.6785 195.773 94.336 207.178 99.8865 216.694C105.437 226.211 108.61 226.475 109.535 227.929C110.46 229.383 111.121 231.101 109.271 231.366C107.421 231.63 103.059 229.383 101.341 227.4C99.6227 225.418 91.6768 215.729 91.6299 214.471C91.583 213.212 93.186 199.569 95.6785 195.773Z" fill="#877A9C"/>
<path d="M49.0794 181.588C49.0794 181.588 52.3034 194.227 51.9069 198.589C51.5103 202.951 49.5277 207.444 51.1138 214.317C52.6999 221.19 52.8318 223.172 54.9471 224.362C57.0624 225.552 59.1761 226.871 58.2512 228.195C57.3262 229.52 54.0214 229.517 52.0388 228.195C50.0562 226.874 41.8498 215.709 41.3335 213.581C40.8172 211.454 30.3628 178.763 32.2135 174.269C34.0642 169.776 34.7221 166.867 37.2356 166.207C39.749 165.547 49.0794 181.588 49.0794 181.588Z" fill="#877A9C"/>
<path d="M20.9636 129.778C20.9636 129.778 11.9165 148.876 13.9274 158.931C15.9383 168.986 29.5083 197.381 30.0108 208.439C30.5133 219.496 26.4898 230.052 28.5032 231.811C28.7252 232.057 28.9966 232.254 29.2996 232.389C29.6027 232.524 29.9307 232.594 30.2625 232.594C30.5942 232.594 30.9222 232.524 31.2253 232.389C31.5284 232.254 31.7997 232.057 32.0217 231.811C32.0217 231.811 33.2785 223.518 36.5453 218.24C39.8122 212.962 40.8172 211.455 40.8172 211.455C40.8172 211.455 47.1001 201.151 44.3357 193.36C41.5714 185.57 37.0478 171.245 37.0478 171.245C37.0478 171.245 48.6085 179.538 53.637 187.077C58.6656 194.617 72.2339 196.879 74.2448 197.13L76.2549 197.381C76.2549 197.381 84.0454 211.455 86.8097 217.486C89.574 223.517 91.3333 232.369 96.3586 232.592C101.384 232.816 100.128 231.56 99.1229 230.554C98.1178 229.548 91.3317 218.994 91.5833 213.214C91.835 207.434 95.9297 192.858 100.04 185.318C104.15 177.779 112.187 161.695 112.187 161.695C112.187 161.695 131.918 154.364 130.99 143.094C130.062 131.825 95.5979 90.8578 94.4019 92.1842C93.2058 93.5105 102.09 122.147 102.09 122.147L96.6539 125.329C96.6539 125.329 77.1661 102.923 74.647 106.104C72.1279 109.286 82.0717 137.791 85.9163 144.022L89.7618 150.254L86.5799 156.75C86.5799 156.75 64.8367 151.844 58.8703 148.795C52.9038 145.746 41.9 132.09 36.3317 130.897C30.7634 129.703 26.3887 128.776 26.3887 128.776C26.3887 128.776 33.0171 112.471 46.01 106.104C59.003 99.7375 89.4963 90.5924 95.5979 81.0467C101.699 71.5011 98.3825 58.7736 91.3559 57.7135C84.3294 56.6534 86.9804 63.0163 89.2341 68.4519C91.4878 73.8875 93.4769 75.8766 90.1623 80.7821C86.8477 85.6877 65.3668 97.0889 51.0483 99.078C36.7298 101.067 22.9543 125.158 20.9636 129.778Z" fill="#9BC9EB"/>
<path d="M102.254 147.205C103.412 147.205 104.351 146.266 104.351 145.108C104.351 143.949 103.412 143.01 102.254 143.01C101.095 143.01 100.156 143.949 100.156 145.108C100.156 146.266 101.095 147.205 102.254 147.205Z" fill="#5C2929"/>
<path d="M117.935 136.018C119.094 136.018 120.033 135.079 120.033 133.92C120.033 132.762 119.094 131.823 117.935 131.823C116.777 131.823 115.838 132.762 115.838 133.92C115.838 135.079 116.777 136.018 117.935 136.018Z" fill="#5C2929"/>
<path d="M122.123 146.839C122.123 146.839 118.991 139.593 114.938 140.575C110.885 141.557 110.578 151.261 111.991 154.393C113.404 157.524 123.658 154.699 122.123 146.839Z" fill="white"/>
<path d="M112.817 142.276C112.817 142.276 113.799 144.026 115.35 144.243C116.902 144.46 117.255 140.835 116.994 140.742L116.732 140.649C116.732 140.649 114.614 139.589 112.817 142.276Z" fill="#4D2322"/>
<path d="M112.817 147.205C112.817 147.205 115.076 150.425 117.072 149.545C119.069 148.665 118.755 143.325 118.755 143.325C118.755 143.325 119.942 148.791 117.935 150.299C115.928 151.808 113.481 148.698 112.817 147.205Z" fill="#5C2929"/>
<path d="M87.7053 154.45C87.7053 154.45 93.1271 161.83 98.1743 166.005C100.868 168.33 103.887 170.249 107.135 171.702L105.138 175.605C105.138 175.605 97.6523 172.269 93.9404 169.485C90.2285 166.701 84.8682 156.355 84.8682 156.355L86.5797 156.75L87.7053 154.45Z" fill="#EA457F"/>
<path d="M114.945 176.868C114.945 176.868 111.173 170.417 109.251 171.927C107.33 173.437 111.169 180.437 112.818 180.711C113.284 180.761 113.755 180.673 114.171 180.457C114.588 180.241 114.931 179.907 115.158 179.496C115.385 179.086 115.486 178.617 115.448 178.15C115.411 177.682 115.235 177.236 114.945 176.868V176.868Z" fill="#E6BB2E"/>
<path d="M97.585 156.965C97.585 156.965 104.56 164.501 112.19 161.694L107.946 170.11C107.946 170.11 98.5455 163.005 97.585 156.965Z" fill="#877A9C"/>
<path d="M91.6318 228.924C91.6318 228.924 93.7415 224.03 95.6246 225.068C97.5076 226.105 101.587 231.928 99.7791 232.27C97.9713 232.612 93.1224 233.646 91.6318 228.924Z" fill="white"/>
<path d="M103.469 229.186C103.469 229.186 108.055 232.628 110.448 231.388C112.842 230.148 110.074 228.509 107.666 226.343C105.259 224.178 102.062 227.034 103.469 229.186Z" fill="white"/>
<path d="M58.4749 226.485C58.4749 226.485 56.375 223.924 53.9667 223.606C51.5584 223.288 49.8631 225.548 51.569 227.809C53.2748 230.07 59.777 230.15 58.4749 226.485Z" fill="white"/>
<path d="M35.0293 231.389C35.0293 231.389 35.8385 228.386 32.9771 227.319C30.1157 226.251 27.2316 228.723 28.0125 230.762C28.7934 232.8 32.9237 235.279 35.0293 231.389Z" fill="white"/>
<path d="M113.827 117.659C113.827 117.659 97.9058 93.463 97.5854 98.5118C97.2649 103.561 103.936 119.891 104.888 120.126C105.84 120.362 107.186 120.361 106.924 119.303C106.662 118.246 103.842 108.972 103.842 108.972C103.842 108.972 110.506 118.481 111.227 118.951C111.948 119.421 113.827 117.659 113.827 117.659Z" fill="#EC6198"/>
<path d="M90.6855 124.825C91.2721 125.177 79.5254 110.493 78.9379 112.961C78.3504 115.428 85.8689 138.451 87.7488 138.569C89.6286 138.686 90.7065 133.92 90.7065 133.92L85.7516 124.708C85.7516 124.708 91.625 132.007 92.0951 131.822C92.5653 131.638 94.4419 129.171 94.4419 129.171L90.6855 124.825Z" fill="#EC6198"/>
</svg>
