<svg width="146" height="218" viewBox="0 0 146 218" fill="none" xmlns="http://www.w3.org/2000/svg">
<path d="M101.385 170.753C101.385 170.753 99.7256 184.846 106.585 196.606C113.444 208.366 117.365 208.692 118.508 210.489C119.651 212.286 120.468 214.409 118.182 214.736C115.896 215.063 110.505 212.286 108.382 209.836C106.259 207.386 96.4396 195.413 96.3816 193.858C96.3236 192.303 98.3046 175.443 101.385 170.753Z" fill="#877A9C"/>
<path d="M43.8005 153.221C43.8005 153.221 47.7845 168.84 47.2945 174.23C46.8045 179.62 44.3545 185.173 46.3145 193.666C48.2745 202.159 48.4375 204.609 51.0515 206.079C53.6655 207.549 56.2775 209.179 55.1345 210.816C53.9915 212.453 49.9076 212.449 47.4576 210.816C45.0075 209.183 34.8665 195.386 34.2285 192.757C33.5905 190.128 20.6716 149.73 22.9585 144.177C25.2455 138.624 26.0586 135.03 29.1646 134.214C32.2706 133.398 43.8005 153.221 43.8005 153.221Z" fill="#877A9C"/>
<path d="M9.0554 89.1983C9.0554 89.1983 -2.1246 112.798 0.360395 125.223C2.84539 137.648 19.6144 172.738 20.2354 186.402C20.8564 200.066 15.8844 213.111 18.3724 215.284C18.6468 215.589 18.9821 215.832 19.3566 215.999C19.7311 216.166 20.1365 216.252 20.5464 216.252C20.9563 216.252 21.3617 216.166 21.7362 215.999C22.1107 215.832 22.446 215.589 22.7204 215.284C22.7204 215.284 24.2734 205.036 28.3104 198.514C32.3474 191.992 33.5894 190.129 33.5894 190.129C33.5894 190.129 41.3534 177.396 37.9374 167.769C34.5214 158.142 28.9314 140.44 28.9314 140.44C28.9314 140.44 43.2174 150.688 49.4314 160.005C55.6454 169.322 72.4124 172.117 74.8974 172.427L77.3814 172.738C77.3814 172.738 87.0084 190.129 90.4244 197.582C93.8404 205.035 96.0144 215.974 102.224 216.25C108.434 216.526 106.882 214.974 105.64 213.731C104.398 212.488 96.0124 199.446 96.3234 192.303C96.6344 185.16 101.694 167.148 106.773 157.831C111.852 148.514 121.784 128.639 121.784 128.639C121.784 128.639 146.167 119.579 145.02 105.653C143.873 91.7273 101.284 41.1023 99.8064 42.7413C98.3284 44.3803 109.306 79.7673 109.306 79.7673L102.589 83.6993C102.589 83.6993 78.5074 56.0113 75.3944 59.9433C72.2814 63.8753 84.5694 99.1003 89.3204 106.8L94.0724 114.5L90.1404 122.528C90.1404 122.528 63.2714 116.466 55.8984 112.698C48.5254 108.93 34.9274 92.0553 28.0464 90.5803C21.1654 89.1053 15.7594 87.9593 15.7594 87.9593C15.7594 87.9593 23.9504 67.8113 40.0064 59.9433C56.0624 52.0753 93.7444 40.7743 101.284 28.9783C108.824 17.1823 104.725 1.45431 96.0424 0.144315C87.3594 -1.16569 90.6354 6.69732 93.4204 13.4143C96.2054 20.1313 98.6634 22.5893 94.5674 28.6513C90.4714 34.7133 63.9264 48.8023 46.2324 51.2603C28.5384 53.7183 11.5154 83.4883 9.0554 89.1983Z" fill="#9BC9EB"/>
<path d="M109.509 110.733C110.941 110.733 112.101 109.573 112.101 108.141C112.101 106.71 110.941 105.549 109.509 105.549C108.078 105.549 106.917 106.71 106.917 108.141C106.917 109.573 108.078 110.733 109.509 110.733Z" fill="#5C2929"/>
<path d="M128.888 96.9081C130.32 96.9081 131.48 95.7476 131.48 94.3161C131.48 92.8846 130.32 91.7241 128.888 91.7241C127.457 91.7241 126.296 92.8846 126.296 94.3161C126.296 95.7476 127.457 96.9081 128.888 96.9081Z" fill="#5C2929"/>
<path d="M134.063 110.281C134.063 110.281 130.193 101.326 125.184 102.54C120.175 103.754 119.796 115.745 121.542 119.615C123.288 123.485 135.96 119.994 134.063 110.281Z" fill="white"/>
<path d="M122.564 104.642C122.564 104.642 123.777 106.804 125.694 107.072C127.611 107.34 128.048 102.861 127.725 102.746L127.401 102.631C127.401 102.631 124.784 101.321 122.564 104.642Z" fill="#4D2322"/>
<path d="M122.564 110.733C122.564 110.733 125.355 114.711 127.822 113.624C130.289 112.537 129.901 105.938 129.901 105.938C129.901 105.938 131.368 112.692 128.888 114.556C126.408 116.42 123.384 112.578 122.564 110.733Z" fill="#5C2929"/>
<path d="M91.5314 119.687C91.5314 119.687 98.2314 128.807 104.468 133.967C107.797 136.84 111.527 139.211 115.541 141.006L113.073 145.829C113.073 145.829 103.823 141.707 99.2364 138.267C94.6494 134.827 88.0254 122.041 88.0254 122.041L90.1404 122.529L91.5314 119.687Z" fill="#EA457F"/>
<path d="M125.194 147.39C125.194 147.39 120.532 139.418 118.158 141.284C115.784 143.15 120.528 151.8 122.565 152.139C123.141 152.201 123.723 152.092 124.237 151.825C124.752 151.558 125.176 151.145 125.457 150.637C125.738 150.13 125.862 149.552 125.816 148.974C125.769 148.396 125.552 147.845 125.194 147.39Z" fill="#E6BB2E"/>
<path d="M103.74 122.795C103.74 122.795 112.359 132.107 121.788 128.639L116.543 139.039C116.543 139.039 104.927 130.258 103.74 122.795Z" fill="#877A9C"/>
<path d="M96.3843 211.718C96.3843 211.718 98.9913 205.67 101.318 206.952C103.645 208.234 108.686 215.429 106.452 215.852C104.218 216.275 98.2263 217.553 96.3843 211.718Z" fill="white"/>
<path d="M111.011 212.041C111.011 212.041 116.678 216.294 119.636 214.762C122.594 213.23 119.173 211.204 116.198 208.528C113.223 205.852 109.273 209.382 111.011 212.041Z" fill="white"/>
<path d="M55.4106 208.703C55.4106 208.703 52.8156 205.538 49.8396 205.145C46.8636 204.752 44.7686 207.545 46.8766 210.339C48.9846 213.133 57.0196 213.232 55.4106 208.703Z" fill="white"/>
<path d="M26.4377 214.762C26.4377 214.762 27.4377 211.051 23.9017 209.732C20.3657 208.413 16.8017 211.468 17.7667 213.987C18.7317 216.506 23.8357 219.569 26.4377 214.762Z" fill="white"/>
<path d="M123.811 74.2224C123.811 74.2224 104.136 44.3224 103.74 50.5614C103.344 56.8004 111.588 76.9804 112.764 77.2714C113.94 77.5624 115.604 77.5614 115.28 76.2544C114.956 74.9474 111.472 63.4874 111.472 63.4874C111.472 63.4874 119.706 75.2384 120.597 75.8194C121.488 76.4004 123.811 74.2224 123.811 74.2224Z" fill="#EC6198"/>
<path d="M95.2145 83.0773C95.9395 83.5123 81.4235 65.3673 80.6975 68.4163C79.9715 71.4653 89.2625 99.9163 91.5855 100.061C93.9085 100.206 95.2405 94.3163 95.2405 94.3163L89.1175 82.9323C89.1175 82.9323 96.3755 91.9523 96.9565 91.7243C97.5375 91.4963 99.8565 88.4483 99.8565 88.4483L95.2145 83.0773Z" fill="#EC6198"/>
</svg>
