<svg width="50" height="29" viewBox="0 0 50 29" fill="none" xmlns="http://www.w3.org/2000/svg">
<path d="M49.988 16.0683C49.9975 16.1794 50.0014 16.291 49.9996 16.4025C50.0012 16.6407 49.9792 16.8786 49.9341 17.1125C49.8925 17.3096 49.8263 17.6023 49.7431 17.871C49.4579 18.85 49.0141 19.7756 48.4294 20.611C47.3396 22.1361 45.951 23.4236 44.348 24.3951C42.8646 25.3251 41.2808 26.0841 39.6266 26.6576C38.028 27.2155 36.3922 27.6604 34.7312 27.9891C31.464 28.6015 28.1467 28.9073 24.8226 28.9024C21.4812 28.9009 18.1494 28.5447 14.8832 27.8397C13.2407 27.4744 11.6208 27.0138 10.0317 26.4605C8.40487 25.8998 6.83063 25.1969 5.32728 24.3597C4.54691 23.9215 3.79718 23.4309 3.08327 22.8912C2.29173 22.314 1.59091 21.6218 1.00406 20.8374C0.65902 20.3723 0.387369 19.857 0.198565 19.3095C-0.0284462 18.6377 -0.0615472 17.9155 0.103069 17.2257C0.273872 16.5978 0.600162 16.0231 1.0518 15.5546C1.30901 15.262 1.56545 14.9517 1.79802 14.6529C2.28102 14.0261 2.70484 13.3558 3.06402 12.6507C3.41595 11.9637 3.73862 11.2183 4.04896 10.5014L4.12596 10.3281C4.73509 8.87189 5.47514 7.15846 6.26909 5.48738C6.2892 5.44427 6.3151 5.40411 6.34609 5.36802C6.37078 5.32301 6.40309 5.28262 6.44159 5.24866C7.69393 4.04809 9.13361 3.05969 10.704 2.32236C12.2348 1.61628 13.8436 1.09337 15.4969 0.764494C18.6912 0.189751 21.9352 -0.0620487 25.1799 0.0128991C28.4292 -0.0501318 31.6762 0.225764 34.8683 0.836114C36.512 1.1881 38.1101 1.72707 39.6312 2.4425C41.1719 3.18413 42.6156 4.11237 43.9298 5.20631C43.9914 5.2617 44.0419 5.32835 44.0784 5.40268C44.1325 5.46687 44.1714 5.54241 44.1924 5.62369C44.6589 7.19948 45.385 8.68638 46.3409 10.0231C46.8307 10.7162 47.3797 11.4139 47.8572 12.0292L48.0366 12.2556C48.5696 12.9048 49.0431 13.6007 49.4513 14.3348C49.7449 14.8707 49.9275 15.4602 49.988 16.0683V16.0683ZM48.7643 16.8799C48.806 16.6454 48.8179 16.4066 48.7998 16.1691C48.75 15.7171 48.6122 15.2791 48.394 14.88C48.0154 14.2131 47.58 13.58 47.0925 12.988L46.9192 12.7608C46.4302 12.1339 45.875 11.4301 45.3675 10.7078C44.4231 9.38296 43.6826 7.92415 43.1705 6.3799C43.0631 6.32898 42.9721 6.24895 42.9079 6.14889C42.8497 6.05323 42.8168 5.94428 42.8124 5.83238C41.6699 4.92188 40.4284 4.14304 39.1114 3.51059C37.6763 2.8357 36.168 2.32897 34.6165 2.00047C31.5052 1.40481 28.3401 1.13665 25.173 1.20035C22.0105 1.12819 18.8488 1.37224 15.7349 1.92885C14.1762 2.23671 12.6594 2.72785 11.2161 3.39201C9.89547 4.01786 8.67143 4.82982 7.5813 5.80312C7.58216 5.93177 7.54227 6.0574 7.46733 6.16198C7.39301 6.26694 7.28606 6.34437 7.16315 6.38222C6.44698 7.91082 5.78394 9.45715 5.22332 10.794L5.15171 10.9549C4.82288 11.7073 4.49483 12.4712 4.12442 13.1882C3.72899 13.9585 3.26507 14.6918 2.73828 15.379C2.49339 15.6956 2.21925 16.0236 1.93278 16.3524C1.61896 16.6772 1.38923 17.0738 1.26358 17.5076C1.14869 17.9774 1.17168 18.4704 1.32981 18.9276C1.47821 19.3605 1.69362 19.7674 1.9682 20.1335C2.48873 20.8199 3.10609 21.4271 3.80099 21.9363C4.46869 22.445 5.17289 22.9039 5.90792 23.3093C7.34889 24.1152 8.85914 24.7905 10.4206 25.3269C11.9655 25.8648 13.5401 26.3132 15.1365 26.6699C18.3164 27.3562 21.5603 27.7024 24.8134 27.7026C28.0614 27.7073 31.3028 27.4096 34.4956 26.8132C36.0999 26.4958 37.6797 26.065 39.2231 25.5241C40.7937 24.9839 42.2978 24.267 43.7065 23.3871C45.1735 22.4965 46.4445 21.3176 47.4429 19.9217C47.9555 19.1921 48.3457 18.3837 48.598 17.5283C48.6742 17.2981 48.7282 17.047 48.7643 16.8799Z" fill="#EA457F"/>
<path d="M47.1941 17.2143C47.2004 17.4108 47.1822 17.6074 47.1401 17.7995C47.1401 17.8049 47.1402 17.8049 47.134 17.8111C47.0809 18.0321 47.0269 18.2115 46.9615 18.4079C46.6978 19.1637 46.3126 19.8715 45.821 20.5033C44.8541 21.7182 43.6598 22.733 42.3048 23.4912C39.6503 24.9424 36.7641 25.9221 33.7747 26.3867C30.8758 26.8912 27.9381 27.1389 24.9958 27.1267H24.5484C21.6451 27.1202 18.7495 26.8261 15.9042 26.2488C12.931 25.6991 10.047 24.7451 7.33247 23.4134C5.93429 22.7627 4.68019 21.8393 3.6438 20.6973C3.3759 20.4074 3.1729 20.0636 3.04834 19.689C2.92379 19.3144 2.88053 18.9176 2.92146 18.5249C3.01268 18.1338 3.20159 17.7721 3.47053 17.4738C3.73312 17.1519 3.96569 16.8354 4.17438 16.525C5.05978 15.1546 5.75095 13.6681 6.22817 12.1079L6.55084 11.1838C6.96822 9.97783 7.39792 8.7303 7.8515 7.50048C7.89235 7.39997 7.95839 7.31166 8.04326 7.24405C10.459 5.40695 13.309 4.22638 16.3162 3.8172C17.2957 3.65626 18.3284 3.53689 19.4681 3.45373C19.6241 3.44437 19.7777 3.49562 19.8968 3.59678C20.0159 3.69794 20.0913 3.84119 20.1073 3.99663C20.1218 4.15148 20.0748 4.30581 19.9766 4.42637C19.8784 4.54694 19.7367 4.62408 19.5821 4.64118C13.3737 5.33964 9.03973 7.20785 9.03973 9.19003C9.03973 11.5241 15.4807 14.0315 25.0674 14.0315C34.6541 14.0315 41.0958 11.5241 41.0958 9.19003C41.0958 7.30334 37.0306 5.47133 31.2103 4.72359C31.0527 4.70623 30.9085 4.62698 30.8094 4.50329C30.7102 4.3796 30.6643 4.22158 30.6816 4.06401C30.699 3.90644 30.7782 3.76221 30.9019 3.66307C31.0256 3.56393 31.1836 3.51798 31.3412 3.53534C32.2907 3.62467 33.1894 3.74404 34.0157 3.88727C36.9842 4.38772 39.8101 5.52186 42.301 7.21248C42.3656 7.25538 42.4211 7.31069 42.4642 7.3752C42.5073 7.43971 42.5371 7.51213 42.552 7.58827C42.7064 8.34877 42.928 9.09406 43.2143 9.81535C43.5214 10.5581 43.8847 11.2763 44.3009 11.9639C44.7129 12.6569 45.1726 13.3254 45.6262 13.9761L45.7278 14.1255C46.165 14.7312 46.5513 15.3721 46.883 16.0414C47.0565 16.4104 47.1619 16.8078 47.1941 17.2143V17.2143ZM45.9766 17.5223C45.9962 17.4404 46.0042 17.3562 46.0004 17.272C45.9779 17.0151 45.909 16.7644 45.7971 16.532C45.4944 15.9312 45.1431 15.356 44.7467 14.8124L44.6389 14.6514C44.1769 13.9884 43.7018 13.3023 43.2721 12.5722C42.8262 11.8307 42.437 11.0567 42.1077 10.2566C42.1023 10.2381 42.09 10.2204 42.0838 10.2027C40.7408 13.5032 32.8552 15.2228 25.0651 15.2228C17.3766 15.2228 9.60421 13.551 8.1064 10.3336C7.95701 10.752 7.81377 11.1627 7.6767 11.5657L7.35403 12.4898C6.84207 14.1517 6.10272 15.7349 5.157 17.1942C4.9306 17.5285 4.67955 17.8688 4.39308 18.2269C4.24462 18.3763 4.13835 18.5623 4.08505 18.766C4.0807 18.9819 4.12022 19.1964 4.20123 19.3965C4.28224 19.5967 4.40306 19.7783 4.55634 19.9303C5.49009 20.9464 6.61543 21.7679 7.86768 22.3476C10.4856 23.6267 13.265 24.5446 16.1298 25.076C18.8982 25.6387 21.7157 25.9246 24.5407 25.9292H24.9881C27.8613 25.9418 30.73 25.7001 33.5606 25.2069C36.4131 24.7667 39.1678 23.8358 41.7026 22.4554C42.9234 21.7765 44.0001 20.8659 44.8723 19.7748C45.2832 19.2431 45.6056 18.6487 45.8272 18.0144C45.8883 17.8527 45.9382 17.687 45.9766 17.5184V17.5223Z" fill="#EA457F"/>
</svg>
